<svg width="50" height="50" viewBox="0 0 50 50" fill="none" xmlns="http://www.w3.org/2000/svg">
<path fill-rule="evenodd" clip-rule="evenodd" d="M25 50C38.8071 50 50 38.8071 50 25C50 11.1929 38.8071 -2.14577e-06 25 -2.14577e-06C11.1929 -2.14577e-06 0 11.1929 0 25C0 38.8071 11.1929 50 25 50Z" fill="#E0E0E0"/>
<path fill-rule="evenodd" clip-rule="evenodd" d="M21.1405 17.3802L20.3767 18.1502C20.1256 18.4172 20 18.7287 20 19.0846C20 19.4476 20.1256 19.7557 20.3767 20.009L25.3259 25L20.3768 29.991C20.1257 30.2443 20.0001 30.5524 20.0001 30.9153C20.0001 31.2713 20.1257 31.5828 20.3768 31.8498L21.1407 32.6098C21.3985 32.8699 21.7075 33 22.0673 33C22.4339 33 22.7394 32.8698 22.9837 32.6098L29.613 25.9243C29.871 25.6778 30 25.3698 30 25C30 24.6371 29.871 24.3256 29.613 24.0656L22.9837 17.3802C22.7325 17.1268 22.427 17 22.0673 17C21.7142 17 21.4054 17.1268 21.1405 17.3802Z" fill="#FEFEFE"/>
</svg>
