<svg width="50" height="50" fill="none" viewBox="0 0 50 50" xmlns="http://www.w3.org/2000/svg">
<path fill-rule="evenodd" clip-rule="evenodd" d="M25 -2.18557e-06C11.1929 -3.39263e-06 3.39263e-06 11.1929 2.18557e-06 25C9.78513e-07 38.8071 11.1929 50 25 50C38.8071 50 50 38.8071 50 25C50 11.1929 38.8071 -9.78513e-07 25 -2.18557e-06Z" fill="#E0E0E0"/>
<path fill-rule="evenodd" clip-rule="evenodd" d="M28.8595 32.6198L29.6233 31.8498C29.8744 31.5828 30 31.2713 30 30.9154C30 30.5524 29.8744 30.2443 29.6233 29.991L24.6741 25L29.6232 20.009C29.8743 19.7557 29.9999 19.4476 29.9999 19.0847C29.9999 18.7287 29.8743 18.4172 29.6232 18.1502L28.8593 17.3902C28.6015 17.1301 28.2925 17 27.9327 17C27.5661 17 27.2606 17.1302 27.0163 17.3902L20.387 24.0757C20.129 24.3222 20 24.6302 20 25C20 25.3629 20.129 25.6744 20.387 25.9344L27.0163 32.6198C27.2675 32.8732 27.573 33 27.9327 33C28.2858 33 28.5946 32.8732 28.8595 32.6198Z" fill="#FEFEFE"/>
</svg>
