<svg width="90" height="90" viewBox="0 0 90 90" fill="none" xmlns="http://www.w3.org/2000/svg">
<g filter="url(#filter0_d)">
<path fill-rule="evenodd" clip-rule="evenodd" d="M45 70C58.8071 70 70 58.8071 70 45C70 31.1929 58.8071 20 45 20C31.1929 20 20 31.1929 20 45C20 58.8071 31.1929 70 45 70Z" fill="#57BCF1"/>
<path fill-rule="evenodd" clip-rule="evenodd" d="M42.1405 37.3802L41.3767 38.1502C41.1256 38.4172 41 38.7287 41 39.0846C41 39.4476 41.1256 39.7557 41.3767 40.009L46.3259 45L41.3768 49.991C41.1257 50.2443 41.0001 50.5524 41.0001 50.9153C41.0001 51.2713 41.1257 51.5828 41.3768 51.8498L42.1407 52.6098C42.3985 52.8699 42.7075 53 43.0673 53C43.4339 53 43.7394 52.8698 43.9837 52.6098L50.613 45.9243C50.871 45.6778 51 45.3698 51 45C51 44.6371 50.871 44.3256 50.613 44.0656L43.9837 37.3802C43.7325 37.1268 43.427 37 43.0673 37C42.7142 37 42.4054 37.1268 42.1405 37.3802Z" fill="white"/>
</g>
<defs>
<filter id="filter0_d" x="0" y="-4.76837e-07" width="90" height="90" filterUnits="userSpaceOnUse" color-interpolation-filters="sRGB">
<feFlood flood-opacity="0" result="BackgroundImageFix"/>
<feColorMatrix in="SourceAlpha" type="matrix" values="0 0 0 0 0 0 0 0 0 0 0 0 0 0 0 0 0 0 127 0"/>
<feOffset/>
<feGaussianBlur stdDeviation="10"/>
<feColorMatrix type="matrix" values="0 0 0 0 0.341176 0 0 0 0 0.737255 0 0 0 0 0.945098 0 0 0 0.4 0"/>
<feBlend mode="normal" in2="BackgroundImageFix" result="effect1_dropShadow"/>
<feBlend mode="normal" in="SourceGraphic" in2="effect1_dropShadow" result="shape"/>
</filter>
</defs>
</svg>
