<svg width="21" height="21" viewBox="0 0 21 21" fill="none" xmlns="http://www.w3.org/2000/svg">
<g clip-path="url(#clip0)">
<path d="M11.9178 20.959H8.54831C7.98549 20.959 7.52765 20.502 7.52765 19.9403V12.355H5.56179C4.99897 12.355 4.54114 11.8979 4.54114 11.3363V8.08601C4.54114 7.52429 4.99897 7.06735 5.56179 7.06735H7.52765V5.4397C7.52765 3.82583 8.03541 2.45277 8.99587 1.46919C9.96066 0.481133 11.309 -0.0410156 12.895 -0.0410156L15.4648 -0.03685C16.0266 -0.0358887 16.4837 0.421051 16.4837 0.981812V3.99966C16.4837 4.56139 16.026 5.01833 15.4633 5.01833L13.7331 5.01897C13.2055 5.01897 13.0711 5.12455 13.0424 5.15691C12.995 5.21059 12.9387 5.36231 12.9387 5.78128V7.06718H15.3333C15.5136 7.06718 15.6882 7.11157 15.8383 7.1952C16.1621 7.37576 16.3634 7.71719 16.3634 8.08617L16.3621 11.3365C16.3621 11.8979 15.9043 12.3548 15.3415 12.3548H12.9387V19.9403C12.9387 20.502 12.4807 20.959 11.9178 20.959ZM8.76117 19.7279H11.705V11.8038C11.705 11.4288 12.0108 11.1237 12.3864 11.1237H15.1286L15.1297 8.29846H12.3863C12.0106 8.29846 11.705 7.9934 11.705 7.61833V5.78128C11.705 5.30031 11.7539 4.75333 12.1177 4.34221C12.5572 3.84522 13.2499 3.78786 13.7328 3.78786L15.2501 3.78722V1.19394L12.894 1.19009C10.3451 1.19009 8.76117 2.81854 8.76117 5.4397V7.61833C8.76117 7.99324 8.45552 8.29846 8.07988 8.29846H5.77466V11.1237H8.07988C8.45552 11.1237 8.76117 11.4288 8.76117 11.8038V19.7279ZM15.4624 1.19426H15.4625H15.4624Z" fill="#2F80ED"/>
</g>
<defs>
<clipPath id="clip0">
<rect width="21" height="21" fill="white"/>
</clipPath>
</defs>
</svg>
