<svg width="26" height="26" viewBox="0 0 26 26" fill="none" xmlns="http://www.w3.org/2000/svg">
<path d="M2.38988 22.8571H23.6101C24.9279 22.8571 26 21.7849 26 20.4671V5.53207C26 4.21417 24.9279 3.14209 23.6101 3.14209H2.38988C1.07208 3.14209 0 4.21428 0 5.53207V20.4671C0 21.7849 1.07208 22.8571 2.38988 22.8571ZM1.55645 5.53207C1.55645 5.07178 1.9301 4.69854 2.38988 4.69854H23.6101C24.0701 4.69854 24.4435 5.07178 24.4435 5.53207V20.4671C24.4435 20.9274 24.07 21.3007 23.6101 21.3007H2.38988C1.93 21.3007 1.55645 20.9274 1.55645 20.4671V5.53207ZM4.64217 20.2H3.08572V5.86526L12.8057 12.1756C12.92 12.2498 13.0799 12.2499 13.1946 12.1754L22.9144 5.86526V20.2H21.3579V8.73141L14.0419 13.4811C13.7314 13.6825 13.3712 13.7888 13 13.7888C12.6288 13.7888 12.2686 13.6825 11.9583 13.4812L4.64217 8.73141V20.2Z" fill="#2F80ED"/>
</svg>
