<svg width="16" height="16" viewBox="0 0 16 16" fill="none" xmlns="http://www.w3.org/2000/svg">
<path d="M15.8108 0.189305C15.5584 -0.0631016 15.1492 -0.0631016 14.8968 0.189305L0.189547 14.8967C-0.0628567 15.1491 -0.0628567 15.5583 0.189547 15.8107C0.315733 15.9369 0.481169 16 0.646573 16C0.811977 16 0.977382 15.9369 1.1036 15.8107L15.8108 1.1033C16.0632 0.85093 16.0632 0.441711 15.8108 0.189305Z" fill="#2C2C2C"/>
<path d="M15.8105 14.8966L1.10329 0.189305C0.85092 -0.0631016 0.441675 -0.0631016 0.189303 0.189305C-0.0631008 0.44168 -0.0631008 0.850898 0.189303 1.1033L14.8965 15.8107C15.0227 15.9369 15.1881 16 15.3535 16C15.5189 16 15.6844 15.9369 15.8105 15.8107C16.0629 15.5583 16.0629 15.1491 15.8105 14.8966Z" fill="#2C2C2C"/>
</svg>
