<svg width="28" height="20" viewBox="0 0 28 20" fill="none" xmlns="http://www.w3.org/2000/svg">
<path d="M26.869 8.8689H1.13105C0.506406 8.8689 0 9.37525 0 9.99994C0 10.6246 0.506406 11.131 1.13105 11.131H26.869C27.4936 11.131 28 10.6246 28 9.99994C28 9.3753 27.4936 8.8689 26.869 8.8689Z" fill="#1A1A1A"/>
<path d="M27.2568 0.289673H10.3434C9.93288 0.289673 9.6001 0.796079 9.6001 1.42072C9.6001 2.04536 9.93288 2.55177 10.3434 2.55177H27.2568C27.6674 2.55177 28.0001 2.04536 28.0001 1.42072C28.0001 0.796079 27.6674 0.289673 27.2568 0.289673Z" fill="#1A1A1A"/>
<path d="M26.869 17.4482H1.13105C0.506406 17.4482 0 17.9546 0 18.5793C0 19.204 0.506406 19.7103 1.13105 19.7103H26.869C27.4936 19.7103 28 19.204 28 18.5793C28 17.9546 27.4936 17.4482 26.869 17.4482Z" fill="#1A1A1A"/>
</svg>
