<svg width="23" height="23" viewBox="0 0 23 23" fill="none" xmlns="http://www.w3.org/2000/svg">
<path d="M16.7741 0H6.22588C2.79287 0 0 2.79287 0 6.22588V16.7743C0 20.2071 2.79287 23 6.22588 23H16.7743C20.2071 23 23 20.2071 23 16.7743V6.22588C23 2.79287 20.2071 0 16.7741 0V0ZM21.6516 16.7743C21.6516 19.4636 19.4636 21.6516 16.7741 21.6516H6.22588C3.53636 21.6516 1.34836 19.4636 1.34836 16.7743V6.22588C1.34836 3.53636 3.53636 1.34836 6.22588 1.34836H16.7743C19.4636 1.34836 21.6516 3.53636 21.6516 6.22588V16.7743Z" fill="#2F80ED"/>
<path d="M11.5 5.21094C8.03224 5.21094 5.21112 8.03206 5.21112 11.4998C5.21112 14.9676 8.03224 17.7887 11.5 17.7887C14.9677 17.7887 17.7889 14.9676 17.7889 11.4998C17.7889 8.03206 14.9677 5.21094 11.5 5.21094ZM11.5 16.4403C8.77591 16.4403 6.55948 14.2241 6.55948 11.4998C6.55948 8.77573 8.77591 6.55929 11.5 6.55929C14.2243 6.55929 16.4405 8.77573 16.4405 11.4998C16.4405 14.2241 14.2243 16.4403 11.5 16.4403Z" fill="#2F80ED"/>
<path d="M17.9393 2.97803C16.9145 2.97803 16.081 3.81171 16.081 4.83632C16.081 5.86109 16.9145 6.69478 17.9393 6.69478C18.9641 6.69478 19.7977 5.86109 19.7977 4.83632C19.7977 3.81154 18.9641 2.97803 17.9393 2.97803ZM17.9393 5.34625C17.6582 5.34625 17.4293 5.11743 17.4293 4.83632C17.4293 4.55503 17.6582 4.32638 17.9393 4.32638C18.2206 4.32638 18.4494 4.55503 18.4494 4.83632C18.4494 5.11743 18.2206 5.34625 17.9393 5.34625Z" fill="#2F80ED"/>
</svg>
