<svg width="36" height="36" viewBox="0 0 36 36" fill="none" xmlns="http://www.w3.org/2000/svg">
<path d="M18.1174 7.88965C15.5803 7.88965 13.5152 9.9547 13.5152 12.4918C13.5152 15.0289 15.5803 17.094 18.1174 17.094C20.6545 17.094 22.7195 15.0289 22.7195 12.4918C22.7195 9.9547 20.6545 7.88965 18.1174 7.88965ZM18.1174 15.7791C16.3048 15.7791 14.8301 14.3044 14.8301 12.4918C14.8301 10.6792 16.3048 9.20455 18.1174 9.20455C19.93 9.20455 21.4046 10.6792 21.4046 12.4918C21.4046 14.3044 19.93 15.7791 18.1174 15.7791Z" fill="#2F80ED"/>
<path d="M26.916 3.6929C24.5347 1.31161 21.3685 0 18.001 0C14.6329 0 11.4673 1.31161 9.08597 3.6929C4.67908 8.09913 4.13142 16.3896 7.89993 21.4125L18.001 36L28.0869 21.4329C31.8706 16.3896 31.3229 8.09913 26.916 3.6929ZM27.0206 20.6643L18.001 33.6897L8.96697 20.6439C5.54889 16.0865 6.03869 8.59945 10.0163 4.62253C12.149 2.48976 14.9846 1.3149 18.001 1.3149C21.0174 1.3149 23.853 2.48976 25.9864 4.62253C29.964 8.59945 30.4538 16.0865 27.0206 20.6643Z" fill="#2F80ED"/>
</svg>
