<svg width="20" height="20" viewBox="0 0 20 20" fill="none" xmlns="http://www.w3.org/2000/svg">
<g clip-path="url(#clip0)">
<path d="M7.56302 19.69C7.75275 19.8896 8.00514 19.9996 8.2744 19.9996C8.55922 19.9996 8.82983 19.8723 9.01734 19.6488C12.6409 15.3319 17.5202 9.94679 19.3473 8.97876C19.7499 8.76502 20.0205 8.33311 20.0205 7.90431V0.857168C20.02 0.300652 19.6117 0 19.2273 0C19.0878 0 18.8741 0.0381358 18.6572 0.219059C17.2945 1.35249 10.7436 7.00412 8.56278 12.6194L6.47839 9.23861C6.19846 8.78631 5.55062 8.62401 5.09117 8.8914L0.489613 11.5627C0.223455 11.7174 0.0537183 11.9724 0.0248364 12.2629C-0.00404556 12.5529 0.111038 12.8367 0.342093 13.0411C1.29253 13.8836 6.10826 18.1597 7.56302 19.69ZM5.49996 10.192L8.00425 14.2539C8.17221 14.5257 8.43081 14.6818 8.71385 14.6818C8.98623 14.6818 9.35237 14.5155 9.48522 14.0468C10.8587 9.2129 16.3471 3.99805 18.6861 1.94537V7.82227C16.2591 9.14372 10.3859 15.9585 8.25219 18.4888C6.72855 16.954 3.23962 13.8331 1.65378 12.4252L5.49996 10.192Z" fill="#2F80ED"/>
</g>
<defs>
<clipPath id="clip0">
<rect width="20" height="20" fill="white"/>
</clipPath>
</defs>
</svg>
