<svg width="50" height="50" viewBox="0 0 50 50" fill="none" xmlns="http://www.w3.org/2000/svg">
<g clip-path="url(#clip0)">
<path d="M49.9167 15.6163C49.1884 7.58647 43.5075 1.76306 36.3972 1.76306C32.0847 1.76306 27.9943 3.91509 25.4542 7.52086C25.2565 7.80205 25.0043 7.84517 24.8675 7.84517C24.725 7.85454 24.4776 7.80486 24.2798 7.51524C21.7763 3.85979 17.8847 1.76306 13.6012 1.76306C6.4909 1.76306 0.810889 7.58647 0.0816732 15.6163C0.0244983 15.9659 -0.2117 17.8302 0.507205 20.8792C1.54385 25.2732 3.9377 29.267 7.43007 32.4304L24.8497 48.2388L42.5683 32.4304C43.4644 31.6187 44.2864 30.7498 45.0334 29.836C45.0475 29.8219 45.055 29.8051 45.0681 29.7901C47.2135 27.1534 48.7254 24.126 49.4921 20.8792C50.211 17.8302 49.9739 15.9659 49.9167 15.6163ZM24.8619 45.7166L8.68979 31.0404C8.35611 30.7386 8.04118 30.4237 7.73 30.1059H10.6347C11.003 30.1059 11.3358 29.8913 11.4876 29.5567L15.2659 21.2447L20.0742 33.2665C20.2091 33.602 20.5241 33.8307 20.8849 33.8532C20.9046 33.8542 20.9252 33.8551 20.944 33.8551C21.2823 33.8551 21.5973 33.6714 21.7632 33.3733L25.6586 26.3614L27.6363 29.6841C27.835 30.0159 28.2193 30.195 28.5951 30.1294C28.9757 30.0666 29.2784 29.776 29.3581 29.3973L32.0594 16.5414L34.0764 29.3148C34.1477 29.7704 34.5404 30.1059 35.0015 30.1059H42.2684C41.9581 30.4227 41.6441 30.7358 41.3123 31.0367L24.8619 45.7166ZM47.6663 20.449C47.0017 23.2674 45.7111 25.9031 43.9021 28.2313H35.8057L33.1185 11.2138C33.0482 10.7667 32.6695 10.434 32.2168 10.4227C31.7341 10.3899 31.3695 10.7245 31.2758 11.1669L28.0196 26.6604L26.4375 24.0023C26.265 23.7145 25.9866 23.557 25.6183 23.5449C25.2827 23.5495 24.9753 23.7342 24.8131 24.0266L21.0836 30.7395L16.1919 18.5106C16.0522 18.162 15.7186 17.9305 15.3436 17.922C14.9828 17.8948 14.6229 18.1292 14.4682 18.4713L10.032 28.2313H6.09911C4.28919 25.9022 2.99854 23.2665 2.33399 20.4471C1.65071 17.5574 1.93096 15.9228 1.93283 15.9125L1.94689 15.8178C2.57394 8.75903 7.47599 3.63671 13.6022 3.63671C17.2567 3.63671 20.585 5.43632 22.7333 8.57345C23.2272 9.2961 23.9996 9.7132 24.8506 9.71882C25.6895 9.70383 26.4806 9.31672 26.9867 8.60063C29.1762 5.4935 32.6949 3.63765 36.3972 3.63765C42.5233 3.63765 47.4263 8.7609 48.0646 15.9087C48.0693 15.9247 48.3496 17.5584 47.6663 20.449Z" fill="#2F80ED"/>
</g>
<defs>
<clipPath id="clip0">
<rect width="50" height="50" fill="white"/>
</clipPath>
</defs>
</svg>
