<svg width="50" height="50" viewBox="0 0 50 50" fill="none" xmlns="http://www.w3.org/2000/svg">
<g clip-path="url(#clip0)">
<path d="M49.4204 15.6793L49.4188 15.6614C48.709 7.83594 43.1986 2.26306 36.3972 2.26306C32.2516 2.26306 28.3119 4.33241 25.863 7.80881C25.5516 8.25133 25.1324 8.34145 24.8834 8.34505C24.5861 8.35928 24.1701 8.24082 23.8673 7.79777L49.4204 15.6793ZM49.4204 15.6793L49.4233 15.697M49.4204 15.6793L49.4233 15.697M49.4233 15.697C49.4708 15.9874 49.708 17.7849 49.0055 20.7643C48.2572 23.9333 46.7813 26.8912 44.6836 29.4704C44.6694 29.4873 44.6585 29.5021 44.651 29.5127L44.6463 29.5195C43.9151 30.414 43.1107 31.2643 42.234 32.0586C42.2336 32.059 42.2331 32.0594 42.2326 32.0598L24.8525 47.5662L7.76608 32.0602L7.76573 32.0598C4.34494 28.9613 2.00618 25.0553 0.993846 20.7644C0.291312 17.7848 0.527653 15.9872 0.575118 15.697L0.578006 15.6793M49.4233 15.697L0.578006 15.6793M0.578006 15.6793L0.579624 15.6615M0.578006 15.6793L0.579624 15.6615M0.579624 15.6615C1.29029 7.8359 6.79981 2.26306 13.6012 2.26306C17.7129 2.26306 21.4529 4.27269 23.8671 7.79748L0.579624 15.6615ZM24.8591 46.3892L24.5259 46.0868L8.35439 31.4112C8.3542 31.4111 8.35402 31.4109 8.35384 31.4107C8.00882 31.0986 7.68553 30.7751 7.37278 30.4558L6.54048 29.6059H7.73H10.6347C10.8069 29.6059 10.9616 29.506 11.0323 29.3501L11.0324 29.3498L14.8107 21.0378L15.2952 19.9718L15.7301 21.0591L20.5381 33.0799C20.6012 33.2368 20.7471 33.3425 20.913 33.354C20.9312 33.3548 20.9393 33.3551 20.944 33.3551C21.1014 33.3551 21.2487 33.2693 21.3261 33.1305L24.8591 46.3892ZM24.8591 46.3892L25.1948 46.0896L41.6453 31.4097L41.6482 31.4071C41.991 31.0962 42.3131 30.7748 42.6256 30.4558L43.4579 29.6059H42.2684H35.0015C34.7863 29.6059 34.6035 29.4493 34.5704 29.2376L34.5703 29.2369L32.5532 16.4634L31.57 16.4386L28.8688 29.2944C28.8314 29.4723 28.6898 29.607 28.5137 29.636L28.5137 29.636L28.5091 29.6368C28.342 29.666 28.1604 29.5857 28.0655 29.4277C28.0654 29.4276 28.0653 29.4274 28.0652 29.4272L26.0882 26.1057L25.6436 25.3587L25.2215 26.1186L21.3263 33.1302L24.8591 46.3892ZM44.1468 28.7313H43.9021H35.8057H35.3785L35.3119 28.3093L32.6246 11.2918L32.6246 11.2915C32.5917 11.0824 32.4153 10.9278 32.2044 10.9226L32.1937 10.9223L32.1829 10.9216C31.9861 10.9082 31.8153 11.0332 31.765 11.2703C31.765 11.2704 31.7649 11.2705 31.7649 11.2706L28.5089 26.7633L28.2454 28.0173L27.59 26.9162L26.0086 24.2593C26.0084 24.259 26.0083 24.2588 26.0081 24.2585C25.9327 24.1331 25.821 24.0548 25.6144 24.0451C25.4627 24.051 25.3241 24.1363 25.2504 24.2691L25.2502 24.2695L21.5207 30.9824L21.01 31.9017L20.6194 30.9252L15.7277 18.6966C15.6624 18.5335 15.5067 18.4258 15.3324 18.4219L15.3192 18.4216L15.3061 18.4206C15.1784 18.411 15.0021 18.5041 14.9238 18.6772L14.9234 18.6782L10.4872 28.4382L10.354 28.7313H10.032H6.09911H5.85443L5.70429 28.5381C3.85282 26.1555 2.52933 23.455 1.84741 20.5622L44.1468 28.7313ZM44.1468 28.7313L44.2969 28.5381M44.1468 28.7313L44.2969 28.5381M44.2969 28.5381C46.1475 26.1564 47.4709 23.4559 48.1529 20.564L44.2969 28.5381ZM23.1458 8.29094L23.1461 8.2913C23.5492 8.88107 24.1682 9.21235 24.8478 9.21878C25.5339 9.20471 26.1702 8.88944 26.5782 8.31233C28.8584 5.07669 32.5272 3.13765 36.3972 3.13765C42.8358 3.13765 47.8974 8.51246 48.5607 15.8432L48.5623 15.8524C48.5652 15.8708 48.5687 15.895 48.5727 15.925C48.5805 15.9851 48.59 16.0696 48.5988 16.178C48.6164 16.3947 48.631 16.7075 48.6233 17.1104C48.6079 17.9165 48.5029 19.0829 48.1529 20.5637L23.1458 8.29094ZM23.1458 8.29094C20.9088 5.02427 17.4295 3.13671 13.6022 3.13671C7.16364 3.13671 2.1002 8.51133 1.45017 15.7588L1.4389 15.8347M23.1458 8.29094L1.4389 15.8347M1.4389 15.8347C1.41096 16.0043 1.16912 17.6935 1.84737 20.562L1.4389 15.8347ZM44.636 29.5346C44.6354 29.5356 44.6361 29.5345 44.6374 29.5326L44.636 29.5346Z" fill="#B0E645" stroke="#2F80ED"/>
</g>
<defs>
<clipPath id="clip0">
<rect width="50" height="50" fill="white"/>
</clipPath>
</defs>
</svg>
