<svg width="50" height="50" viewBox="0 0 50 50" fill="none" xmlns="http://www.w3.org/2000/svg">
<g clip-path="url(#clip0)">
<mask id="path-1-inside-1" fill="white">
<path d="M49.1665 32.4999H0.833278C0.373235 32.4999 0 32.1265 0 31.6666V4.16742C0 2.32918 1.49575 0.833252 3.33417 0.833252H46.6658C48.5042 0.833252 50 2.329 50 4.16742V31.6666C50 32.1267 49.6266 32.4999 49.1665 32.4999ZM1.66673 30.8334H48.3334V4.16742C48.3334 3.24733 47.585 2.49998 46.666 2.49998H3.33417C2.41496 2.49998 1.66673 3.24751 1.66673 4.16742V30.8334Z"/>
</mask>
<path d="M49.1665 32.4999H0.833278C0.373235 32.4999 0 32.1265 0 31.6666V4.16742C0 2.32918 1.49575 0.833252 3.33417 0.833252H46.6658C48.5042 0.833252 50 2.329 50 4.16742V31.6666C50 32.1267 49.6266 32.4999 49.1665 32.4999ZM1.66673 30.8334H48.3334V4.16742C48.3334 3.24733 47.585 2.49998 46.666 2.49998H3.33417C2.41496 2.49998 1.66673 3.24751 1.66673 4.16742V30.8334Z" fill="#B0E645"/>
<path d="M1.66673 30.8334H-0.132671V32.6328H1.66673V30.8334ZM48.3334 30.8334V32.6328H50.1328V30.8334H48.3334ZM49.1665 30.7005H0.833278V34.2993H49.1665V30.7005ZM0.833278 30.7005C1.36727 30.7005 1.7994 31.133 1.7994 31.6666H-1.7994C-1.7994 33.12 -0.620796 34.2993 0.833278 34.2993V30.7005ZM1.7994 31.6666V4.16742H-1.7994V31.6666H1.7994ZM1.7994 4.16742C1.7994 3.3229 2.4896 2.63265 3.33417 2.63265V-0.96615C0.501909 -0.96615 -1.7994 1.33546 -1.7994 4.16742H1.7994ZM3.33417 2.63265H46.6658V-0.96615H3.33417V2.63265ZM46.6658 2.63265C47.5105 2.63265 48.2006 3.32279 48.2006 4.16742H51.7994C51.7994 1.33522 49.498 -0.96615 46.6658 -0.96615V2.63265ZM48.2006 4.16742V31.6666H51.7994V4.16742H48.2006ZM48.2006 31.6666C48.2006 31.1324 48.6333 30.7005 49.1665 30.7005V34.2993C50.6199 34.2993 51.7994 33.121 51.7994 31.6666H48.2006ZM1.66673 32.6328H48.3334V29.034H1.66673V32.6328ZM50.1328 30.8334V4.16742H46.534V30.8334H50.1328ZM50.1328 4.16742C50.1328 2.25281 48.5781 0.700581 46.666 0.700581V4.29938C46.592 4.29938 46.534 4.24185 46.534 4.16742H50.1328ZM46.666 0.700581H3.33417V4.29938H46.666V0.700581ZM3.33417 0.700581C1.42167 0.700581 -0.132671 2.25323 -0.132671 4.16742H3.46613C3.46613 4.24178 3.40825 4.29938 3.33417 4.29938V0.700581ZM-0.132671 4.16742V30.8334H3.46613V4.16742H-0.132671Z" fill="#2F80ED" mask="url(#path-1-inside-1)"/>
<mask id="path-3-inside-2" fill="white">
<path d="M46.6658 39.1667H3.33417C1.49575 39.1667 0 37.6707 0 35.8325V31.6666C0 31.2066 0.373411 30.8334 0.833278 30.8334H49.1665C49.6266 30.8334 49.9998 31.2068 49.9998 31.6666V35.8325C50 37.6707 48.5041 39.1667 46.6658 39.1667ZM1.66673 32.4999V35.8325C1.66673 36.7526 2.41513 37.4999 3.33417 37.4999H46.6658C47.585 37.4999 48.3333 36.7524 48.3333 35.8325V32.4999H1.66673Z"/>
</mask>
<path d="M46.6658 39.1667H3.33417C1.49575 39.1667 0 37.6707 0 35.8325V31.6666C0 31.2066 0.373411 30.8334 0.833278 30.8334H49.1665C49.6266 30.8334 49.9998 31.2068 49.9998 31.6666V35.8325C50 37.6707 48.5041 39.1667 46.6658 39.1667ZM1.66673 32.4999V35.8325C1.66673 36.7526 2.41513 37.4999 3.33417 37.4999H46.6658C47.585 37.4999 48.3333 36.7524 48.3333 35.8325V32.4999H1.66673Z" fill="#B0E645"/>
<path d="M49.9998 35.8325H48.2004V35.8327L49.9998 35.8325ZM1.66673 32.4999V30.7005H-0.132671V32.4999H1.66673ZM48.3333 32.4999H50.1327V30.7005H48.3333V32.4999ZM46.6658 37.3673H3.33417V40.9661H46.6658V37.3673ZM3.33417 37.3673C2.4896 37.3673 1.7994 36.677 1.7994 35.8325H-1.7994C-1.7994 38.6645 0.501907 40.9661 3.33417 40.9661V37.3673ZM1.7994 35.8325V31.6666H-1.7994V35.8325H1.7994ZM1.7994 31.6666C1.7994 32.2006 1.36694 32.6328 0.833278 32.6328V29.034C-0.620119 29.034 -1.7994 30.2126 -1.7994 31.6666H1.7994ZM0.833278 32.6328H49.1665V29.034H0.833278V32.6328ZM49.1665 32.6328C48.6326 32.6328 48.2004 32.2003 48.2004 31.6666H51.7992C51.7992 30.2132 50.6206 29.034 49.1665 29.034V32.6328ZM48.2004 31.6666V35.8325H51.7992V31.6666H48.2004ZM48.2004 35.8327C48.2005 36.677 47.5103 37.3673 46.6658 37.3673V40.9661C49.4978 40.9661 51.7995 38.6645 51.7992 35.8323L48.2004 35.8327ZM-0.132671 32.4999V35.8325H3.46613V32.4999H-0.132671ZM-0.132671 35.8325C-0.132671 37.7471 1.42209 39.2994 3.33417 39.2994V35.7005C3.40818 35.7005 3.46613 35.7581 3.46613 35.8325H-0.132671ZM3.33417 39.2994H46.6658V35.7005H3.33417V39.2994ZM46.6658 39.2994C48.5783 39.2994 50.1327 37.7467 50.1327 35.8325H46.5339C46.5339 35.7582 46.5917 35.7005 46.6658 35.7005V39.2994ZM50.1327 35.8325V32.4999H46.5339V35.8325H50.1327ZM48.3333 30.7005H1.66673V34.2993H48.3333V30.7005Z" fill="#2F80ED" mask="url(#path-3-inside-2)"/>
<mask id="path-5-inside-3" fill="white">
<path d="M27.4999 35.8332H22.4999C22.0399 35.8332 21.6666 35.4598 21.6666 34.9999C21.6666 34.54 22.04 34.1666 22.4999 34.1666H27.4999C27.96 34.1666 28.3332 34.54 28.3332 34.9999C28.3332 35.4598 27.96 35.8332 27.4999 35.8332Z"/>
</mask>
<path d="M27.4999 35.8332H22.4999C22.0399 35.8332 21.6666 35.4598 21.6666 34.9999C21.6666 34.54 22.04 34.1666 22.4999 34.1666H27.4999C27.96 34.1666 28.3332 34.54 28.3332 34.9999C28.3332 35.4598 27.96 35.8332 27.4999 35.8332Z" fill="#B0E645"/>
<path d="M27.4999 34.0338H22.4999V37.6326H27.4999V34.0338ZM22.4999 34.0338C23.0339 34.0338 23.466 34.4662 23.466 34.9999H19.8672C19.8672 36.4533 21.0458 37.6326 22.4999 37.6326V34.0338ZM23.466 34.9999C23.466 35.5338 23.0338 35.966 22.4999 35.966V32.3672C21.0463 32.3672 19.8672 33.5463 19.8672 34.9999H23.466ZM22.4999 35.966H27.4999V32.3672H22.4999V35.966ZM27.4999 35.966C26.9659 35.966 26.5338 35.5336 26.5338 34.9999H30.1326C30.1326 33.5465 28.954 32.3672 27.4999 32.3672V35.966ZM26.5338 34.9999C26.5338 34.4662 26.9659 34.0338 27.4999 34.0338V37.6326C28.954 37.6326 30.1326 36.4533 30.1326 34.9999H26.5338Z" fill="#2F80ED" mask="url(#path-5-inside-3)"/>
<mask id="path-7-inside-4" fill="white">
<path d="M45.8332 32.4999H4.16674C3.7067 32.4999 3.33347 32.1265 3.33347 31.6667V5.00003C3.33347 4.53998 3.70688 4.16675 4.16674 4.16675H45.8334C46.2935 4.16675 46.6667 4.54016 46.6667 5.00003V31.6667C46.6667 32.1267 46.2933 32.4999 45.8332 32.4999ZM5.00002 30.8334H45V5.8333H5.00002V30.8334Z"/>
</mask>
<path d="M45.8332 32.4999H4.16674C3.7067 32.4999 3.33347 32.1265 3.33347 31.6667V5.00003C3.33347 4.53998 3.70688 4.16675 4.16674 4.16675H45.8334C46.2935 4.16675 46.6667 4.54016 46.6667 5.00003V31.6667C46.6667 32.1267 46.2933 32.4999 45.8332 32.4999ZM5.00002 30.8334H45V5.8333H5.00002V30.8334Z" fill="#B0E645"/>
<path d="M5.00002 30.8334H3.20062V32.6328H5.00002V30.8334ZM45 30.8334V32.6328H46.7994V30.8334H45ZM45 5.8333H46.7994V4.0339H45V5.8333ZM5.00002 5.8333V4.0339H3.20062V5.8333H5.00002ZM45.8332 30.7005H4.16674V34.2993H45.8332V30.7005ZM4.16674 30.7005C4.70073 30.7005 5.13287 31.133 5.13287 31.6667H1.53406C1.53406 33.1201 2.71267 34.2993 4.16674 34.2993V30.7005ZM5.13287 31.6667V5.00003H1.53406V31.6667H5.13287ZM5.13287 5.00003C5.13287 5.53401 4.70041 5.96615 4.16674 5.96615V2.36735C2.71334 2.36735 1.53406 3.54595 1.53406 5.00003H5.13287ZM4.16674 5.96615H45.8334V2.36735H4.16674V5.96615ZM45.8334 5.96615C45.2994 5.96615 44.8673 5.5337 44.8673 5.00003H48.4661C48.4661 3.54662 47.2875 2.36735 45.8334 2.36735V5.96615ZM44.8673 5.00003V31.6667H48.4661V5.00003H44.8673ZM44.8673 31.6667C44.8673 31.1324 45.3 30.7005 45.8332 30.7005V34.2993C47.2866 34.2993 48.4661 33.121 48.4661 31.6667H44.8673ZM5.00002 32.6328H45V29.034H5.00002V32.6328ZM46.7994 30.8334V5.8333H43.2006V30.8334H46.7994ZM45 4.0339H5.00002V7.63271H45V4.0339ZM3.20062 5.8333V30.8334H6.79942V5.8333H3.20062Z" fill="#2F80ED" mask="url(#path-7-inside-4)"/>
<mask id="path-9-inside-5" fill="white">
<path d="M35.8332 49.1665H14.1666C12.7882 49.1665 11.6666 48.0449 11.6666 46.6665C11.6666 45.2881 12.7882 44.1665 14.1666 44.1665H35.8332C37.2116 44.1665 38.3332 45.2881 38.3332 46.6665C38.3332 48.0449 37.2116 49.1665 35.8332 49.1665ZM14.1666 45.8332C13.7066 45.8332 13.3333 46.2073 13.3333 46.6665C13.3333 47.1257 13.7067 47.4998 14.1666 47.4998H35.8332C36.2933 47.4998 36.6665 47.1257 36.6665 46.6665C36.6665 46.2073 36.2931 45.8332 35.8332 45.8332H14.1666Z"/>
</mask>
<path d="M35.8332 49.1665H14.1666C12.7882 49.1665 11.6666 48.0449 11.6666 46.6665C11.6666 45.2881 12.7882 44.1665 14.1666 44.1665H35.8332C37.2116 44.1665 38.3332 45.2881 38.3332 46.6665C38.3332 48.0449 37.2116 49.1665 35.8332 49.1665ZM14.1666 45.8332C13.7066 45.8332 13.3333 46.2073 13.3333 46.6665C13.3333 47.1257 13.7067 47.4998 14.1666 47.4998H35.8332C36.2933 47.4998 36.6665 47.1257 36.6665 46.6665C36.6665 46.2073 36.2931 45.8332 35.8332 45.8332H14.1666Z" fill="#B0E645"/>
<path d="M35.8332 47.3671H14.1666V50.9659H35.8332V47.3671ZM14.1666 47.3671C13.782 47.3671 13.466 47.0511 13.466 46.6665H9.86719C9.86719 49.0387 11.7945 50.9659 14.1666 50.9659V47.3671ZM13.466 46.6665C13.466 46.2819 13.782 45.9659 14.1666 45.9659V42.3671C11.7945 42.3671 9.86719 44.2944 9.86719 46.6665H13.466ZM14.1666 45.9659H35.8332V42.3671H14.1666V45.9659ZM35.8332 45.9659C36.2178 45.9659 36.5338 46.2819 36.5338 46.6665H40.1326C40.1326 44.2944 38.2054 42.3671 35.8332 42.3671V45.9659ZM36.5338 46.6665C36.5338 47.0511 36.2178 47.3671 35.8332 47.3671V50.9659C38.2054 50.9659 40.1326 49.0387 40.1326 46.6665H36.5338ZM14.1666 44.0338C12.7115 44.0338 11.5339 45.2148 11.5339 46.6665H15.1327C15.1327 47.1999 14.7016 47.6326 14.1666 47.6326V44.0338ZM11.5339 46.6665C11.5339 48.1185 12.712 49.2992 14.1666 49.2992V45.7004C14.7015 45.7004 15.1327 46.1329 15.1327 46.6665H11.5339ZM14.1666 49.2992H35.8332V45.7004H14.1666V49.2992ZM35.8332 49.2992C37.2883 49.2992 38.4659 48.1182 38.4659 46.6665H34.8671C34.8671 46.1331 35.2982 45.7004 35.8332 45.7004V49.2992ZM38.4659 46.6665C38.4659 45.2146 37.2879 44.0338 35.8332 44.0338V47.6326C35.2983 47.6326 34.8671 47.2001 34.8671 46.6665H38.4659ZM35.8332 44.0338H14.1666V47.6326H35.8332V44.0338Z" fill="#2F80ED" mask="url(#path-9-inside-5)"/>
<path d="M17.091 44.9336C17.6115 44.8166 18.09 44.6215 18.5192 44.3456L17.9886 44.9336H17.091ZM32.0134 44.9336L31.4844 44.3479C31.9126 44.6226 32.3899 44.8169 32.9091 44.9336H32.0134Z" fill="#B0E645" stroke="#2F80ED" stroke-width="1.7994"/>
<mask id="path-12-inside-6" fill="white">
<path d="M24.9999 32.4999H4.16674C3.7067 32.4999 3.33347 32.1265 3.33347 31.6667V5.00003C3.33347 4.53998 3.70688 4.16675 4.16674 4.16675H25.0001C25.4601 4.16675 25.8334 4.54016 25.8334 5.00003V31.6667C25.8334 32.1267 25.4599 32.4999 24.9999 32.4999ZM5.00002 30.8334H24.1666V5.8333H5.00002V30.8334Z"/>
</mask>
<path d="M24.9999 32.4999H4.16674C3.7067 32.4999 3.33347 32.1265 3.33347 31.6667V5.00003C3.33347 4.53998 3.70688 4.16675 4.16674 4.16675H25.0001C25.4601 4.16675 25.8334 4.54016 25.8334 5.00003V31.6667C25.8334 32.1267 25.4599 32.4999 24.9999 32.4999ZM5.00002 30.8334H24.1666V5.8333H5.00002V30.8334Z" fill="#B0E645"/>
<path d="M5.00002 30.8334H3.20062V32.6328H5.00002V30.8334ZM24.1666 30.8334V32.6328H25.966V30.8334H24.1666ZM24.1666 5.8333H25.966V4.0339H24.1666V5.8333ZM5.00002 5.8333V4.0339H3.20062V5.8333H5.00002ZM24.9999 30.7005H4.16674V34.2993H24.9999V30.7005ZM4.16674 30.7005C4.70073 30.7005 5.13287 31.133 5.13287 31.6667H1.53406C1.53406 33.1201 2.71267 34.2993 4.16674 34.2993V30.7005ZM5.13287 31.6667V5.00003H1.53406V31.6667H5.13287ZM5.13287 5.00003C5.13287 5.53401 4.70041 5.96615 4.16674 5.96615V2.36735C2.71334 2.36735 1.53406 3.54595 1.53406 5.00003H5.13287ZM4.16674 5.96615H25.0001V2.36735H4.16674V5.96615ZM25.0001 5.96615C24.4661 5.96615 24.034 5.53369 24.034 5.00003H27.6328C27.6328 3.54663 26.4542 2.36735 25.0001 2.36735V5.96615ZM24.034 5.00003V31.6667H27.6328V5.00003H24.034ZM24.034 31.6667C24.034 31.1324 24.4667 30.7005 24.9999 30.7005V34.2993C26.4532 34.2993 27.6328 33.121 27.6328 31.6667H24.034ZM5.00002 32.6328H24.1666V29.034H5.00002V32.6328ZM25.966 30.8334V5.8333H22.3672V30.8334H25.966ZM24.1666 4.0339H5.00002V7.63271H24.1666V4.0339ZM3.20062 5.8333V30.8334H6.79942V5.8333H3.20062Z" fill="#2F80ED" mask="url(#path-12-inside-6)"/>
<mask id="path-14-inside-7" fill="white">
<path d="M36.6667 29.1667H28.3334C27.8733 29.1667 27.5001 28.7933 27.5001 28.3334C27.5001 27.8734 27.8735 27.5001 28.3334 27.5001H36.6667C37.1267 27.5001 37.5 27.8735 37.5 28.3334C37.5 28.7933 37.1267 29.1667 36.6667 29.1667Z"/>
</mask>
<path d="M36.6667 29.1667H28.3334C27.8733 29.1667 27.5001 28.7933 27.5001 28.3334C27.5001 27.8734 27.8735 27.5001 28.3334 27.5001H36.6667C37.1267 27.5001 37.5 27.8735 37.5 28.3334C37.5 28.7933 37.1267 29.1667 36.6667 29.1667Z" fill="#B0E645"/>
<path d="M36.6667 27.3673H28.3334V30.9661H36.6667V27.3673ZM28.3334 27.3673C28.8674 27.3673 29.2995 27.7997 29.2995 28.3334H25.7007C25.7007 29.7868 26.8793 30.9661 28.3334 30.9661V27.3673ZM29.2995 28.3334C29.2995 28.8674 28.867 29.2995 28.3334 29.2995V25.7007C26.88 25.7007 25.7007 26.8793 25.7007 28.3334H29.2995ZM28.3334 29.2995H36.6667V25.7007H28.3334V29.2995ZM36.6667 29.2995C36.1327 29.2995 35.7006 28.8671 35.7006 28.3334H39.2994C39.2994 26.88 38.1207 25.7007 36.6667 25.7007V29.2995ZM35.7006 28.3334C35.7006 27.7997 36.1327 27.3673 36.6667 27.3673V30.9661C38.1207 30.9661 39.2994 29.7868 39.2994 28.3334H35.7006Z" fill="#2F80ED" mask="url(#path-14-inside-7)"/>
<mask id="path-16-inside-8" fill="white">
<path d="M42.5 29.1667H40C39.5399 29.1667 39.1667 28.7933 39.1667 28.3334C39.1667 27.8734 39.5401 27.5001 40 27.5001H42.5C42.96 27.5001 43.3332 27.8735 43.3332 28.3334C43.3332 28.7933 42.96 29.1667 42.5 29.1667Z"/>
</mask>
<path d="M42.5 29.1667H40C39.5399 29.1667 39.1667 28.7933 39.1667 28.3334C39.1667 27.8734 39.5401 27.5001 40 27.5001H42.5C42.96 27.5001 43.3332 27.8735 43.3332 28.3334C43.3332 28.7933 42.96 29.1667 42.5 29.1667Z" fill="#B0E645"/>
<path d="M42.5 27.3673H40V30.9661H42.5V27.3673ZM40 27.3673C40.534 27.3673 40.9661 27.7997 40.9661 28.3334H37.3673C37.3673 29.7868 38.5459 30.9661 40 30.9661V27.3673ZM40.9661 28.3334C40.9661 28.8674 40.5336 29.2995 40 29.2995V25.7007C38.5465 25.7007 37.3673 26.8793 37.3673 28.3334H40.9661ZM40 29.2995H42.5V25.7007H40V29.2995ZM42.5 29.2995C41.966 29.2995 41.5338 28.8671 41.5338 28.3334H45.1326C45.1326 26.88 43.954 25.7007 42.5 25.7007V29.2995ZM41.5338 28.3334C41.5338 27.7997 41.966 27.3673 42.5 27.3673V30.9661C43.954 30.9661 45.1326 29.7868 45.1326 28.3334H41.5338Z" fill="#2F80ED" mask="url(#path-16-inside-8)"/>
<mask id="path-18-inside-9" fill="white">
<path d="M42.5 25.8334H34.1667C33.7066 25.8334 33.3334 25.46 33.3334 25.0001C33.3334 24.5401 33.7068 24.1669 34.1667 24.1669H42.5C42.96 24.1669 43.3332 24.5403 43.3332 25.0001C43.3332 25.46 42.96 25.8334 42.5 25.8334Z"/>
</mask>
<path d="M42.5 25.8334H34.1667C33.7066 25.8334 33.3334 25.46 33.3334 25.0001C33.3334 24.5401 33.7068 24.1669 34.1667 24.1669H42.5C42.96 24.1669 43.3332 24.5403 43.3332 25.0001C43.3332 25.46 42.96 25.8334 42.5 25.8334Z" fill="#B0E645"/>
<path d="M42.5 24.034H34.1667V27.6328H42.5V24.034ZM34.1667 24.034C34.7006 24.034 35.1328 24.4665 35.1328 25.0001H31.534C31.534 26.4536 32.7126 27.6328 34.1667 27.6328V24.034ZM35.1328 25.0001C35.1328 25.5341 34.7003 25.9663 34.1667 25.9663V22.3675C32.7133 22.3675 31.534 23.5461 31.534 25.0001H35.1328ZM34.1667 25.9663H42.5V22.3675H34.1667V25.9663ZM42.5 25.9663C41.966 25.9663 41.5338 25.5338 41.5338 25.0001H45.1326C45.1326 23.5467 43.954 22.3675 42.5 22.3675V25.9663ZM41.5338 25.0001C41.5338 24.4665 41.966 24.034 42.5 24.034V27.6328C43.954 27.6328 45.1326 26.4536 45.1326 25.0001H41.5338Z" fill="#2F80ED" mask="url(#path-18-inside-9)"/>
<mask id="path-20-inside-10" fill="white">
<path d="M30.8334 25.8334H28.3334C27.8733 25.8334 27.5001 25.46 27.5001 25.0001C27.5001 24.5401 27.8735 24.1669 28.3334 24.1669H30.8334C31.2934 24.1669 31.6667 24.5403 31.6667 25.0001C31.6667 25.46 31.2932 25.8334 30.8334 25.8334Z"/>
</mask>
<path d="M30.8334 25.8334H28.3334C27.8733 25.8334 27.5001 25.46 27.5001 25.0001C27.5001 24.5401 27.8735 24.1669 28.3334 24.1669H30.8334C31.2934 24.1669 31.6667 24.5403 31.6667 25.0001C31.6667 25.46 31.2932 25.8334 30.8334 25.8334Z" fill="#B0E645"/>
<path d="M30.8334 24.034H28.3334V27.6328H30.8334V24.034ZM28.3334 24.034C28.8673 24.034 29.2995 24.4665 29.2995 25.0001H25.7007C25.7007 26.4536 26.8793 27.6328 28.3334 27.6328V24.034ZM29.2995 25.0001C29.2995 25.5341 28.867 25.9663 28.3334 25.9663V22.3675C26.88 22.3675 25.7007 23.5461 25.7007 25.0001H29.2995ZM28.3334 25.9663H30.8334V22.3675H28.3334V25.9663ZM30.8334 25.9663C30.2994 25.9663 29.8673 25.5338 29.8673 25.0001H33.4661C33.4661 23.5468 32.2875 22.3675 30.8334 22.3675V25.9663ZM29.8673 25.0001C29.8673 24.4662 30.2995 24.034 30.8334 24.034V27.6328C32.287 27.6328 33.4661 26.4538 33.4661 25.0001H29.8673Z" fill="#2F80ED" mask="url(#path-20-inside-10)"/>
<mask id="path-22-inside-11" fill="white">
<path d="M42.5 12.5H28.3334C27.8733 12.5 27.5001 12.1266 27.5001 11.6667V8.33328C27.5001 7.87323 27.8735 7.5 28.3334 7.5H42.5C42.96 7.5 43.3332 7.87341 43.3332 8.33328V11.6666C43.3332 12.1266 42.96 12.5 42.5 12.5ZM29.1666 10.8333H41.6667V9.16655H29.1666V10.8333Z"/>
</mask>
<path d="M42.5 12.5H28.3334C27.8733 12.5 27.5001 12.1266 27.5001 11.6667V8.33328C27.5001 7.87323 27.8735 7.5 28.3334 7.5H42.5C42.96 7.5 43.3332 7.87341 43.3332 8.33328V11.6666C43.3332 12.1266 42.96 12.5 42.5 12.5ZM29.1666 10.8333H41.6667V9.16655H29.1666V10.8333Z" fill="#B0E645"/>
<path d="M29.1666 10.8333H27.3672V12.6327H29.1666V10.8333ZM41.6667 10.8333V12.6327H43.4661V10.8333H41.6667ZM41.6667 9.16655H43.4661V7.36715H41.6667V9.16655ZM29.1666 9.16655V7.36715H27.3672V9.16655H29.1666ZM42.5 10.7006H28.3334V14.2994H42.5V10.7006ZM28.3334 10.7006C28.8674 10.7006 29.2995 11.1331 29.2995 11.6667H25.7007C25.7007 13.1201 26.8793 14.2994 28.3334 14.2994V10.7006ZM29.2995 11.6667V8.33328H25.7007V11.6667H29.2995ZM29.2995 8.33328C29.2995 8.86727 28.867 9.2994 28.3334 9.2994V5.7006C26.88 5.7006 25.7007 6.8792 25.7007 8.33328H29.2995ZM28.3334 9.2994H42.5V5.7006H28.3334V9.2994ZM42.5 9.2994C41.966 9.2994 41.5338 8.86695 41.5338 8.33328H45.1327C45.1327 6.87987 43.954 5.7006 42.5 5.7006V9.2994ZM41.5338 8.33328V11.6666H45.1327V8.33328H41.5338ZM41.5338 11.6666C41.5338 11.1333 41.9657 10.7006 42.5 10.7006V14.2994C43.9543 14.2994 45.1327 13.1199 45.1327 11.6666H41.5338ZM29.1666 12.6327H41.6667V9.03388H29.1666V12.6327ZM43.4661 10.8333V9.16655H39.8673V10.8333H43.4661ZM41.6667 7.36715H29.1666V10.966H41.6667V7.36715ZM27.3672 9.16655V10.8333H30.9661V9.16655H27.3672Z" fill="#2F80ED" mask="url(#path-22-inside-11)"/>
<mask id="path-24-inside-12" fill="white">
<path d="M33.3334 22.5H28.3334C27.8733 22.5 27.5001 22.1265 27.5001 21.6667V18.3334C27.5001 17.8734 27.8735 17.5001 28.3334 17.5001H33.3334C33.7934 17.5001 34.1667 17.8735 34.1667 18.3334V21.6667C34.1667 22.1267 33.7933 22.5 33.3334 22.5ZM29.1666 20.8334H32.4999V19.1667H29.1666V20.8334Z"/>
</mask>
<path d="M33.3334 22.5H28.3334C27.8733 22.5 27.5001 22.1265 27.5001 21.6667V18.3334C27.5001 17.8734 27.8735 17.5001 28.3334 17.5001H33.3334C33.7934 17.5001 34.1667 17.8735 34.1667 18.3334V21.6667C34.1667 22.1267 33.7933 22.5 33.3334 22.5ZM29.1666 20.8334H32.4999V19.1667H29.1666V20.8334Z" fill="#B0E645"/>
<path d="M29.1666 20.8334H27.3672V22.6328H29.1666V20.8334ZM32.4999 20.8334V22.6328H34.2993V20.8334H32.4999ZM32.4999 19.1667H34.2993V17.3673H32.4999V19.1667ZM29.1666 19.1667V17.3673H27.3672V19.1667H29.1666ZM33.3334 20.7006H28.3334V24.2994H33.3334V20.7006ZM28.3334 20.7006C28.8674 20.7006 29.2995 21.133 29.2995 21.6667H25.7007C25.7007 23.1201 26.8793 24.2994 28.3334 24.2994V20.7006ZM29.2995 21.6667V18.3334H25.7007V21.6667H29.2995ZM29.2995 18.3334C29.2995 18.8674 28.867 19.2995 28.3334 19.2995V15.7007C26.88 15.7007 25.7007 16.8793 25.7007 18.3334H29.2995ZM28.3334 19.2995H33.3334V15.7007H28.3334V19.2995ZM33.3334 19.2995C32.7994 19.2995 32.3673 18.8671 32.3673 18.3334H35.9661C35.9661 16.88 34.7875 15.7007 33.3334 15.7007V19.2995ZM32.3673 18.3334V21.6667H35.9661V18.3334H32.3673ZM32.3673 21.6667C32.3673 21.1327 32.7997 20.7006 33.3334 20.7006V24.2994C34.7868 24.2994 35.9661 23.1208 35.9661 21.6667H32.3673ZM29.1666 22.6328H32.4999V19.034H29.1666V22.6328ZM34.2993 20.8334V19.1667H30.7005V20.8334H34.2993ZM32.4999 17.3673H29.1666V20.9661H32.4999V17.3673ZM27.3672 19.1667V20.8334H30.9661V19.1667H27.3672Z" fill="#2F80ED" mask="url(#path-24-inside-12)"/>
<mask id="path-26-inside-13" fill="white">
<path d="M42.5 22.5H37.5C37.0399 22.5 36.6667 22.1265 36.6667 21.6667V18.3334C36.6667 17.8734 37.0401 17.5001 37.5 17.5001H42.5C42.96 17.5001 43.3333 17.8735 43.3333 18.3334V21.6667C43.3333 22.1267 42.96 22.5 42.5 22.5ZM38.3332 20.8334H41.6665V19.1667H38.3332V20.8334Z"/>
</mask>
<path d="M42.5 22.5H37.5C37.0399 22.5 36.6667 22.1265 36.6667 21.6667V18.3334C36.6667 17.8734 37.0401 17.5001 37.5 17.5001H42.5C42.96 17.5001 43.3333 17.8735 43.3333 18.3334V21.6667C43.3333 22.1267 42.96 22.5 42.5 22.5ZM38.3332 20.8334H41.6665V19.1667H38.3332V20.8334Z" fill="#B0E645"/>
<path d="M38.3332 20.8334H36.5338V22.6328H38.3332V20.8334ZM41.6665 20.8334V22.6328H43.4659V20.8334H41.6665ZM41.6665 19.1667H43.4659V17.3673H41.6665V19.1667ZM38.3332 19.1667V17.3673H36.5338V19.1667H38.3332ZM42.5 20.7006H37.5V24.2994H42.5V20.7006ZM37.5 20.7006C38.0339 20.7006 38.4661 21.133 38.4661 21.6667H34.8673C34.8673 23.1201 36.0459 24.2994 37.5 24.2994V20.7006ZM38.4661 21.6667V18.3334H34.8673V21.6667H38.4661ZM38.4661 18.3334C38.4661 18.8674 38.0336 19.2995 37.5 19.2995V15.7007C36.0466 15.7007 34.8673 16.8793 34.8673 18.3334H38.4661ZM37.5 19.2995H42.5V15.7007H37.5V19.2995ZM42.5 19.2995C41.966 19.2995 41.5339 18.8671 41.5339 18.3334H45.1327C45.1327 16.88 43.954 15.7007 42.5 15.7007V19.2995ZM41.5339 18.3334V21.6667H45.1327V18.3334H41.5339ZM41.5339 21.6667C41.5339 21.1329 41.9662 20.7006 42.5 20.7006V24.2994C43.9538 24.2994 45.1327 23.1205 45.1327 21.6667H41.5339ZM38.3332 22.6328H41.6665V19.034H38.3332V22.6328ZM43.4659 20.8334V19.1667H39.8671V20.8334H43.4659ZM41.6665 17.3673H38.3332V20.9661H41.6665V17.3673ZM36.5338 19.1667V20.8334H40.1326V19.1667H36.5338Z" fill="#2F80ED" mask="url(#path-26-inside-13)"/>
<mask id="path-28-inside-14" fill="white">
<path d="M42.5 15.8333H28.3334C27.8733 15.8333 27.5001 15.4599 27.5001 15C27.5001 14.54 27.8735 14.1667 28.3334 14.1667H42.5C42.96 14.1667 43.3332 14.5402 43.3332 15C43.3332 15.4599 42.96 15.8333 42.5 15.8333Z"/>
</mask>
<path d="M42.5 15.8333H28.3334C27.8733 15.8333 27.5001 15.4599 27.5001 15C27.5001 14.54 27.8735 14.1667 28.3334 14.1667H42.5C42.96 14.1667 43.3332 14.5402 43.3332 15C43.3332 15.4599 42.96 15.8333 42.5 15.8333Z" fill="#B0E645"/>
<path d="M42.5 14.0339H28.3334V17.6327H42.5V14.0339ZM28.3334 14.0339C28.8674 14.0339 29.2995 14.4663 29.2995 15H25.7007C25.7007 16.4534 26.8793 17.6327 28.3334 17.6327V14.0339ZM29.2995 15C29.2995 15.534 28.867 15.9661 28.3334 15.9661V12.3673C26.88 12.3673 25.7007 13.5459 25.7007 15H29.2995ZM28.3334 15.9661H42.5V12.3673H28.3334V15.9661ZM42.5 15.9661C41.966 15.9661 41.5338 15.5337 41.5338 15H45.1327C45.1327 13.5466 43.954 12.3673 42.5 12.3673V15.9661ZM41.5338 15C41.5338 14.4663 41.966 14.0339 42.5 14.0339V17.6327C43.954 17.6327 45.1327 16.4534 45.1327 15H41.5338Z" fill="#2F80ED" mask="url(#path-28-inside-14)"/>
</g>
<defs>
<clipPath id="clip0">
<rect width="50" height="50" fill="white"/>
</clipPath>
</defs>
</svg>
