<svg width="50" height="50" viewBox="0 0 50 50" fill="none" xmlns="http://www.w3.org/2000/svg">
<g clip-path="url(#clip0)">
<path d="M25.0573 43.3714L25.0573 43.3713L25.0491 43.373C24.9208 43.4003 24.7636 43.3203 24.7241 43.1489C24.698 43.0013 24.7823 42.8582 24.9476 42.8197C25.1051 42.792 25.2473 42.8953 25.2755 43.0386C25.3066 43.2003 25.2034 43.3429 25.0573 43.3714Z" fill="#B0E645" stroke="#2F80ED" stroke-width="1.00017"/>
<path d="M25.1089 46.5606L25.1157 46.5579C25.2427 46.5077 25.3214 46.3433 25.2599 46.1958L25.1089 46.5606ZM25.1089 46.5606L25.1023 46.5634M25.1089 46.5606L25.1023 46.5634M25.1023 46.5634C24.9736 46.6187 24.8036 46.5587 24.7413 46.4105C24.6756 46.2479 24.7607 46.0685 24.9476 46.0254M25.1023 46.5634L24.9476 46.0254M24.9476 46.0254C25.0777 46.0023 25.2062 46.0671 25.2599 46.1958L24.9476 46.0254Z" fill="#B0E645" stroke="#2F80ED" stroke-width="1.00017"/>
<path d="M21.3498 44.1913H21.8499V43.6913V42.2803V41.7802H21.3498H19.0398H18.5397V42.2803V43.6913V44.1913H19.0398H21.3498ZM18.2584 41.2176H22.1312C22.2866 41.2176 22.4125 41.3435 22.4125 41.4989V44.4726C22.4125 44.628 22.2866 44.7539 22.1312 44.7539H18.2584C18.1031 44.7539 17.9771 44.628 17.9771 44.4726V41.4989C17.9771 41.3436 18.1031 41.2176 18.2584 41.2176Z" fill="#B0E645" stroke="#2F80ED" stroke-width="1.00017"/>
<path d="M27.8926 42.1853H31.0717C31.227 42.1853 31.353 42.3112 31.353 42.4666C31.353 42.6219 31.227 42.7479 31.0717 42.7479H27.8926C27.7373 42.7479 27.6113 42.6219 27.6113 42.4666C27.6113 42.3112 27.7373 42.1853 27.8926 42.1853Z" fill="#B0E645" stroke="#2F80ED" stroke-width="1.00017"/>
<path d="M21.738 17.7451L21.738 17.7451L21.7418 17.7443C22.0074 17.6901 22.1893 18.0236 21.9936 18.2191L21.9934 18.2193C21.8528 18.3598 21.6132 18.3144 21.5349 18.1266L21.5349 18.1264C21.4668 17.9633 21.5671 17.7786 21.738 17.7451Z" fill="#B0E645" stroke="#2F80ED" stroke-width="1.00017"/>
<path d="M28.4632 17.913L28.4635 17.9138C28.498 17.9963 28.4928 18.0581 28.4764 18.1053C28.458 18.1583 28.4177 18.212 28.3584 18.2518C28.2991 18.2916 28.2345 18.3083 28.1786 18.3052C28.1291 18.3025 28.0695 18.2838 28.0052 18.2195C27.8777 18.0917 27.904 17.8811 28.0451 17.788L27.7696 17.3706L28.0447 17.7883C28.1996 17.6863 28.3959 17.7509 28.4632 17.913Z" fill="#B0E645" stroke="#2F80ED" stroke-width="1.00017"/>
<path d="M23.0803 24.5045C23.2356 24.5045 23.3616 24.6304 23.3616 24.7858C23.3616 24.9412 23.2357 25.0671 23.0803 25.0671H21.4735C21.3182 25.0671 21.1922 24.9411 21.1922 24.7858C21.1922 24.6304 21.3182 24.5045 21.4735 24.5045H23.0803Z" fill="#B0E645" stroke="#2F80ED" stroke-width="1.00017"/>
<path d="M27.4413 26.2709H25.7023C25.547 26.2709 25.421 26.145 25.421 25.9896C25.421 25.8343 25.547 25.7083 25.7023 25.7083H27.4413C27.5966 25.7083 27.7226 25.8343 27.7226 25.9896C27.7226 26.145 27.5966 26.2709 27.4413 26.2709Z" fill="#B0E645" stroke="#2F80ED" stroke-width="1.00017"/>
<mask id="path-9-inside-1" fill="white">
<path d="M37.0026 31.9492C37.0026 31.9492 34.7966 31.2634 33.9069 31.0305C33.7625 30.6713 33.7234 30.7221 31.3398 29.4832C30.4516 29.0216 29.3626 29.2873 28.7724 30.062C28.6397 30.0465 28.5083 30.0319 28.3768 30.0185C28.0614 29.9863 27.8111 29.7218 27.7947 29.4033L27.7883 29.2792C28.8025 28.8026 30.3732 27.6712 31.6505 26.1547C32.1367 25.5776 32.3535 24.8557 32.2834 24.1398C32.7678 23.4128 33.1751 22.6467 33.5001 21.8501H34.1762C36.1598 21.8501 37.7736 20.2378 37.7736 18.256C37.7736 16.7098 36.7912 15.3886 35.4172 14.8824C36.187 14.5707 36.7007 13.8982 36.8339 13.132C37.3657 10.0717 37.2744 5.79628 33.8189 2.80701C30.2962 -0.240562 25.0401 -0.409047 22.433 0.444903C20.7004 1.01238 19.5943 2.3543 18.9835 3.34577C11.8378 2.41749 12.7154 9.5843 12.5861 13.6578C12.5616 14.4277 12.8936 15.1131 13.4518 15.5568C10.961 17.7439 12.5228 21.8501 15.8232 21.8501H16.4434C16.7503 22.6288 17.1352 23.3793 17.5929 24.0932C17.5109 24.8088 17.7155 25.5359 18.1912 26.121C19.192 27.3523 20.7263 28.7454 22.2032 29.3774C22.1715 29.6872 21.922 29.9358 21.6093 29.9614C21.4668 29.9731 21.3245 29.986 21.1811 30C20.5812 29.2726 19.5241 29.0309 18.6608 29.4833C16.3852 30.676 16.4084 30.609 16.2361 30.8017C15.0126 31.086 13.8152 31.4342 12.67 31.8393C11.2139 32.3543 10.2843 33.7373 10.2937 35.2806V49.2235C10.2963 49.6531 10.688 50.0001 11.1178 50.0001H38.8829C39.3126 50.0001 39.7036 49.6531 39.7062 49.2235V35.4892C39.7165 33.8134 38.6294 32.3577 37.0026 31.9492ZM30.6192 30.8699L32.0351 31.6058C31.6916 32.1012 29.288 35.5679 28.9145 36.1066C28.5504 35.1601 28.1277 34.4631 28.5801 33.6315L29.9758 31.0659C30.0997 30.8379 30.3882 30.7498 30.6192 30.8699ZM20.3066 21.6665C19.6009 21.6664 18.9262 21.9263 18.4184 22.4131C16.9523 19.6347 17.1089 17.5912 17.1089 14.5776C17.3634 13.9145 17.5892 13.0851 17.8074 12.3421C21.7845 16.706 26.0456 10.4935 32.8906 14.4546C32.8906 17.5241 33.0484 19.6144 31.4845 22.4514C31.1452 22.1136 30.722 21.8742 30.2537 21.7543C29.7602 21.6267 30.2232 21.6678 20.3066 21.6665ZM36.2109 18.256C36.2109 19.2815 35.4443 20.2872 34.0226 20.2872C34.5624 18.2475 34.4336 16.6752 34.4534 16.2433C35.4447 16.3787 36.2109 17.2296 36.2109 18.256ZM19.2591 4.96899C19.5931 5.02828 19.9277 4.86468 20.0863 4.56424C20.4929 3.7938 21.4016 2.42716 22.9195 1.93001C26.7701 0.668866 37.1514 2.17878 35.2943 12.8644C35.2507 13.1156 35.091 13.3197 34.8561 13.4244C33.9312 13.8367 31.9017 10.89 26.3659 11.5869C22.3629 12.0897 20.3436 13.7341 18.1876 10.2412C17.8417 9.68041 17.0001 9.77428 16.7846 10.3951C15.7159 13.4716 15.8451 14.7106 14.7772 14.4948C14.6687 14.4728 14.1282 14.3319 14.1482 13.7074C14.3213 8.24053 13.6879 3.98338 19.2591 4.96899ZM15.9411 20.2873C14.569 20.2873 13.7885 19.2819 13.7885 18.256C13.7885 17.2297 14.5548 16.3787 15.546 16.2434C15.5722 16.7343 15.4253 18.255 15.9411 20.2873ZM19.4039 25.1353C18.785 24.3739 19.3146 23.2292 20.3065 23.2292H29.5631C30.5596 23.2292 31.0947 24.3888 30.4552 25.1479C29.5544 26.2173 28.0308 27.551 26.7104 28.0353C25.6042 28.4412 24.4424 28.4666 23.2236 28.0941C21.7971 27.658 20.3345 26.2802 19.4039 25.1353ZM26.27 29.7854C26.4322 30.6507 27.0864 31.3327 27.9452 31.5284C27.2342 32.8384 26.5166 33.7629 26.9346 35.2717L26.3102 36.158C25.6905 37.0377 24.3878 37.0382 23.7678 36.158L23.0871 35.1918C23.4679 33.6729 22.7344 32.799 22.0268 31.4756C22.8561 31.2944 23.5122 30.6461 23.709 29.8254C24.5515 29.9733 25.4054 29.9652 26.27 29.7854ZM19.3816 30.8699C19.6124 30.7498 19.901 30.838 20.0248 31.0659C20.0347 31.0659 19.9414 30.9126 21.4206 33.6315C21.9481 34.6011 21.2931 35.3541 21.0862 36.1067L17.9656 31.6058L19.3816 30.8699ZM38.1459 48.4372H34.8255L34.7101 44.5186C34.6974 44.0872 34.334 43.747 33.9061 43.7606C33.4747 43.7733 33.1353 44.1333 33.1481 44.5646L33.2622 48.4371H16.7373L16.8513 44.5646C16.8641 44.1332 16.5247 43.7733 16.0933 43.7606C15.6613 43.7468 15.3019 44.0872 15.2894 44.5186L15.1739 48.4372H11.8541V35.2711C11.8488 34.3928 12.362 33.6057 13.1912 33.3125C14.2742 32.9294 15.407 32.5994 16.5655 32.3293L19.8671 37.0911C20.1837 37.5478 20.728 37.793 21.2807 37.7266C22.0936 37.629 22.4103 36.9669 22.4192 36.9571C22.4661 37.0173 22.6394 37.3072 22.992 37.6137C24.2151 38.6771 26.0556 38.6319 27.223 37.4873C27.4608 37.254 27.5975 37.0422 27.6164 37.0175C28.1719 37.9343 29.5106 37.9903 30.1335 37.0911L33.3221 32.4922C35.2009 32.9718 35.4696 33.1744 36.622 33.465C37.548 33.6986 38.1517 34.526 38.1458 35.4797V48.4372H38.1459Z"/>
</mask>
<path d="M37.0026 31.9492C37.0026 31.9492 34.7966 31.2634 33.9069 31.0305C33.7625 30.6713 33.7234 30.7221 31.3398 29.4832C30.4516 29.0216 29.3626 29.2873 28.7724 30.062C28.6397 30.0465 28.5083 30.0319 28.3768 30.0185C28.0614 29.9863 27.8111 29.7218 27.7947 29.4033L27.7883 29.2792C28.8025 28.8026 30.3732 27.6712 31.6505 26.1547C32.1367 25.5776 32.3535 24.8557 32.2834 24.1398C32.7678 23.4128 33.1751 22.6467 33.5001 21.8501H34.1762C36.1598 21.8501 37.7736 20.2378 37.7736 18.256C37.7736 16.7098 36.7912 15.3886 35.4172 14.8824C36.187 14.5707 36.7007 13.8982 36.8339 13.132C37.3657 10.0717 37.2744 5.79628 33.8189 2.80701C30.2962 -0.240562 25.0401 -0.409047 22.433 0.444903C20.7004 1.01238 19.5943 2.3543 18.9835 3.34577C11.8378 2.41749 12.7154 9.5843 12.5861 13.6578C12.5616 14.4277 12.8936 15.1131 13.4518 15.5568C10.961 17.7439 12.5228 21.8501 15.8232 21.8501H16.4434C16.7503 22.6288 17.1352 23.3793 17.5929 24.0932C17.5109 24.8088 17.7155 25.5359 18.1912 26.121C19.192 27.3523 20.7263 28.7454 22.2032 29.3774C22.1715 29.6872 21.922 29.9358 21.6093 29.9614C21.4668 29.9731 21.3245 29.986 21.1811 30C20.5812 29.2726 19.5241 29.0309 18.6608 29.4833C16.3852 30.676 16.4084 30.609 16.2361 30.8017C15.0126 31.086 13.8152 31.4342 12.67 31.8393C11.2139 32.3543 10.2843 33.7373 10.2937 35.2806V49.2235C10.2963 49.6531 10.688 50.0001 11.1178 50.0001H38.8829C39.3126 50.0001 39.7036 49.6531 39.7062 49.2235V35.4892C39.7165 33.8134 38.6294 32.3577 37.0026 31.9492ZM30.6192 30.8699L32.0351 31.6058C31.6916 32.1012 29.288 35.5679 28.9145 36.1066C28.5504 35.1601 28.1277 34.4631 28.5801 33.6315L29.9758 31.0659C30.0997 30.8379 30.3882 30.7498 30.6192 30.8699ZM20.3066 21.6665C19.6009 21.6664 18.9262 21.9263 18.4184 22.4131C16.9523 19.6347 17.1089 17.5912 17.1089 14.5776C17.3634 13.9145 17.5892 13.0851 17.8074 12.3421C21.7845 16.706 26.0456 10.4935 32.8906 14.4546C32.8906 17.5241 33.0484 19.6144 31.4845 22.4514C31.1452 22.1136 30.722 21.8742 30.2537 21.7543C29.7602 21.6267 30.2232 21.6678 20.3066 21.6665ZM36.2109 18.256C36.2109 19.2815 35.4443 20.2872 34.0226 20.2872C34.5624 18.2475 34.4336 16.6752 34.4534 16.2433C35.4447 16.3787 36.2109 17.2296 36.2109 18.256ZM19.2591 4.96899C19.5931 5.02828 19.9277 4.86468 20.0863 4.56424C20.4929 3.7938 21.4016 2.42716 22.9195 1.93001C26.7701 0.668866 37.1514 2.17878 35.2943 12.8644C35.2507 13.1156 35.091 13.3197 34.8561 13.4244C33.9312 13.8367 31.9017 10.89 26.3659 11.5869C22.3629 12.0897 20.3436 13.7341 18.1876 10.2412C17.8417 9.68041 17.0001 9.77428 16.7846 10.3951C15.7159 13.4716 15.8451 14.7106 14.7772 14.4948C14.6687 14.4728 14.1282 14.3319 14.1482 13.7074C14.3213 8.24053 13.6879 3.98338 19.2591 4.96899ZM15.9411 20.2873C14.569 20.2873 13.7885 19.2819 13.7885 18.256C13.7885 17.2297 14.5548 16.3787 15.546 16.2434C15.5722 16.7343 15.4253 18.255 15.9411 20.2873ZM19.4039 25.1353C18.785 24.3739 19.3146 23.2292 20.3065 23.2292H29.5631C30.5596 23.2292 31.0947 24.3888 30.4552 25.1479C29.5544 26.2173 28.0308 27.551 26.7104 28.0353C25.6042 28.4412 24.4424 28.4666 23.2236 28.0941C21.7971 27.658 20.3345 26.2802 19.4039 25.1353ZM26.27 29.7854C26.4322 30.6507 27.0864 31.3327 27.9452 31.5284C27.2342 32.8384 26.5166 33.7629 26.9346 35.2717L26.3102 36.158C25.6905 37.0377 24.3878 37.0382 23.7678 36.158L23.0871 35.1918C23.4679 33.6729 22.7344 32.799 22.0268 31.4756C22.8561 31.2944 23.5122 30.6461 23.709 29.8254C24.5515 29.9733 25.4054 29.9652 26.27 29.7854ZM19.3816 30.8699C19.6124 30.7498 19.901 30.838 20.0248 31.0659C20.0347 31.0659 19.9414 30.9126 21.4206 33.6315C21.9481 34.6011 21.2931 35.3541 21.0862 36.1067L17.9656 31.6058L19.3816 30.8699ZM38.1459 48.4372H34.8255L34.7101 44.5186C34.6974 44.0872 34.334 43.747 33.9061 43.7606C33.4747 43.7733 33.1353 44.1333 33.1481 44.5646L33.2622 48.4371H16.7373L16.8513 44.5646C16.8641 44.1332 16.5247 43.7733 16.0933 43.7606C15.6613 43.7468 15.3019 44.0872 15.2894 44.5186L15.1739 48.4372H11.8541V35.2711C11.8488 34.3928 12.362 33.6057 13.1912 33.3125C14.2742 32.9294 15.407 32.5994 16.5655 32.3293L19.8671 37.0911C20.1837 37.5478 20.728 37.793 21.2807 37.7266C22.0936 37.629 22.4103 36.9669 22.4192 36.9571C22.4661 37.0173 22.6394 37.3072 22.992 37.6137C24.2151 38.6771 26.0556 38.6319 27.223 37.4873C27.4608 37.254 27.5975 37.0422 27.6164 37.0175C28.1719 37.9343 29.5106 37.9903 30.1335 37.0911L33.3221 32.4922C35.2009 32.9718 35.4696 33.1744 36.622 33.465C37.548 33.6986 38.1517 34.526 38.1458 35.4797V48.4372H38.1459Z" fill="#B0E645" stroke="#2F80ED" stroke-width="2.00033" mask="url(#path-9-inside-1)"/>
<path d="M19.5173 16.4502L19.5174 16.4502C19.6165 16.5693 19.7937 16.5862 19.9137 16.4864C19.9567 16.4507 20.6729 15.8822 21.6968 15.8476L19.5173 16.4502ZM19.5173 16.4502C19.4181 16.3309 19.4342 16.1534 19.5537 16.0539M19.5173 16.4502L19.5537 16.0539M19.5537 16.0539L19.2338 15.6696M19.5537 16.0539L19.2338 15.6696M19.2338 15.6696L19.5534 16.0542C19.625 15.9946 20.4602 15.3267 21.6771 15.2853M19.2338 15.6696L21.6771 15.2853M21.6771 15.2853C21.8354 15.2805 21.9632 15.4019 21.9685 15.5569C21.9737 15.7121 21.8521 15.8423 21.6969 15.8476L21.6771 15.2853Z" fill="#B0E645" stroke="#2F80ED" stroke-width="1.00017"/>
<path d="M30.086 16.4877L30.086 16.4877C30.2054 16.5857 30.3817 16.569 30.4806 16.4501L30.086 16.4877ZM30.086 16.4877L30.0792 16.4823M30.086 16.4877L30.0792 16.4823M30.0792 16.4823C30.0345 16.4469 29.311 15.8817 28.3012 15.8475L28.3012 15.8475M30.0792 16.4823L28.3012 15.8475M28.3012 15.8475C28.146 15.8423 28.0243 15.7122 28.0296 15.5568L28.0296 15.5567M28.3012 15.8475L28.0296 15.5567M28.0296 15.5567C28.0348 15.4009 28.1634 15.2799 28.3205 15.2852L28.0296 15.5567Z" fill="#B0E645" stroke="#2F80ED" stroke-width="1.00017"/>
</g>
<defs>
<clipPath id="clip0">
<rect width="50" height="50" fill="white"/>
</clipPath>
</defs>
</svg>
