<svg width="50" height="50" viewBox="0 0 50 50" fill="none" xmlns="http://www.w3.org/2000/svg">
<g clip-path="url(#clip0)">
<path d="M25.5614 22.8333C25.5364 22.8459 25.5021 22.8685 25.4694 22.908C25.4149 22.9739 25.399 23.046 25.399 23.092V23.1635L25.3533 22.7023L25.3425 22.593C25.3639 22.593 25.3874 22.5949 25.4122 22.5994C25.4984 22.6151 25.5995 22.6613 25.676 22.7607C25.7567 22.8655 25.7599 22.9667 25.76 22.9909C25.76 23.0113 25.758 23.0219 25.7582 23.0219C25.7584 23.022 25.7626 23.0033 25.7807 22.9639C25.8097 22.9011 25.8498 22.8372 25.8923 22.7822C25.8984 22.8076 25.9045 22.8359 25.9105 22.8675C25.9227 22.9322 25.9336 23.0067 25.9425 23.092H25.898H25.7049C25.6902 23.0039 25.6527 22.9392 25.626 22.9027C25.602 22.8699 25.5782 22.8473 25.5614 22.8333ZM25.5614 22.8333C25.574 22.827 25.5842 22.8233 25.5905 22.8213C25.5982 22.8188 25.6019 22.818 25.6018 22.8177C25.6018 22.8171 25.5819 22.8193 25.5447 22.8111C25.5241 22.8066 25.5142 22.802 25.5161 22.8029C25.5172 22.8034 25.5275 22.8083 25.5433 22.8195C25.5475 22.8224 25.5537 22.827 25.5614 22.8333ZM38.4895 34.1955L38.4981 34.2273L38.5108 34.2577L40.6699 39.4388C40.6699 39.4388 40.6699 39.4388 40.6699 39.4388C41.9223 42.4448 41.5454 45.6734 40.9683 49.1353L40.9681 49.1361C40.9428 49.2898 40.8093 49.4035 40.6522 49.4035H9.50466C9.34809 49.4035 9.21424 49.29 9.18861 49.1356L9.18856 49.1353C8.61138 45.6734 8.23453 42.4447 9.48694 39.4388L11.6461 34.2577L11.6587 34.2273L11.6673 34.1955L12.854 29.788C12.854 29.788 12.854 29.788 12.854 29.788C13.715 26.5917 13.715 23.2131 12.854 20.0165C12.854 20.0165 12.854 20.0165 12.854 20.0165L11.656 15.5675C11.6559 15.566 11.6558 15.5638 11.6557 15.561C11.6555 15.5535 11.6554 15.5435 11.6557 15.5279L11.6561 15.5022L11.6566 15.4703L11.6586 15.2752L11.5277 15.1305C10.097 13.5483 9.18391 11.2841 9.18391 8.7517V7.95939C9.18391 4.1628 11.7814 1.22115 14.806 1.22115H20.1603H20.6593V0.722125C20.6593 0.544924 20.8029 0.401369 20.9801 0.401369H29.9965C30.1735 0.401369 30.3173 0.545073 30.3173 0.722125V1.22115H30.8163H35.3509C38.3754 1.22115 40.9729 4.16278 40.9729 7.95977V8.75209C40.9729 11.2844 40.0595 13.5487 38.6291 15.1305L38.4973 15.2763L38.5003 15.4728L38.5009 15.5042L38.5014 15.5293C38.5016 15.5445 38.5016 15.5541 38.5014 15.5611C38.5013 15.5632 38.5012 15.5649 38.5012 15.5662L37.3028 20.0165C37.3028 20.0165 37.3028 20.0165 37.3028 20.0165C36.4418 23.2131 36.4418 26.5913 37.3028 29.788L38.4895 34.1955ZM21.7995 1.0425H21.3005V1.54152V1.61629C21.3005 2.75456 22.2263 3.67973 23.3643 3.67973H27.6123C28.7504 3.67973 29.6758 2.7544 29.6758 1.61629V1.54152V1.0425H29.1767H21.7995ZM20.742 2.24474L20.6501 1.86228H20.2568H14.806C11.9614 1.86228 9.82504 4.70616 9.82504 7.95901V8.7517C9.82504 13.0817 12.6857 16.7947 16.4139 16.7947C16.5911 16.7947 16.7346 16.9383 16.7346 17.1155C16.7346 17.2927 16.5911 17.4362 16.4139 17.4362C15.3774 17.4362 14.3911 17.166 13.4921 16.6853L12.4751 16.1414L12.7749 17.2551L13.4734 19.8495L13.4735 19.8497C13.6731 20.5902 13.8216 21.344 13.9322 22.1054L13.9942 22.5328H14.426H24.8805C24.8784 22.5374 24.8762 22.542 24.8741 22.5465C24.8271 22.6487 24.7738 22.7904 24.7636 22.9411C24.7351 23.0018 24.7156 23.0725 24.7133 23.1523C24.7131 23.1594 24.713 23.1665 24.7131 23.1735H24.5374H24.5367L24.2584 23.1739H24.2578H14.6H14.0692L14.1019 23.7037C14.2314 25.8007 14.0234 27.9144 13.4738 29.9549L12.4881 33.6147L12.4113 33.9L12.6244 34.1045C12.98 34.4459 13.5569 34.7484 14.2656 35.0143C14.9878 35.2851 15.8965 35.5358 16.96 35.7499C19.088 36.1783 21.8676 36.4668 25.0786 36.4668C28.2894 36.4668 31.069 36.1783 33.1969 35.7499C34.2604 35.5358 35.1691 35.2851 35.8913 35.0143C36.6 34.7484 37.1768 34.4459 37.5325 34.1045L37.7455 33.9L37.6687 33.6147L36.683 29.955C36.1338 27.914 35.9255 25.8003 36.0549 23.7033L36.0876 23.1735H35.5568H26.9511C26.9385 22.99 26.9185 22.8266 26.8912 22.6822C26.8816 22.6314 26.8708 22.5815 26.8588 22.5328H35.7308H36.1624L36.2246 22.1057C36.3355 21.3441 36.4841 20.5901 36.6834 19.8494L37.3819 17.2551L37.6817 16.1414L36.6647 16.6853C35.7658 17.166 34.7791 17.4362 33.743 17.4362C33.5658 17.4362 33.4222 17.2927 33.4222 17.1155C33.4222 16.9383 33.5658 16.7947 33.743 16.7947C37.4712 16.7947 40.3318 13.0817 40.3318 8.7517V7.95901C40.3318 4.70616 38.1954 1.86228 35.3509 1.86228H30.7198H30.3265L30.2346 2.24474C29.9486 3.43518 28.8823 4.32124 27.6123 4.32124H23.3643C22.0939 4.32124 21.028 3.43521 20.742 2.24474ZM26.038 22.6413C26.038 22.6414 26.0371 22.6419 26.0352 22.6426C26.037 22.6416 26.038 22.6413 26.038 22.6413ZM39.9552 48.762H40.3813L40.4481 48.3411C40.9185 45.3741 41.2019 42.3833 40.0779 39.6859L38.2018 35.183L37.9735 34.6351L37.4729 34.9541C36.4955 35.5771 34.8212 36.1216 32.6464 36.5072C30.486 36.8902 27.8807 37.1083 25.0782 37.1083C22.2758 37.1083 19.6704 36.8902 17.51 36.5072C15.3352 36.1216 13.6607 35.5771 12.6831 34.9541L12.1825 34.6351L11.9543 35.183L10.0782 39.6859C8.95418 42.3833 9.23797 45.3742 9.70836 48.3411L9.77509 48.762H10.2012H20.8145H21.7469L21.2298 47.9862L19.8938 45.9819L19.8938 45.9819C19.7955 45.8344 19.8355 45.6352 19.9826 45.5372L19.9839 45.5363C20.1293 45.4388 20.3277 45.4771 20.4272 45.6261C20.4272 45.6261 20.4272 45.6261 20.4272 45.6262L22.0667 48.0854L22.0669 48.0857C22.0873 48.1162 22.1054 48.1659 22.1054 48.2633V48.7623H22.6044H27.5528H28.0531L28.0518 48.2621C28.0516 48.1666 28.0696 48.1167 28.0903 48.0857L28.0905 48.0854L29.7297 45.626L29.73 45.6256C29.828 45.4782 30.0262 45.4382 30.1741 45.5369L30.1744 45.5371C30.3216 45.6352 30.3615 45.8347 30.2634 45.9819L28.9271 47.9861L28.4098 48.762H29.3423H39.9552Z" fill="#B0E645" stroke="#2F80ED" stroke-width="0.99805"/>
<path d="M24.2711 13.9254L24.2733 13.9257C24.4492 13.9475 24.5738 14.1076 24.5521 14.2831C24.3294 16.0796 22.7936 17.4359 20.9801 17.4359C20.8026 17.4359 20.6593 17.2924 20.6593 17.1155C20.6593 16.9383 20.8029 16.7947 20.9801 16.7947C22.4701 16.7947 23.7327 15.6825 23.9156 14.2043L23.9156 14.204C23.9375 14.0259 24.0971 13.9031 24.2711 13.9254Z" fill="#B0E645" stroke="#2F80ED" stroke-width="0.99805"/>
<path d="M27.0358 14.2037L27.0358 14.2039C27.2187 15.6824 28.4809 16.7947 29.9713 16.7947C30.1485 16.7947 30.2921 16.9386 30.2921 17.1151C30.2921 17.2922 30.1483 17.4359 29.9713 17.4359C28.1578 17.4359 26.622 16.0797 26.3997 14.2828L26.3997 14.2823C26.3778 14.1071 26.5025 13.947 26.6781 13.9254L26.6781 13.9254L26.6803 13.9251C26.856 13.9027 27.0138 14.0248 27.0358 14.2037Z" fill="#B0E645" stroke="#2F80ED" stroke-width="0.99805"/>
</g>
<defs>
<clipPath id="clip0">
<rect width="50" height="50" fill="white"/>
</clipPath>
</defs>
</svg>
