<svg width="50" height="50" viewBox="0 0 50 50" fill="none" xmlns="http://www.w3.org/2000/svg">
<mask id="path-1-inside-1" fill="white">
<path d="M32.496 34.1744C32.4593 34.1744 32.4219 34.1719 32.3844 34.1669C31.928 34.1061 31.6082 33.6864 31.669 33.2308C33.9584 16.1294 21.0884 11.0111 20.5396 10.8021C20.1107 10.638 19.8942 10.1575 20.0574 9.72778C20.2206 9.29806 20.6995 9.08236 21.13 9.24393C21.2766 9.29972 35.7888 15.0077 33.3205 33.4515C33.2647 33.8704 32.9074 34.1744 32.496 34.1744Z"/>
</mask>
<path d="M32.496 34.1744C32.4593 34.1744 32.4219 34.1719 32.3844 34.1669C31.928 34.1061 31.6082 33.6864 31.669 33.2308C33.9584 16.1294 21.0884 11.0111 20.5396 10.8021C20.1107 10.638 19.8942 10.1575 20.0574 9.72778C20.2206 9.29806 20.6995 9.08236 21.13 9.24393C21.2766 9.29972 35.7888 15.0077 33.3205 33.4515C33.2647 33.8704 32.9074 34.1744 32.496 34.1744Z" fill="#B0E645"/>
<path d="M32.3844 34.1669L33.5115 25.7139L33.5104 25.7138L32.3844 34.1669ZM31.669 33.2308L23.2166 32.0993L23.2162 32.1027L31.669 33.2308ZM20.5396 10.8021L17.4928 18.767L17.5042 18.7714L20.5396 10.8021ZM21.13 9.24393L24.164 1.27409L24.145 1.26687L24.126 1.25974L21.13 9.24393ZM33.3205 33.4515L24.868 32.3203L24.8673 32.3255L33.3205 33.4515ZM32.496 25.6466C32.8437 25.6466 33.1827 25.6701 33.5115 25.7139L31.2573 42.6199C31.661 42.6737 32.075 42.7022 32.496 42.7022V25.6466ZM33.5104 25.7138C37.7354 26.2766 40.6826 30.1573 40.1219 34.3589L23.2162 32.1027C22.5339 37.2155 26.1207 41.9356 31.2583 42.62L33.5104 25.7138ZM40.1214 34.3623C41.6049 23.2809 38.1421 15.2953 33.5985 10.08C29.3173 5.16598 24.5236 3.1941 23.5749 2.83277L17.5042 18.7714C17.1044 18.6191 19.0201 19.3109 20.7387 21.2836C22.195 22.9552 24.0225 26.0793 23.2166 32.0993L40.1214 34.3623ZM23.5864 2.83713C27.5323 4.34653 29.5423 8.77322 28.0295 12.7559L12.0854 6.69963C10.2461 11.5418 12.6891 16.9295 17.4928 18.767L23.5864 2.83713ZM28.0295 12.7559C26.5204 16.7287 22.0883 18.7119 18.134 17.2281L24.126 1.25974C19.3107 -0.547174 13.9208 1.86744 12.0854 6.69963L28.0295 12.7559ZM18.0961 17.2138C17.4766 16.9779 19.7566 17.7925 21.8438 20.1309C23.6602 22.1658 25.7461 25.7594 24.868 32.3203L41.7729 34.5827C43.3632 22.6998 39.4272 14.2174 34.5679 8.77347C29.9795 3.63298 24.93 1.5657 24.164 1.27409L18.0961 17.2138ZM24.8673 32.3255C25.3835 28.4503 28.6905 25.6466 32.496 25.6466V42.7022C37.1242 42.7022 41.1458 39.2905 41.7736 34.5775L24.8673 32.3255Z" fill="#2F80ED" mask="url(#path-1-inside-1)"/>
<mask id="path-3-inside-2" fill="white">
<path d="M29.3447 46.6679C27.7307 46.6679 26.5399 44.6043 25.8236 42.8729C25.3556 41.742 24.8743 40.457 24.3929 39.0554C24.2438 38.6207 24.4754 38.1468 24.9101 37.9969C25.344 37.847 25.8187 38.0802 25.9677 38.5141C26.4374 39.884 26.9063 41.1357 27.3618 42.2358C28.1047 44.0322 28.9366 45.0015 29.343 45.0015C29.7078 45.0015 30.444 44.6659 31.146 44.0255C31.5008 43.7057 39.6114 36.2872 39.9895 26.646C40.0078 26.1863 40.3984 25.8223 40.8547 25.8465C41.3144 25.864 41.6725 26.2512 41.6542 26.7109C41.257 36.8718 33.1905 44.4261 32.272 45.2539C31.3018 46.1399 30.2075 46.6679 29.3447 46.6679Z"/>
</mask>
<path d="M29.3447 46.6679C27.7307 46.6679 26.5399 44.6043 25.8236 42.8729C25.3556 41.742 24.8743 40.457 24.3929 39.0554C24.2438 38.6207 24.4754 38.1468 24.9101 37.9969C25.344 37.847 25.8187 38.0802 25.9677 38.5141C26.4374 39.884 26.9063 41.1357 27.3618 42.2358C28.1047 44.0322 28.9366 45.0015 29.343 45.0015C29.7078 45.0015 30.444 44.6659 31.146 44.0255C31.5008 43.7057 39.6114 36.2872 39.9895 26.646C40.0078 26.1863 40.3984 25.8223 40.8547 25.8465C41.3144 25.864 41.6725 26.2512 41.6542 26.7109C41.257 36.8718 33.1905 44.4261 32.272 45.2539C31.3018 46.1399 30.2075 46.6679 29.3447 46.6679Z" fill="#B0E645"/>
<path d="M25.8236 42.8729L33.7038 39.6132L33.7033 39.6119L25.8236 42.8729ZM24.3929 39.0554L16.3262 41.8216L16.3275 41.8253L24.3929 39.0554ZM24.9101 37.9969L27.6901 46.0589L27.6948 46.0572L24.9101 37.9969ZM25.9677 38.5141L34.0346 35.7483L34.0328 35.7432L25.9677 38.5141ZM27.3618 42.2358L35.2424 38.9769L35.2408 38.9733L27.3618 42.2358ZM31.146 44.0255L25.4363 37.6913L25.4175 37.7082L25.3988 37.7253L31.146 44.0255ZM39.9895 26.646L31.4684 26.3063L31.4682 26.3118L39.9895 26.646ZM40.8547 25.8465L40.4041 34.3623L40.4673 34.3657L40.5305 34.3681L40.8547 25.8465ZM41.6542 26.7109L33.1332 26.3713L33.1329 26.3778L41.6542 26.7109ZM32.272 45.2539L26.5631 38.9189L26.542 38.9379L26.521 38.957L32.272 45.2539ZM29.3447 38.1401C30.8459 38.1401 32.0237 38.639 32.7622 39.1045C33.4439 39.5343 33.7987 39.9583 33.8928 40.0752C34.0433 40.2623 33.9337 40.1688 33.7038 39.6132L17.9435 46.1326C18.4298 47.3084 19.2738 49.1124 20.6023 50.7642C21.787 52.2372 24.6748 55.1957 29.3447 55.1957V38.1401ZM33.7033 39.6119C33.3149 38.6733 32.8947 37.5561 32.4583 36.2854L16.3275 41.8253C16.8539 43.3579 17.3964 44.8106 17.944 46.1339L33.7033 39.6119ZM32.4596 36.2892C33.8379 40.3085 31.6982 44.6767 27.6901 46.0589L22.1301 29.935C17.2526 31.6169 14.6498 36.9328 16.3262 41.8216L32.4596 36.2892ZM27.6948 46.0572C23.6451 47.4563 19.2766 45.2841 17.9027 41.285L34.0328 35.7432C32.3607 30.8763 27.0428 28.2377 22.1253 29.9366L27.6948 46.0572ZM17.9009 41.2798C18.4163 42.783 18.9469 44.2043 19.4828 45.4984L35.2408 38.9733C34.8656 38.0671 34.4586 36.985 34.0346 35.7483L17.9009 41.2798ZM19.4813 45.4947C20.0528 46.8766 20.7764 48.2407 21.6668 49.4228C22.0975 49.9947 22.7339 50.7476 23.5968 51.447C24.153 51.8978 26.2224 53.5293 29.343 53.5293V36.4737C30.9429 36.4737 32.1592 36.934 32.8351 37.2555C33.5431 37.5924 34.0457 37.9617 34.3361 38.197C34.9055 38.6585 35.2113 39.0567 35.2904 39.1618C35.4775 39.4102 35.4137 39.3913 35.2424 38.9769L19.4813 45.4947ZM29.343 53.5293C31.5674 53.5293 33.304 52.7063 34.0318 52.3303C35.0439 51.8075 36.0154 51.1265 36.8932 50.3257L25.3988 37.7253C25.5747 37.5649 25.827 37.3719 26.2043 37.177C26.3937 37.0792 26.6973 36.9381 27.1112 36.8073C27.4523 36.6996 28.253 36.4737 29.343 36.4737V53.5293ZM36.8557 50.3597C37.3199 49.9413 39.9633 47.4991 42.5988 43.6442C45.184 39.8629 48.234 34.0348 48.5107 26.9801L31.4682 26.3118C31.3668 28.8984 30.1725 31.6001 28.5192 34.0183C26.9162 36.3629 25.327 37.7898 25.4363 37.6913L36.8557 50.3597ZM48.5105 26.9856C48.3448 31.1428 44.8257 34.5963 40.4041 34.3623L41.3054 17.3306C35.971 17.0483 31.6708 21.2297 31.4684 26.3063L48.5105 26.9856ZM40.5305 34.3681C36.2761 34.2062 32.9638 30.6219 33.1332 26.3713L50.1752 27.0505C50.3813 21.8805 46.3528 17.5217 41.1789 17.3248L40.5305 34.3681ZM33.1329 26.3778C33.0179 29.3208 31.7543 32.2224 30.0694 34.7424C28.4144 37.2178 26.7134 38.7834 26.5631 38.9189L37.9809 51.5888C38.7491 50.8965 41.5406 48.2711 44.2478 44.2222C46.9251 40.2179 49.8933 34.2619 50.1755 27.0441L33.1329 26.3778ZM26.521 38.957C26.5706 38.9117 26.7312 38.7725 27.0596 38.6139C27.3291 38.4838 28.1242 38.1401 29.3447 38.1401V55.1957C33.2081 55.1957 36.2733 53.1486 38.0229 51.5507L26.521 38.957Z" fill="#2F80ED" mask="url(#path-3-inside-2)"/>
<path d="M24.1248 26.8917C24.0997 26.8416 24.0144 26.6993 23.8377 26.6788L24.1248 26.8917Z" fill="#B0E645" stroke="#2F80ED" stroke-width="8.52779"/>
<mask id="path-6-inside-3" fill="white">
<path d="M29.3539 49.9998C28.9733 49.9998 28.5835 49.9607 28.1863 49.8716C25.9419 49.3711 24.1114 47.444 22.7465 44.1461C21.6031 41.3821 20.413 37.8211 19.3962 34.1193C19.3029 33.7796 19.4336 33.419 19.7218 33.2166C20.0108 33.0151 20.3947 33.0167 20.682 33.2199C22.7865 34.7139 23.8741 34.7248 24.243 34.5565C24.1431 34.2209 23.3861 33.1441 20.637 31.3736C20.1757 31.0763 19.9425 30.5358 20.0449 29.9962C20.1473 29.4549 20.5629 29.0351 21.1034 28.926C21.8146 28.7836 23.7916 27.5103 24.0748 27.2621C24.2055 27.1372 24.1747 26.9906 24.1248 26.8915C24.0948 26.8316 23.9782 26.6392 23.7217 26.6825C23.0288 26.8024 22.2618 27.0048 21.5206 27.1997C19.7601 27.6644 18.6408 27.9342 17.8505 27.6302C17.2076 27.3829 16.7562 26.8016 16.6704 26.1129C16.5838 25.4125 16.887 24.7263 17.4616 24.3232C20.1956 22.4028 20.448 21.3152 20.4605 21.027C20.4696 20.8088 20.373 20.7106 20.343 20.6856C20.2972 20.6548 20.2847 20.6423 20.2464 20.6031C19.7859 20.1443 18.3368 20.7713 16.6405 22.1671C16.1524 22.5685 15.4845 22.6684 14.8983 22.4269C14.3195 22.1879 13.9206 21.6549 13.8581 21.0345C13.7615 20.0768 13.7906 19.0133 13.9447 17.8741C13.9472 17.8549 13.953 17.8116 13.9022 17.7791C13.8589 17.7508 13.8298 17.7675 13.8131 17.7783C13.0886 18.2205 12.5773 19.1899 12.3341 20.5823C12.2716 20.9404 11.9851 21.2161 11.6245 21.2652C11.2656 21.311 10.915 21.1236 10.7601 20.7947C9.80906 18.7776 8.60484 15.7213 8.26923 12.6133C7.81952 8.45102 9.91399 4.35951 13.6058 2.18926C18.8682 -0.904566 27.3327 -2.25286 37.7742 8.89406C42.7968 14.2556 45.2169 20.1917 44.9679 26.5376C44.5023 38.4715 34.9244 47.3441 34.5172 47.7163C33.7035 48.4592 31.7273 49.9998 29.3539 49.9998ZM21.5781 35.6941C22.435 38.5898 23.3761 41.3105 24.2863 43.5091C25.4314 46.2764 26.8655 47.8704 28.5494 48.246C30.6655 48.7148 32.6426 47.1717 33.3954 46.4855C33.4903 46.3989 42.8659 37.717 43.3064 26.4693C43.5371 20.5856 41.2678 15.0542 36.5617 10.03C26.8721 -0.312451 19.1896 0.836802 14.4519 3.62249C11.3231 5.46213 9.54756 8.91905 9.92732 12.4318C10.1422 14.4213 10.7509 16.4083 11.4022 18.0731C11.7928 17.3186 12.3091 16.7431 12.9479 16.3542C13.53 16.0011 14.2453 16.0119 14.815 16.3842C15.3888 16.7598 15.6886 17.416 15.5961 18.0964C15.502 18.7901 15.4121 19.8353 15.5162 20.8671C18.8382 18.2022 20.5321 18.5736 21.384 19.3839C21.5997 19.558 22.1169 20.0685 22.1286 20.9687C22.146 22.3786 20.9327 23.9218 18.421 25.6856C18.3185 25.7573 18.3202 25.8655 18.3252 25.9088C18.3352 25.9921 18.3768 26.0479 18.4493 26.0754C18.799 26.1962 20.1823 25.8314 21.0976 25.5899C21.8737 25.385 22.6757 25.1735 23.4394 25.0419C24.3296 24.8878 25.2041 25.33 25.6138 26.1429C26.0177 26.9448 25.862 27.8609 25.2174 28.4755C24.9725 28.7087 23.3286 29.8363 22.1019 30.3426C25.244 32.4554 26.4033 34.0619 25.7454 35.376C25.7287 35.4085 25.7104 35.4401 25.6904 35.4701C25.6221 35.5709 25.2365 36.0831 24.3604 36.2421C23.5743 36.3845 22.6424 36.2005 21.5781 35.6941ZM24.3488 34.4858C24.3488 34.4858 24.3488 34.4858 24.3479 34.4866C24.3488 34.4866 24.3496 34.4858 24.3488 34.4858Z"/>
</mask>
<path d="M29.3539 49.9998C28.9733 49.9998 28.5835 49.9607 28.1863 49.8716C25.9419 49.3711 24.1114 47.444 22.7465 44.1461C21.6031 41.3821 20.413 37.8211 19.3962 34.1193C19.3029 33.7796 19.4336 33.419 19.7218 33.2166C20.0108 33.0151 20.3947 33.0167 20.682 33.2199C22.7865 34.7139 23.8741 34.7248 24.243 34.5565C24.1431 34.2209 23.3861 33.1441 20.637 31.3736C20.1757 31.0763 19.9425 30.5358 20.0449 29.9962C20.1473 29.4549 20.5629 29.0351 21.1034 28.926C21.8146 28.7836 23.7916 27.5103 24.0748 27.2621C24.2055 27.1372 24.1747 26.9906 24.1248 26.8915C24.0948 26.8316 23.9782 26.6392 23.7217 26.6825C23.0288 26.8024 22.2618 27.0048 21.5206 27.1997C19.7601 27.6644 18.6408 27.9342 17.8505 27.6302C17.2076 27.3829 16.7562 26.8016 16.6704 26.1129C16.5838 25.4125 16.887 24.7263 17.4616 24.3232C20.1956 22.4028 20.448 21.3152 20.4605 21.027C20.4696 20.8088 20.373 20.7106 20.343 20.6856C20.2972 20.6548 20.2847 20.6423 20.2464 20.6031C19.7859 20.1443 18.3368 20.7713 16.6405 22.1671C16.1524 22.5685 15.4845 22.6684 14.8983 22.4269C14.3195 22.1879 13.9206 21.6549 13.8581 21.0345C13.7615 20.0768 13.7906 19.0133 13.9447 17.8741C13.9472 17.8549 13.953 17.8116 13.9022 17.7791C13.8589 17.7508 13.8298 17.7675 13.8131 17.7783C13.0886 18.2205 12.5773 19.1899 12.3341 20.5823C12.2716 20.9404 11.9851 21.2161 11.6245 21.2652C11.2656 21.311 10.915 21.1236 10.7601 20.7947C9.80906 18.7776 8.60484 15.7213 8.26923 12.6133C7.81952 8.45102 9.91399 4.35951 13.6058 2.18926C18.8682 -0.904566 27.3327 -2.25286 37.7742 8.89406C42.7968 14.2556 45.2169 20.1917 44.9679 26.5376C44.5023 38.4715 34.9244 47.3441 34.5172 47.7163C33.7035 48.4592 31.7273 49.9998 29.3539 49.9998ZM21.5781 35.6941C22.435 38.5898 23.3761 41.3105 24.2863 43.5091C25.4314 46.2764 26.8655 47.8704 28.5494 48.246C30.6655 48.7148 32.6426 47.1717 33.3954 46.4855C33.4903 46.3989 42.8659 37.717 43.3064 26.4693C43.5371 20.5856 41.2678 15.0542 36.5617 10.03C26.8721 -0.312451 19.1896 0.836802 14.4519 3.62249C11.3231 5.46213 9.54756 8.91905 9.92732 12.4318C10.1422 14.4213 10.7509 16.4083 11.4022 18.0731C11.7928 17.3186 12.3091 16.7431 12.9479 16.3542C13.53 16.0011 14.2453 16.0119 14.815 16.3842C15.3888 16.7598 15.6886 17.416 15.5961 18.0964C15.502 18.7901 15.4121 19.8353 15.5162 20.8671C18.8382 18.2022 20.5321 18.5736 21.384 19.3839C21.5997 19.558 22.1169 20.0685 22.1286 20.9687C22.146 22.3786 20.9327 23.9218 18.421 25.6856C18.3185 25.7573 18.3202 25.8655 18.3252 25.9088C18.3352 25.9921 18.3768 26.0479 18.4493 26.0754C18.799 26.1962 20.1823 25.8314 21.0976 25.5899C21.8737 25.385 22.6757 25.1735 23.4394 25.0419C24.3296 24.8878 25.2041 25.33 25.6138 26.1429C26.0177 26.9448 25.862 27.8609 25.2174 28.4755C24.9725 28.7087 23.3286 29.8363 22.1019 30.3426C25.244 32.4554 26.4033 34.0619 25.7454 35.376C25.7287 35.4085 25.7104 35.4401 25.6904 35.4701C25.6221 35.5709 25.2365 36.0831 24.3604 36.2421C23.5743 36.3845 22.6424 36.2005 21.5781 35.6941ZM24.3488 34.4858C24.3488 34.4858 24.3488 34.4858 24.3479 34.4866C24.3488 34.4866 24.3496 34.4858 24.3488 34.4858Z" fill="#B0E645"/>
<path d="M28.1863 49.8716L30.0528 41.5506L30.0424 41.5483L28.1863 49.8716ZM22.7465 44.1461L14.8663 47.406L14.8669 47.4074L22.7465 44.1461ZM19.3962 34.1193L11.1726 36.3768L11.173 36.3782L19.3962 34.1193ZM19.7218 33.2166L14.8436 26.2218L14.8321 26.2299L14.8206 26.2379L19.7218 33.2166ZM20.682 33.2199L25.6186 26.2663L25.6124 26.2619L25.6062 26.2575L20.682 33.2199ZM24.243 34.5565L27.7811 42.3158L34.5343 39.2364L32.4162 32.1229L24.243 34.5565ZM20.637 31.3736L16.0177 38.542L16.0195 38.5431L20.637 31.3736ZM20.0449 29.9962L28.4231 31.5865L28.424 31.5818L20.0449 29.9962ZM21.1034 28.926L19.4291 20.5642L19.4161 20.5668L21.1034 28.926ZM24.0748 27.2621L29.6957 33.6753L29.8334 33.5546L29.9658 33.4281L24.0748 27.2621ZM24.1248 26.8915L16.4973 30.7053L16.5037 30.7181L16.5101 30.7309L24.1248 26.8915ZM23.7217 26.6825L22.302 18.2737L22.2847 18.2766L22.2673 18.2796L23.7217 26.6825ZM21.5206 27.1997L19.3522 18.9522L19.3442 18.9543L21.5206 27.1997ZM17.8505 27.6302L14.7885 35.5893L14.7892 35.5896L17.8505 27.6302ZM16.6704 26.1129L8.20711 27.1595L8.20802 27.1668L16.6704 26.1129ZM17.4616 24.3232L22.3587 31.3047L22.3632 31.3015L17.4616 24.3232ZM20.4605 21.027L28.9803 21.3964L28.9808 21.3847L20.4605 21.027ZM20.343 20.6856L25.8024 14.1343L25.4662 13.8542L25.1031 13.6099L20.343 20.6856ZM20.2464 20.6031L26.341 14.6382L26.3035 14.6L26.2656 14.5621L20.2464 20.6031ZM16.6405 22.1671L22.0577 28.7532L22.0587 28.7524L16.6405 22.1671ZM14.8983 22.4269L11.6433 30.3091L11.6502 30.3119L14.8983 22.4269ZM13.8581 21.0345L22.343 20.1803L22.3428 20.1787L13.8581 21.0345ZM13.9447 17.8741L22.3956 19.0169L22.3983 18.997L22.4009 18.977L13.9447 17.8741ZM13.9022 17.7791L9.2354 24.9166L9.2719 24.9405L9.30864 24.964L13.9022 17.7791ZM13.8131 17.7783L18.2559 25.0574L18.3592 24.9943L18.4607 24.9284L13.8131 17.7783ZM12.3341 20.5823L3.93344 19.1152L3.93312 19.117L12.3341 20.5823ZM11.6245 21.2652L12.704 29.7244L12.74 29.7198L12.7759 29.7149L11.6245 21.2652ZM10.7601 20.7947L18.4753 17.1617L18.4735 17.1577L10.7601 20.7947ZM8.26923 12.6133L16.7477 11.6978L16.7477 11.6973L8.26923 12.6133ZM13.6058 2.18926L17.9275 9.54084L17.9277 9.5407L13.6058 2.18926ZM37.7742 8.89406L31.5505 14.724L31.5506 14.7242L37.7742 8.89406ZM44.9679 26.5376L36.4466 26.2032L36.4466 26.2052L44.9679 26.5376ZM34.5172 47.7163L40.267 54.0141L40.2709 54.0106L34.5172 47.7163ZM24.2863 43.5091L32.1662 40.2485L32.1655 40.247L24.2863 43.5091ZM28.5494 48.246L26.6929 56.5693L26.7046 56.5719L28.5494 48.246ZM33.3954 46.4855L39.1401 52.7879L39.1428 52.7855L33.3954 46.4855ZM43.3064 26.4693L34.7852 26.1352L34.7852 26.1355L43.3064 26.4693ZM36.5617 10.03L42.7855 4.2002L42.785 4.19957L36.5617 10.03ZM14.4519 3.62249L18.7742 10.9737L18.7742 10.9737L14.4519 3.62249ZM9.92732 12.4318L18.4058 11.5161L18.4057 11.5152L9.92732 12.4318ZM11.4022 18.0731L3.46045 21.1799L10.3198 38.7142L18.9754 21.9935L11.4022 18.0731ZM12.9479 16.3542L8.52511 9.06295L8.51903 9.06664L8.51295 9.07034L12.9479 16.3542ZM14.815 16.3842L19.4854 9.24906L19.4801 9.24559L14.815 16.3842ZM15.5961 18.0964L7.14597 16.9484L7.14574 16.9501L15.5961 18.0964ZM15.5162 20.8671L7.03146 21.7231L8.60724 37.3422L20.8524 27.519L15.5162 20.8671ZM21.384 19.3839L15.5069 25.5631L15.7585 25.8024L16.0287 26.0204L21.384 19.3839ZM22.1286 20.9687L30.6557 20.8629L30.6556 20.8583L22.1286 20.9687ZM18.421 25.6856L23.3075 32.6746L23.3147 32.6695L23.3219 32.6645L18.421 25.6856ZM18.3252 25.9088L9.85361 26.8863L9.85583 26.9056L9.85814 26.9249L18.3252 25.9088ZM18.4493 26.0754L15.4249 34.0489L15.5449 34.0944L15.6663 34.1363L18.4493 26.0754ZM21.0976 25.5899L23.2734 33.8354L23.2739 33.8353L21.0976 25.5899ZM23.4394 25.0419L24.8874 33.4459L24.8936 33.4448L23.4394 25.0419ZM25.6138 26.1429L33.2302 22.307L33.2287 22.3042L25.6138 26.1429ZM25.2174 28.4755L31.0986 34.6508L31.1022 34.6474L25.2174 28.4755ZM22.1019 30.3426L18.8482 22.4599L4.13051 28.5349L17.3434 37.4194L22.1019 30.3426ZM25.7454 35.376L33.3335 39.2674L33.3524 39.2306L33.3709 39.1936L25.7454 35.376ZM25.6904 35.4701L32.7498 40.2542L32.768 40.2274L32.786 40.2005L25.6904 35.4701ZM24.3604 36.2421L25.8805 44.6334L25.8838 44.6327L24.3604 36.2421ZM24.3488 34.4858L21.1507 42.3912L22.6892 43.0136H24.3488V34.4858ZM24.3479 34.4866L18.3179 28.4565L3.76003 43.0144H24.3479V34.4866ZM29.3539 41.4721C29.5634 41.4721 29.8016 41.4942 30.0528 41.5506L26.3197 58.1926C27.3654 58.4272 28.3831 58.5276 29.3539 58.5276V41.4721ZM30.0424 41.5483C30.3918 41.6262 30.6989 41.7564 30.9418 41.9009C31.177 42.0408 31.297 42.161 31.3191 42.1842C31.3374 42.2035 31.2663 42.1325 31.1331 41.9146C31.0001 41.6969 30.8243 41.364 30.626 40.8849L14.8669 47.4074C16.6873 51.8056 20.1246 56.8111 26.3301 58.1949L30.0424 41.5483ZM30.6266 40.8863C29.6495 38.5243 28.5673 35.3113 27.6194 31.8605L11.173 36.3782C12.2587 40.3309 13.5566 44.2399 14.8663 47.406L30.6266 40.8863ZM27.6197 31.8619C28.4843 35.0115 27.2653 38.3395 24.623 40.1952L14.8206 26.2379C11.602 28.4984 10.1214 32.5476 11.1726 36.3768L27.6197 31.8619ZM24.6 40.2113C21.9363 42.069 18.4 42.051 15.7578 40.1824L25.6062 26.2575C22.3894 23.9824 18.0852 23.9611 14.8436 26.2218L24.6 40.2113ZM15.7454 40.1736C17.3024 41.2789 18.9656 42.1881 20.7392 42.7022C22.2957 43.1534 24.9838 43.5913 27.7811 42.3158L20.705 26.7973C22.0092 26.2026 23.1584 26.0984 23.859 26.101C24.6084 26.1039 25.1683 26.2284 25.4875 26.3209C26.0989 26.4982 26.166 26.6549 25.6186 26.2663L15.7454 40.1736ZM32.4162 32.1229C31.712 29.7582 30.1352 28.1281 29.3908 27.4013C28.3267 26.3624 26.9626 25.3042 25.2545 24.2041L16.0195 38.5431C16.5283 38.8708 16.8875 39.1295 17.1282 39.3158C17.2477 39.4082 17.3341 39.4798 17.3921 39.5297C17.4503 39.58 17.4763 39.6053 17.476 39.605C17.4756 39.6046 17.4676 39.5968 17.453 39.5815C17.4385 39.5662 17.4162 39.5424 17.3876 39.5099C17.3325 39.4474 17.2415 39.3393 17.1294 39.1854C17.0212 39.0367 16.864 38.8051 16.6937 38.4944C16.5407 38.2152 16.2806 37.698 16.0699 36.9902L32.4162 32.1229ZM25.2563 24.2053C27.7036 25.7823 28.9709 28.7005 28.4231 31.5865L11.6667 28.4059C10.914 32.3712 12.6477 36.3703 16.0177 38.542L25.2563 24.2053ZM28.424 31.5818C27.8795 34.4593 25.6411 36.7099 22.7907 37.2852L19.4161 20.5668C15.4847 21.3604 12.4152 24.4505 11.6658 28.4106L28.424 31.5818ZM22.7777 37.2879C24.1485 37.0134 25.2778 36.4484 25.6075 36.2853C26.1593 36.0125 26.6839 35.7154 27.1024 35.467C27.6554 35.1387 28.879 34.3911 29.6957 33.6753L18.4539 20.849C18.6472 20.6795 18.7973 20.5651 18.8375 20.5345C18.897 20.4892 18.936 20.4613 18.9447 20.4551C18.9623 20.4425 18.9432 20.4565 18.882 20.4971C18.7612 20.5771 18.5841 20.6894 18.3968 20.8005C18.306 20.8544 18.2251 20.9007 18.1579 20.9378C18.1249 20.9561 18.0984 20.9703 18.0784 20.9809C18.0686 20.986 18.061 20.9899 18.0557 20.9926C18.0504 20.9954 18.0479 20.9966 18.0482 20.9964C18.0485 20.9963 18.0524 20.9944 18.0596 20.9909C18.0669 20.9875 18.0787 20.982 18.0948 20.9746C18.1247 20.9611 18.1825 20.9355 18.2643 20.9029C18.3431 20.8714 18.4732 20.8219 18.6446 20.7668C18.8078 20.7145 19.0785 20.6344 19.4291 20.5642L22.7777 37.2879ZM29.9658 33.4281C31.6493 31.8197 32.6056 29.6474 32.6895 27.3828C32.7629 25.3999 32.1561 23.8786 31.7394 23.0522L16.5101 30.7309C16.1434 30.0035 15.5769 28.6051 15.6456 26.7515C15.7247 24.6162 16.631 22.5797 18.1838 21.0962L29.9658 33.4281ZM31.7522 23.0778C31.45 22.4732 30.7093 21.1489 29.2212 19.9994C27.4722 18.6484 25.0124 17.8161 22.302 18.2737L25.1413 35.0913C22.6874 35.5056 20.4142 34.7478 18.7951 33.4972C17.437 32.4481 16.7696 31.2499 16.4973 30.7053L31.7522 23.0778ZM22.2673 18.2796C21.1425 18.4743 19.998 18.7824 19.3522 18.9522L23.6891 35.4472C24.5256 35.2272 24.9151 35.1305 25.176 35.0854L22.2673 18.2796ZM19.3442 18.9543C18.9053 19.0701 18.6036 19.1478 18.3614 19.2049C18.1164 19.2625 18.0492 19.2708 18.0878 19.2651C18.1211 19.2603 18.413 19.2172 18.8662 19.2362C19.3426 19.2561 20.0706 19.3473 20.9118 19.6708L14.7892 35.5896C17.2094 36.5204 19.418 36.3076 20.5557 36.1412C21.7179 35.9713 22.9173 35.6509 23.697 35.4451L19.3442 18.9543ZM20.9125 19.6711C23.2416 20.5672 24.8346 22.6646 25.1328 25.0589L8.20802 27.1668C8.67778 30.9386 11.1735 34.1986 14.7885 35.5893L20.9125 19.6711ZM25.1338 25.0663C25.4311 27.4708 24.386 29.8827 22.3587 31.3047L12.5644 17.3417C9.38796 19.5699 7.73654 23.3542 8.20711 27.1595L25.1338 25.0663ZM22.3632 31.3015C25.647 28.995 28.7885 25.8203 28.9803 21.3964L11.9407 20.6577C12.0254 18.7032 12.7893 17.4451 13.132 16.983C13.4424 16.5646 13.4626 16.7108 12.56 17.3449L22.3632 31.3015ZM28.9808 21.3847C29.1198 18.0738 27.5103 15.5576 25.8024 14.1343L14.8837 27.2368C14.1439 26.6203 13.3405 25.7318 12.7487 24.516C12.137 23.2593 11.8873 21.9278 11.9402 20.6693L28.9808 21.3847ZM25.1031 13.6099C25.2258 13.6924 25.5315 13.9024 25.8901 14.2145C26.0532 14.3564 26.1785 14.4769 26.2522 14.5494C26.3121 14.6084 26.3609 14.6586 26.341 14.6382L14.1519 26.568C14.4018 26.8233 14.8699 27.2815 15.583 27.7613L25.1031 13.6099ZM26.2656 14.5621C23.7091 12.0149 20.6275 11.8448 19.1254 11.9511C17.5638 12.0616 16.2917 12.5288 15.5155 12.8652C13.8932 13.5684 12.4186 14.5975 11.2222 15.5818L22.0587 28.7524C22.5587 28.341 22.6569 28.3586 22.2983 28.514C22.154 28.5766 21.4365 28.8858 20.3292 28.9641C19.2813 29.0383 16.5536 28.9619 14.2273 26.6441L26.2656 14.5621ZM11.2232 15.581C13.1696 13.9801 15.833 13.589 18.1463 14.5419L11.6502 30.3119C15.136 31.7479 19.1353 31.1569 22.0577 28.7532L11.2232 15.581ZM18.1532 14.5448C20.4542 15.495 22.0878 17.6458 22.343 20.1803L5.37319 21.8887C5.75326 25.664 8.18474 28.8809 11.6433 30.3091L18.1532 14.5448ZM22.3428 20.1787C22.3248 20 22.3144 19.6174 22.3956 19.0169L5.49384 16.7312C5.26692 18.4092 5.19817 20.1536 5.37336 21.8904L22.3428 20.1787ZM22.4009 18.977C22.3995 18.9876 22.4652 18.5351 22.4732 17.9779C22.4815 17.394 22.4342 16.5806 22.1866 15.6466C21.625 13.5278 20.2889 11.7407 18.4958 10.5943L9.30864 24.964C7.56637 23.8501 6.2528 22.1008 5.70034 20.0166C5.45733 19.0998 5.41119 18.3029 5.41935 17.7335C5.42713 17.1908 5.49117 16.751 5.48854 16.7711L22.4009 18.977ZM18.5691 10.6416C17.0429 9.64374 14.9925 9.00709 12.7169 9.31155C10.7197 9.57873 9.36987 10.4954 9.16558 10.6282L18.4607 24.9284C18.273 25.0503 16.9461 25.9533 14.9785 26.2165C12.7324 26.517 10.7183 25.8862 9.2354 24.9166L18.5691 10.6416ZM9.37037 10.4992C5.50522 12.8583 4.32768 16.8578 3.93344 19.1152L20.7347 22.0494C20.7475 21.9764 20.7075 22.2877 20.4359 22.8026C20.1609 23.3238 19.519 24.2864 18.2559 25.0574L9.37037 10.4992ZM3.93312 19.117C4.51005 15.8093 7.16189 13.2667 10.4732 12.8155L12.7759 29.7149C16.8084 29.1654 20.0332 26.0715 20.735 22.0476L3.93312 19.117ZM10.5451 12.806C13.7752 12.3938 17.0214 14.0741 18.4753 17.1617L3.04489 24.4277C4.80859 28.1731 8.75598 30.2282 12.704 29.7244L10.5451 12.806ZM18.4735 17.1577C17.685 15.4855 16.9345 13.4276 16.7477 11.6978L-0.209274 13.5289C0.27516 18.015 1.93312 22.0698 3.04675 24.4316L18.4735 17.1577ZM16.7477 11.6973C16.6687 10.9659 17.0406 10.0622 17.9275 9.54084L9.28403 -5.16233C2.78743 -1.34322 -1.02961 5.93616 -0.209221 13.5294L16.7477 11.6973ZM17.9277 9.5407C19.2808 8.74524 20.7054 8.3439 22.3665 8.61656C24.0852 8.89868 27.2141 10.0947 31.5505 14.724L43.998 3.06414C37.8928 -3.45349 31.5686 -7.15679 25.1291 -8.21379C18.632 -9.28026 13.1932 -7.46055 9.28378 -5.16218L17.9277 9.5407ZM31.5506 14.7242C35.2787 18.7039 36.5921 22.4971 36.4466 26.2032L53.4891 26.872C53.8417 17.8864 50.3148 9.8073 43.9978 3.06394L31.5506 14.7242ZM36.4466 26.2052C36.2976 30.0227 34.6486 33.6962 32.6245 36.7331C30.6368 39.7155 28.6728 41.505 28.7635 41.422L40.2709 54.0106C40.7688 53.5554 43.7974 50.7225 46.8168 46.192C49.7999 41.7161 53.1726 34.9864 53.4892 26.87L36.4466 26.2052ZM28.7673 41.4185C28.7454 41.4385 28.6965 41.481 28.6323 41.5285C28.5661 41.5774 28.5166 41.6072 28.4939 41.6193C28.4695 41.6324 28.5194 41.602 28.6462 41.5648C28.7781 41.5261 29.0216 41.4721 29.3539 41.4721V58.5276C35.1036 58.5276 39.1481 55.0357 40.267 54.0141L28.7673 41.4185ZM13.4009 38.1141C14.3194 41.2178 15.3556 44.2314 16.4071 46.7712L32.1655 40.247C31.3965 38.3896 30.5507 35.9617 29.7553 33.2741L13.4009 38.1141ZM16.4065 46.7696C17.844 50.2438 20.7943 55.2536 26.6929 56.5692L30.4059 39.9227C31.6695 40.2046 32.3676 40.862 32.5548 41.07C32.6949 41.2257 32.5053 41.0681 32.1662 40.2485L16.4065 46.7696ZM26.7046 56.5719C30.3045 57.3695 33.3566 56.3668 35.2 55.4743C37.0674 54.5701 38.4354 53.4303 39.1401 52.7879L27.6507 40.183C27.6535 40.1804 27.6417 40.1908 27.6303 40.1991C27.6139 40.2109 27.656 40.1773 27.7672 40.1235C27.9049 40.0568 28.9104 39.5914 30.3941 39.9201L26.7046 56.5719ZM39.1428 52.7855C39.5109 52.4497 42.3912 49.7466 45.2992 45.4195C48.1614 41.1607 51.5211 34.6319 51.8277 26.8031L34.7852 26.1355C34.6513 29.5544 33.1029 32.9904 31.1434 35.9061C29.2298 38.7535 27.3748 40.4346 27.648 40.1854L39.1428 52.7855ZM51.8277 26.8034C52.1628 18.2551 48.7659 10.5848 42.7855 4.2002L30.3378 15.8598C33.7697 19.5236 34.9114 22.9161 34.7852 26.1352L51.8277 26.8034ZM42.785 4.19957C37.0927 -1.8763 31.1895 -5.42568 25.1321 -6.4948C18.9819 -7.58029 13.8316 -5.90544 10.1295 -3.72873L18.7742 10.9737C19.8099 10.3647 20.8698 10.0721 22.1676 10.3012C23.5583 10.5466 26.3411 11.5938 30.3384 15.8604L42.785 4.19957ZM10.1296 -3.72876C4.21265 -0.249792 0.696259 6.38618 1.44893 13.3483L18.4057 11.5152C18.402 11.4808 18.4031 11.4058 18.4596 11.2959C18.5168 11.1846 18.6181 11.0655 18.7742 10.9737L10.1296 -3.72876ZM1.44882 13.3474C1.77408 16.3592 2.6553 19.1217 3.46045 21.1799L19.3439 14.9663C18.8466 13.695 18.5103 12.4834 18.4058 11.5161L1.44882 13.3474ZM18.9754 21.9935C18.7525 22.4242 18.2605 23.1037 17.3828 23.6381L8.51295 9.07034C6.35775 10.3826 4.83308 12.213 3.82895 14.1527L18.9754 21.9935ZM17.3706 23.6455C15.1579 24.9876 12.3389 24.9534 10.1498 23.5228L19.4801 9.24559C16.1518 7.07049 11.902 7.01458 8.52511 9.06295L17.3706 23.6455ZM10.1445 23.5193C7.96739 22.0942 6.79552 19.5279 7.14597 16.9484L24.0463 19.2445C24.5816 15.3042 22.8101 11.4253 19.4854 9.24907L10.1445 23.5193ZM7.14574 16.9501C7.00855 17.9614 6.83233 19.7493 7.03146 21.7231L24.0009 20.0111C24.0013 20.0152 23.9988 19.9912 23.9978 19.9374C23.9968 19.8844 23.9975 19.8163 24.0012 19.7343C24.0087 19.5649 24.0264 19.3913 24.0465 19.2427L7.14574 16.9501ZM20.8524 27.519C21.967 26.6249 21.8122 27.0836 20.6169 27.2594C19.9237 27.3613 18.9838 27.3479 17.9455 27.0113C16.9137 26.6769 16.0978 26.1251 15.5069 25.5631L27.2612 13.2047C24.9936 11.0479 21.7524 9.85348 18.1359 10.3852C15.0502 10.8389 12.3874 12.4444 10.18 14.2152L20.8524 27.519ZM16.0287 26.0204C15.2266 25.3732 13.6359 23.735 13.6015 21.0791L30.6556 20.8583C30.5979 16.402 27.9728 13.7427 26.7394 12.7474L16.0287 26.0204ZM13.6014 21.0745C13.5779 19.18 14.4068 18.0668 14.5189 17.9243C14.5919 17.8313 14.5772 17.8687 14.3975 18.0284C14.2224 18.184 13.9412 18.4111 13.52 18.7068L23.3219 32.6645C24.9268 31.5375 26.596 30.1585 27.9276 28.4646C29.2699 26.757 30.6967 24.1674 30.6557 20.8629L13.6014 21.0745ZM13.5344 18.6967C9.47757 21.5332 9.73775 25.8822 9.85361 26.8863L26.7968 24.9313C26.9026 25.8488 27.1595 29.9813 23.3075 32.6746L13.5344 18.6967ZM9.85814 26.9249C10.0041 28.1412 10.4485 29.6632 11.5263 31.1092C12.6284 32.588 14.0521 33.5281 15.4249 34.0489L21.4737 18.1019C22.774 18.5952 24.1406 19.4937 25.2014 20.9169C26.2377 22.3073 26.6563 23.7598 26.7922 24.8928L9.85814 26.9249ZM15.6663 34.1363C16.9659 34.585 18.0751 34.6195 18.4963 34.6259C19.0412 34.6342 19.5029 34.5949 19.8031 34.5623C20.4053 34.4969 20.9549 34.39 21.3212 34.3127C22.0726 34.1542 22.8605 33.9444 23.2734 33.8354L18.9218 17.3443C18.4194 17.4769 18.058 17.5702 17.8015 17.6243C17.6639 17.6533 17.7449 17.63 17.9607 17.6065C18.0677 17.5949 18.3569 17.5662 18.7556 17.5723C18.962 17.5754 19.2689 17.5887 19.6425 17.638C19.9992 17.6851 20.564 17.7838 21.2322 18.0145L15.6663 34.1363ZM23.2739 33.8353C24.1244 33.6108 24.5572 33.5027 24.8874 33.4459L21.9914 16.6379C20.7942 16.8442 19.6231 17.1592 18.9212 17.3445L23.2739 33.8353ZM24.8936 33.4448C22.0538 33.9362 19.2638 32.491 17.9988 29.9815L33.2287 22.3042C31.1443 18.1691 26.6054 15.8394 21.9852 16.639L24.8936 33.4448ZM17.9974 29.9787C16.7314 27.4651 17.2293 24.309 19.3326 22.3036L31.1022 34.6474C34.4946 31.4128 35.3039 26.4246 33.2302 22.307L17.9974 29.9787ZM19.3361 22.3002C19.4437 22.1978 19.5334 22.1181 19.5924 22.0668C19.6541 22.0131 19.7052 21.9704 19.7415 21.9406C19.8119 21.8827 19.8624 21.8438 19.8825 21.8284C19.9227 21.7977 19.9271 21.7957 19.8866 21.8242C19.8088 21.879 19.6665 21.9754 19.4862 22.0888C19.3063 22.202 19.1309 22.3056 18.9827 22.3866C18.9107 22.4259 18.8586 22.4525 18.8271 22.468C18.7933 22.4845 18.8016 22.4792 18.8482 22.4599L25.3556 38.2253C26.6303 37.6991 27.8235 36.9938 28.5694 36.5245C29.0786 36.2041 30.2666 35.4432 31.0986 34.6508L19.3361 22.3002ZM17.3434 37.4194C17.9306 37.8142 18.297 38.1004 18.504 38.2798C18.7295 38.4753 18.6418 38.4372 18.4389 38.1567C18.2435 37.8865 17.7237 37.0914 17.4984 35.8196C17.2457 34.3928 17.459 32.8784 18.1198 31.5584L33.3709 39.1936C35.6397 34.6619 33.9308 30.473 32.2584 28.1609C30.7583 26.087 28.6676 24.4811 26.8604 23.2659L17.3434 37.4194ZM18.1572 31.4846C18.2712 31.2623 18.4148 31.0098 18.5949 30.7398L32.786 40.2005C33.006 39.8704 33.1862 39.5547 33.3335 39.2674L18.1572 31.4846ZM18.631 30.686C19.3629 29.606 20.7292 28.2342 22.837 27.8515L25.8838 44.6327C29.7439 43.9319 31.8813 41.5358 32.7498 40.2542L18.631 30.686ZM22.8404 27.8509C23.6731 27.7001 24.3338 27.768 24.7225 27.8446C25.1003 27.919 25.2818 28.0125 25.2417 27.9934L17.9145 43.3949C19.8569 44.319 22.677 45.2136 25.8805 44.6334L22.8404 27.8509ZM24.3488 34.4858C27.5518 26.5824 25.2145 26.002 22.8081 26.0983C22.4116 26.1809 21.5098 26.4444 21.0116 26.638C20.3695 26.9111 19.9075 27.2035 19.7529 27.3024C19.381 27.5403 19.1107 27.7558 19.0427 27.8097C18.8503 27.9627 18.7067 28.0911 18.676 28.1185C18.5796 28.2044 18.506 28.274 18.4915 28.2877C18.4435 28.3331 18.4063 28.3693 18.3993 28.3762C18.3754 28.3995 18.3567 28.418 18.3532 28.4214C18.3413 28.4332 18.3319 28.4426 18.3301 28.4443C18.324 28.4504 18.3192 28.4553 18.3179 28.4565L30.378 40.5167C30.3776 40.5171 30.3731 40.5216 30.3672 40.5274C30.3656 40.5291 30.3562 40.5384 30.3443 40.5502C30.3408 40.5536 30.3222 40.572 30.2983 40.5953C30.2912 40.6022 30.2541 40.6384 30.206 40.6838C30.1916 40.6975 30.118 40.7672 30.0216 40.8531C29.9909 40.8804 29.8472 41.0088 29.6548 41.1618C29.5869 41.2158 29.3165 41.4312 28.9446 41.6692C28.7901 41.7681 28.3281 42.0604 27.6859 42.3335C27.1878 42.5271 26.286 42.7906 25.8891 42.8733C23.4831 42.9695 21.1457 42.3892 24.3488 34.4858ZM24.3479 43.0144C26.7559 43.0144 28.8826 42.0098 30.3733 40.522C30.8107 40.0855 31.5169 39.2881 32.072 38.1025C32.6066 36.961 33.3744 34.6043 32.4421 31.7977C31.4404 28.7818 29.1572 27.2432 27.596 26.6003C26.1643 26.0108 24.9254 25.958 24.3488 25.958V43.0136C23.7724 43.0136 22.5336 42.9607 21.102 42.3712C19.541 41.7285 17.2578 40.1899 16.2561 37.1741C15.3239 34.3675 16.0916 32.011 16.6261 30.8695C17.1813 29.684 17.8874 28.8868 18.3247 28.4504C19.8149 26.963 21.9408 25.9588 24.3479 25.9588V43.0144Z" fill="#2F80ED" mask="url(#path-6-inside-3)"/>
</svg>
