<svg width="50" height="50" viewBox="0 0 50 50" fill="none" xmlns="http://www.w3.org/2000/svg">
<g clip-path="url(#clip0)">
<path d="M48.1801 39.1785C48.2786 38.912 48.3306 38.6301 48.3335 38.3452C48.3335 36.9646 47.2141 35.8453 45.8335 35.8453H45.0002V34.859C45.9955 34.507 46.6624 33.5679 46.6669 32.512V32.3688C46.6685 31.7056 46.4048 31.0692 45.934 30.6013L44.1669 28.8341L42.3994 30.6013C41.929 31.0692 41.6649 31.7056 41.667 32.3688V32.512C41.671 33.5679 42.3383 34.507 43.3336 34.859V35.8453H42.5003C41.1193 35.8453 40.0003 36.9646 40.0003 38.3452C40.0028 38.6301 40.0549 38.912 40.1533 39.1785H37.8703C38.1705 38.6744 38.3305 38.0991 38.3337 37.5119C38.3284 32.912 34.6005 29.1841 30.0006 29.1788H29.9078C31.8043 27.3282 32.2153 24.4315 30.9079 22.1265C29.6006 19.8215 26.9037 18.6875 24.3419 19.3649C21.7801 20.0428 19.9971 22.3625 20.0008 25.0122C20.0008 25.1965 20.0114 25.3776 20.028 25.5566C19.9833 25.5057 19.9446 25.4484 19.8991 25.3991L11.5659 17.066C11.0544 16.5606 10.4197 16.1973 9.72513 16.0125C11.5578 14.3711 12.1632 11.756 11.2392 9.47623C10.3147 7.196 8.05931 5.74096 5.60087 5.83902C3.14283 5.93667 1.0099 7.56668 0.270174 9.91323C-0.469963 12.2594 0.341787 14.8179 2.29934 16.3084C0.89516 17.0102 0.00650799 18.4429 0.0012184 20.0123V44.1784H50.0001V39.1785H48.1801ZM43.3336 32.3688C43.3344 32.1483 43.4219 31.9363 43.5777 31.7796L44.1669 31.1904L44.7561 31.7796C44.9115 31.9363 44.9994 32.1483 45.0002 32.3688V32.512C45.0002 32.9726 44.6271 33.3453 44.1669 33.3453C43.7067 33.3453 43.3336 32.9726 43.3336 32.512V32.3688ZM41.667 38.3452C41.667 37.885 42.0401 37.5119 42.5003 37.5119H45.8335C46.2937 37.5119 46.6669 37.885 46.6669 38.3452C46.6669 38.8058 46.2937 39.1785 45.8335 39.1785H42.5003C42.0401 39.1785 41.667 38.8058 41.667 38.3452ZM30.0006 30.8454C33.6805 30.8499 36.663 33.832 36.6671 37.5119C36.6671 38.4327 35.9208 39.1785 35.0004 39.1785H28.3339C27.4135 39.1785 26.6673 38.4327 26.6673 37.5119C26.6673 36.5915 27.4135 35.8453 28.3339 35.8453H33.3338V34.1787H28.3339C27.3765 34.1782 26.4655 34.5904 25.834 35.3098C25.2021 34.5904 24.291 34.1782 23.334 34.1787H18.3341V35.8453H23.334C24.2544 35.8453 25.0007 36.5915 25.0007 37.5119C25.0007 38.4327 24.2544 39.1785 23.334 39.1785H16.6675C15.7471 39.1785 15.0009 38.4327 15.0009 37.5119C15.005 33.832 17.9871 30.8499 21.6674 30.8454H30.0006ZM13.7973 39.1785H10.8343V25.3572L15.3882 29.9116C15.7907 30.3099 16.2924 30.5931 16.8417 30.7315C14.6436 32.2907 13.3367 34.8175 13.3343 37.5119C13.3375 38.0991 13.4974 38.6744 13.7973 39.1785ZM25.834 20.8456C28.135 20.8456 30.0006 22.7112 30.0006 25.0122C30.0006 27.3136 28.135 29.1788 25.834 29.1788C23.5326 29.1788 21.6674 27.3136 21.6674 25.0122C21.6698 22.7124 23.5338 20.8485 25.834 20.8456ZM21.7598 29.1788H21.6674C21.232 29.182 20.7975 29.2194 20.3682 29.2907C20.6123 28.883 20.7613 28.4256 20.804 27.9524C21.0668 28.402 21.3883 28.8142 21.7598 29.1788ZM1.66785 11.6791C1.66785 9.37817 3.53304 7.51257 5.83442 7.51257C8.1354 7.51257 10.001 9.37817 10.001 11.6791C10.001 13.9805 8.1354 15.8457 5.83442 15.8457C3.53426 15.8433 1.67029 13.9793 1.66785 11.6791ZM1.66785 20.0123C1.66785 18.6317 2.7868 17.5123 4.16779 17.5123H8.62001C9.28283 17.5144 9.91759 17.7776 10.3875 18.2452L18.7207 26.5783C19.1557 27.0141 19.2859 27.6692 19.0499 28.238C18.8143 28.8073 18.2593 29.1784 17.6432 29.1788C17.2388 29.18 16.851 29.0197 16.5658 28.7332L10.5902 22.7568C10.3517 22.5183 9.99327 22.4471 9.68199 22.5761C9.37072 22.7051 9.16768 23.0086 9.16768 23.3456V39.1785H1.66785V20.0123ZM48.3335 42.5118H1.66785V40.8452H48.3335V42.5118Z" fill="#2F80ED"/>
</g>
<defs>
<clipPath id="clip0">
<rect width="50" height="50" fill="white"/>
</clipPath>
</defs>
</svg>
