<svg width="50" height="50" viewBox="0 0 50 50" fill="none" xmlns="http://www.w3.org/2000/svg">
<path d="M46.8789 9.41375C46.1562 6.67867 44.0404 4.06903 40.9228 2.06631C37.0817 -0.40374 31.6504 -0.678484 26.7439 1.34809L26.5893 1.41346C26.5027 1.45145 26.4188 1.48944 26.3278 1.52124C25.917 1.66347 25.6016 1.78627 25.3445 1.88609C24.5291 2.20059 24.53 2.20148 23.189 1.80659C19.3593 0.678454 14.4864 -0.448794 10.7442 0.876341C5.68306 2.66969 1.19527 8.60806 2.58225 17.8292C2.74745 18.9229 2.90735 20.0245 3.06901 21.1324C4.22806 29.0955 5.42687 37.329 8.5056 44.7639L8.60896 45.0148C9.37401 46.8789 10.6541 49.9991 12.8838 49.9991H13.0632L13.2284 49.9293C15.2709 49.0644 16.0377 47.1015 16.596 45.6677C16.9732 44.6994 17.3089 43.7144 17.634 42.7612C18.4529 40.3557 19.2268 38.0853 20.6209 36.0445C21.6792 34.4986 24.5344 31.1336 28.1794 33.3051C30.6142 34.7556 31.3774 37.6806 32.116 40.5103C32.3262 41.3168 32.5444 42.1508 32.7971 42.9299C33.866 46.2242 35.2548 49.621 37.451 49.8463C38.5977 49.9646 39.6745 49.1837 40.6207 47.522C42.3504 44.491 43.0934 41.1127 43.8107 37.8458L44.0643 36.6974C44.347 35.4341 44.6615 34.131 44.9822 32.7988C46.7861 25.3003 48.833 16.7992 46.8789 9.41375ZM43.2639 32.3863C42.9406 33.7282 42.6243 35.041 42.3398 36.3122L42.0836 37.4686C41.3946 40.6065 40.6816 43.8505 39.0853 46.6483C38.5482 47.59 37.9819 48.1103 37.6303 48.0909C37.2257 48.0485 36.1073 47.4098 34.4774 42.3866C34.2397 41.6569 34.0383 40.8839 33.8254 40.065C33.0347 37.0384 32.1398 33.6089 29.0832 31.7882C25.7085 29.7811 21.9089 31.032 19.1632 35.048C17.6322 37.2875 16.7833 39.7805 15.9617 42.1914C15.6437 43.1278 15.3141 44.0943 14.9502 45.0263C14.3839 46.4769 13.8547 47.6421 12.731 48.2137C11.7283 47.9637 10.6585 45.3576 10.2442 44.3452L10.1382 44.0881C7.14248 36.8564 5.96046 28.7342 4.81819 20.8797C4.65564 19.7684 4.49574 18.6632 4.33054 17.5677C3.43917 11.64 5.25902 4.69538 11.3352 2.54159C12.3246 2.19176 13.4457 2.04953 14.6189 2.04953C17.3204 2.04953 20.2975 2.79955 22.5909 3.47272C28.2651 6.69633 28.2651 8.09214 28.2422 13.8582L28.2395 15.0217C28.2395 15.5102 28.6344 15.9051 29.1229 15.9051C29.6115 15.9051 30.0064 15.5102 30.0064 15.0217L30.009 13.8644C30.0284 8.80948 30.0214 6.42866 25.985 3.5328H25.9859C26.2271 3.43915 26.5221 3.32431 26.9055 3.19091C27.0363 3.14586 27.1653 3.09108 27.296 3.03366L27.4232 2.97801C31.7988 1.16875 36.6064 1.38961 39.9678 3.55046C42.7135 5.31554 44.5616 7.55767 45.1721 9.86429C47.0105 16.8204 45.0193 25.0901 43.2639 32.3863Z" fill="#2F80ED"/>
</svg>
