<svg width="50" height="50" viewBox="0 0 50 50" fill="none" xmlns="http://www.w3.org/2000/svg">
<path d="M46.3955 9.54164L46.3955 9.54147C45.7136 6.96089 43.6985 4.44365 40.6526 2.48699L40.6524 2.48686C36.9734 0.121045 31.7197 -0.16549 26.9366 1.80946C26.936 1.80971 26.9354 1.80997 26.9348 1.81022L26.7871 1.87265C26.7791 1.87617 26.7709 1.87981 26.7624 1.88357C26.6875 1.91658 26.5935 1.95802 26.4928 1.99324L26.4914 1.99372C26.0969 2.13031 25.7927 2.24843 25.5385 2.34714L25.5255 2.35219L25.5245 2.3526C25.5065 2.35953 25.4887 2.36641 25.4711 2.37323C25.1119 2.51212 24.8184 2.62563 24.4456 2.61203C24.1118 2.59985 23.7203 2.48445 23.1278 2.30982C23.1015 2.30207 23.0748 2.2942 23.0477 2.28622L23.0477 2.28621C21.1415 1.72469 18.9976 1.1702 16.8748 0.917996C14.7481 0.665332 12.6807 0.721037 10.9111 1.34766M46.3955 9.54164L13.0334 49.4689L12.9619 49.4991H12.8838C12.0252 49.4991 11.2782 48.8989 10.6096 47.9233C9.95023 46.9614 9.45759 45.7656 9.07152 44.825L9.07127 44.8244L8.96791 44.5735L8.96756 44.5726C5.91679 37.2053 4.72456 29.0353 3.5638 21.0603L3.56377 21.0602C3.54468 20.9293 3.5256 20.7985 3.50654 20.6678C3.36428 19.6923 3.22252 18.7204 3.07664 17.7546C1.72075 8.73928 6.10417 3.05094 10.9111 1.34766M46.3955 9.54164C48.3111 16.7816 46.3079 25.1505 44.496 32.6818C44.496 32.6819 44.496 32.6819 44.496 32.6819L44.4611 32.8271C44.1527 34.1081 43.8498 35.3664 43.5763 36.5882L43.576 36.5896L43.3225 37.7381L43.3224 37.7386C42.6024 41.0174 41.8723 44.32 40.1864 47.2742L40.1862 47.2746C39.2695 48.8846 38.3434 49.4357 37.5023 49.3489L37.502 49.3489C36.6575 49.2623 35.8727 48.5492 35.1327 47.2862C34.4068 46.0473 33.806 44.4192 33.2727 42.7756C33.0253 42.0127 32.8107 41.193 32.5998 40.3841L32.5998 40.384L32.5935 40.3599C32.2285 38.9615 31.8436 37.487 31.2373 36.1801C30.6235 34.8571 29.7669 33.6688 28.4354 32.8755L28.1794 33.305L28.4353 32.8755C26.4265 31.6788 24.604 32.0131 23.1773 32.8494C21.7809 33.668 20.7522 34.9675 20.2083 35.7621L20.208 35.7625C18.7735 37.8624 17.9808 40.191 17.1681 42.5783L17.1608 42.5998L17.1607 42.6001L17.1574 42.6097C16.8328 43.5615 16.5015 44.5329 16.1301 45.4862L16.1301 45.4862M46.3955 9.54164L16.1301 45.4862M10.9111 1.34766L10.7442 0.876341M10.9111 1.34766L10.7442 0.876341M10.7442 0.876341C14.4864 -0.448794 19.3593 0.678454 23.189 1.80659C24.5282 2.20095 24.5291 2.20059 25.3413 1.88736L25.3445 1.88609L10.7442 0.876341ZM16.1301 45.4862C15.562 46.945 14.8563 48.6968 13.0338 49.4687L16.1301 45.4862ZM43.75 32.5032L43.75 32.5034C43.4265 33.8461 43.1112 35.1548 42.8278 36.4214L42.572 37.5759L42.5718 37.5768L42.5651 37.6073C41.8812 40.7218 41.1547 44.0303 39.5196 46.896C39.2354 47.3944 38.9325 47.8014 38.6366 48.0887C38.4888 48.2323 38.3324 48.3561 38.1707 48.4446C38.013 48.531 37.817 48.602 37.6027 48.5901L37.5904 48.5895L37.5782 48.5882C37.1548 48.5438 36.662 48.2224 36.0986 47.3858C35.5271 46.5371 34.8229 45.0714 34.0019 42.5415L43.75 32.5032ZM43.75 32.5032L43.7702 32.4196C45.5124 25.1782 47.5253 16.8116 45.6555 9.73653L45.6554 9.73637C45.0029 7.27061 43.0499 4.93738 40.2382 3.12987C36.7124 0.863356 31.7273 0.657283 27.2322 2.51595L27.2321 2.51585L27.2228 2.51993L27.0956 2.57558L27.095 2.57587C26.9661 2.63244 26.8529 2.68021 26.7426 2.71819L26.7412 2.71868C26.3946 2.83927 26.1184 2.94514 25.8923 3.0328H24.4304L25.6935 3.93905C27.6531 5.3449 28.5794 6.58325 29.0413 8.04009C29.5165 9.53861 29.5188 11.3095 29.509 13.8625L29.509 13.8633L29.5064 15.0206V15.0217C29.5064 15.2341 29.3353 15.4051 29.1229 15.4051C28.9106 15.4051 28.7397 15.2342 28.7395 15.022C28.7395 15.0219 28.7395 15.0218 28.7395 15.0217L28.7422 13.8602L28.7422 13.8594L28.7426 13.7539C28.7538 10.9734 28.7614 9.07525 28.0038 7.4958C27.2244 5.87096 25.6784 4.65172 22.8379 3.03798L22.7874 3.00931L22.7317 2.99296C20.4333 2.31832 17.3972 1.54953 14.6189 1.54953C13.4086 1.54953 12.2273 1.69584 11.1685 2.07019L11.1682 2.07032C4.75006 4.34531 2.93136 11.6254 3.8361 17.6421L3.83613 17.6423C3.96704 18.5103 4.09458 19.3843 4.22296 20.2639C4.25638 20.4929 4.28985 20.7223 4.32345 20.9521L4.3267 20.9744C5.46616 28.8096 6.65538 36.987 9.67623 44.2795L9.78143 44.5346C9.78146 44.5347 9.7815 44.5347 9.78153 44.5348C9.98789 45.0391 10.3687 45.9686 10.8287 46.8061C11.0584 47.2241 11.3171 47.6367 11.5947 47.9675C11.8594 48.283 12.2003 48.5967 12.61 48.6988L12.7912 48.744M43.75 32.5032L12.7912 48.744M12.7912 48.744L12.9577 48.6594M12.7912 48.744L12.9577 48.6594M12.9577 48.6594C14.2753 47.9892 14.8599 46.6326 15.4159 45.2082C15.7845 44.2643 16.1174 43.2877 16.435 42.3527C17.2598 39.9324 18.0896 37.5045 19.576 35.3302C20.9043 33.3874 22.459 32.1554 24.0435 31.6344C25.6162 31.1174 27.2599 31.2856 28.8273 32.2178C31.6794 33.9167 32.5401 37.1234 33.3415 40.1908M12.9577 48.6594L33.3415 40.1908M33.3415 40.1908C33.5537 41.0069 33.7588 41.7948 34.0019 42.5414L33.3415 40.1908Z" fill="#B0E645" stroke="#2F80ED"/>
</svg>
