<svg width="50" height="50" viewBox="0 0 50 50" fill="none" xmlns="http://www.w3.org/2000/svg">
<mask id="path-1-inside-1" fill="white">
<path d="M3.52413 8.14578C3.56654 8.23776 3.62885 8.31918 3.70655 8.38416L13.4668 16.5419L24.2756 33.0067L24.0059 37.9667C23.8637 38.0839 23.726 38.2086 23.5927 38.341C22.7119 39.2207 22.1405 40.3626 21.9646 41.5949C21.7886 42.8273 22.0176 44.0834 22.6171 45.1744C23.2166 46.2654 24.1541 47.1323 25.2887 47.6446C26.4232 48.1568 27.6935 48.2868 28.9083 48.015C30.1231 47.7432 31.2168 47.0842 32.0248 46.1373C32.8329 45.1903 33.3116 44.0066 33.389 42.7642C33.4663 41.5217 33.1381 40.2878 32.4538 39.2479C31.7694 38.208 30.7659 37.4185 29.5942 36.9981L29.4867 33.0564C29.4867 33.0531 29.4861 33.05 29.486 33.0467C29.486 33.0406 29.4851 33.0346 29.4847 33.0285C29.4831 33.0048 29.4802 32.9813 29.4762 32.9579C29.4752 32.952 29.4744 32.9462 29.4733 32.9403C29.4677 32.9125 29.4604 32.885 29.4515 32.858C29.4501 32.8541 29.4485 32.8504 29.4472 32.8465C29.4385 32.822 29.4284 32.7981 29.4169 32.7748C29.4148 32.7703 29.4127 32.7657 29.4104 32.7612C29.3972 32.7357 29.3825 32.7111 29.3661 32.6876C29.365 32.6857 29.3641 32.6838 29.3628 32.682L21.7944 21.9063L32.7697 29.173C32.7717 29.1744 32.7739 29.1753 32.7759 29.1765C32.801 29.1927 32.8271 29.2073 32.854 29.2201L32.8608 29.2235C32.888 29.236 32.9161 29.2466 32.9448 29.2554L32.9608 29.2601C32.9894 29.2686 33.0186 29.2751 33.0482 29.2797H33.0525C33.0712 29.2822 33.0901 29.2844 33.1093 29.2854L37.0651 29.5067C37.4826 30.6789 38.2696 31.6838 39.3076 32.3701C40.3456 33.0564 41.5784 33.3869 42.8205 33.3119C44.0626 33.2369 45.2467 32.7605 46.1946 31.9543C47.1425 31.1482 47.8029 30.0559 48.0763 28.842C48.3498 27.6281 48.2215 26.3581 47.7108 25.2234C47.2001 24.0887 46.3346 23.1506 45.2446 22.5503C44.1546 21.95 42.8991 21.7201 41.6672 21.895C40.4352 22.07 39.2934 22.6404 38.4136 23.5204C38.2807 23.6533 38.1563 23.7915 38.0392 23.9336L33.0587 24.2044L19.9106 16.5657L7.18751 2.65203C7.09029 2.54564 6.96189 2.47272 6.82071 2.44373L4.02775 1.86951C3.88846 1.8409 3.74372 1.85644 3.61368 1.91395C3.48364 1.97147 3.37477 2.06811 3.30224 2.19041C3.2297 2.31271 3.19711 2.45458 3.209 2.59628C3.22089 2.73797 3.27667 2.87243 3.36857 2.98094L5.84435 5.9031L2.87726 3.67185C2.75563 3.58058 2.60704 3.53246 2.45499 3.53512C2.30295 3.53777 2.15613 3.59105 2.03776 3.68652C1.9194 3.78199 1.83625 3.91421 1.80146 4.06225C1.76668 4.21028 1.78225 4.36569 1.84571 4.50389L3.52413 8.14578ZM32.0294 42.4016C32.0301 43.2675 31.774 44.1142 31.2934 44.8345C30.8128 45.5548 30.1293 46.1164 29.3295 46.4481C28.5297 46.7799 27.6494 46.867 26.8001 46.6984C25.9508 46.5298 25.1705 46.1131 24.5581 45.501C23.9456 44.8888 23.5285 44.1088 23.3595 43.2595C23.1905 42.4103 23.2771 41.53 23.6085 40.73C23.9399 39.93 24.5012 39.2463 25.2212 38.7654C25.9413 38.2844 26.7878 38.0278 27.6537 38.0281C27.9944 38.0283 28.3338 38.068 28.6653 38.1464C28.7229 38.1702 28.7835 38.186 28.8453 38.1932C29.7622 38.4519 30.5694 39.003 31.1442 39.7626C31.719 40.5223 32.0298 41.449 32.0294 42.4016ZM25.4218 37.1117L25.6156 33.5472L28.1372 33.7154L28.2183 36.6892C27.2655 36.596 26.3045 36.7411 25.4218 37.1117ZM19.8952 19.0089L20.0101 18.2047L32.2351 25.3068L32.3703 27.2686L19.8952 19.0089ZM42.4744 23.2054C43.2876 23.2048 44.0849 23.4308 44.7769 23.858C45.4688 24.2852 46.0281 24.8967 46.3919 25.6239C46.7558 26.3512 46.9098 27.1654 46.8368 27.9753C46.7638 28.7853 46.4666 29.5588 45.9785 30.2093C45.4904 30.8597 44.8308 31.3613 44.0736 31.6579C43.3164 31.9544 42.4916 32.0341 41.6916 31.8881C40.8916 31.7421 40.1481 31.3761 39.5445 30.8312C38.9409 30.2862 38.501 29.5839 38.2742 28.803C38.2685 28.7202 38.2477 28.6391 38.2128 28.5638C38.0645 27.9226 38.0628 27.2562 38.2079 26.6143C38.353 25.9724 38.6411 25.3715 39.0508 24.8564C39.4604 24.3413 39.981 23.9253 40.5738 23.6395C41.1666 23.3536 41.8163 23.2052 42.4744 23.2054ZM37.1845 25.3491C36.8172 26.2239 36.6713 27.1758 36.7597 28.1205L33.7881 27.9545L33.6221 25.543L37.1845 25.3491ZM6.32814 3.73826L18.7543 17.3272L18.4809 19.2435C18.4801 19.2487 18.48 19.2539 18.4794 19.2591C18.4779 19.2713 18.4768 19.2835 18.4759 19.2958C18.4753 19.3055 18.475 19.3158 18.4748 19.3259C18.4746 19.3359 18.4748 19.3484 18.4748 19.3596C18.4748 19.3709 18.4759 19.3814 18.4767 19.3924C18.4775 19.4033 18.4783 19.4133 18.4796 19.4236C18.4809 19.434 18.4829 19.4464 18.4849 19.4577C18.4866 19.4675 18.4883 19.4772 18.4904 19.487C18.493 19.4984 18.496 19.5096 18.499 19.5209C18.5018 19.5306 18.5043 19.5404 18.5074 19.5502C18.5106 19.5599 18.5149 19.5714 18.5189 19.5819C18.5229 19.5925 18.5264 19.6014 18.5305 19.6112C18.5346 19.621 18.5394 19.6307 18.5441 19.6398C18.5487 19.6489 18.5538 19.6603 18.5595 19.6704C18.5651 19.6804 18.5693 19.6874 18.5747 19.6959C18.581 19.7061 18.5873 19.7165 18.5942 19.7264C18.5958 19.7286 18.5969 19.7308 18.5984 19.7329L27.4229 32.2975L25.356 32.1596L14.7831 16.0555L15.1317 15.4389C15.2004 15.3172 15.2302 15.1774 15.2171 15.0382C15.2039 14.8991 15.1484 14.7673 15.058 14.6606L10.9196 9.77781C10.8853 9.7233 10.8434 9.67398 10.7951 9.63133L5.69083 3.6073L6.32814 3.73826ZM9.84317 10.6214L13.0664 14.4252L4.70138 7.43377L4.22198 6.39363L9.84317 10.6214Z"/>
</mask>
<path d="M3.52413 8.14578C3.56654 8.23776 3.62885 8.31918 3.70655 8.38416L13.4668 16.5419L24.2756 33.0067L24.0059 37.9667C23.8637 38.0839 23.726 38.2086 23.5927 38.341C22.7119 39.2207 22.1405 40.3626 21.9646 41.5949C21.7886 42.8273 22.0176 44.0834 22.6171 45.1744C23.2166 46.2654 24.1541 47.1323 25.2887 47.6446C26.4232 48.1568 27.6935 48.2868 28.9083 48.015C30.1231 47.7432 31.2168 47.0842 32.0248 46.1373C32.8329 45.1903 33.3116 44.0066 33.389 42.7642C33.4663 41.5217 33.1381 40.2878 32.4538 39.2479C31.7694 38.208 30.7659 37.4185 29.5942 36.9981L29.4867 33.0564C29.4867 33.0531 29.4861 33.05 29.486 33.0467C29.486 33.0406 29.4851 33.0346 29.4847 33.0285C29.4831 33.0048 29.4802 32.9813 29.4762 32.9579C29.4752 32.952 29.4744 32.9462 29.4733 32.9403C29.4677 32.9125 29.4604 32.885 29.4515 32.858C29.4501 32.8541 29.4485 32.8504 29.4472 32.8465C29.4385 32.822 29.4284 32.7981 29.4169 32.7748C29.4148 32.7703 29.4127 32.7657 29.4104 32.7612C29.3972 32.7357 29.3825 32.7111 29.3661 32.6876C29.365 32.6857 29.3641 32.6838 29.3628 32.682L21.7944 21.9063L32.7697 29.173C32.7717 29.1744 32.7739 29.1753 32.7759 29.1765C32.801 29.1927 32.8271 29.2073 32.854 29.2201L32.8608 29.2235C32.888 29.236 32.9161 29.2466 32.9448 29.2554L32.9608 29.2601C32.9894 29.2686 33.0186 29.2751 33.0482 29.2797H33.0525C33.0712 29.2822 33.0901 29.2844 33.1093 29.2854L37.0651 29.5067C37.4826 30.6789 38.2696 31.6838 39.3076 32.3701C40.3456 33.0564 41.5784 33.3869 42.8205 33.3119C44.0626 33.2369 45.2467 32.7605 46.1946 31.9543C47.1425 31.1482 47.8029 30.0559 48.0763 28.842C48.3498 27.6281 48.2215 26.3581 47.7108 25.2234C47.2001 24.0887 46.3346 23.1506 45.2446 22.5503C44.1546 21.95 42.8991 21.7201 41.6672 21.895C40.4352 22.07 39.2934 22.6404 38.4136 23.5204C38.2807 23.6533 38.1563 23.7915 38.0392 23.9336L33.0587 24.2044L19.9106 16.5657L7.18751 2.65203C7.09029 2.54564 6.96189 2.47272 6.82071 2.44373L4.02775 1.86951C3.88846 1.8409 3.74372 1.85644 3.61368 1.91395C3.48364 1.97147 3.37477 2.06811 3.30224 2.19041C3.2297 2.31271 3.19711 2.45458 3.209 2.59628C3.22089 2.73797 3.27667 2.87243 3.36857 2.98094L5.84435 5.9031L2.87726 3.67185C2.75563 3.58058 2.60704 3.53246 2.45499 3.53512C2.30295 3.53777 2.15613 3.59105 2.03776 3.68652C1.9194 3.78199 1.83625 3.91421 1.80146 4.06225C1.76668 4.21028 1.78225 4.36569 1.84571 4.50389L3.52413 8.14578ZM32.0294 42.4016C32.0301 43.2675 31.774 44.1142 31.2934 44.8345C30.8128 45.5548 30.1293 46.1164 29.3295 46.4481C28.5297 46.7799 27.6494 46.867 26.8001 46.6984C25.9508 46.5298 25.1705 46.1131 24.5581 45.501C23.9456 44.8888 23.5285 44.1088 23.3595 43.2595C23.1905 42.4103 23.2771 41.53 23.6085 40.73C23.9399 39.93 24.5012 39.2463 25.2212 38.7654C25.9413 38.2844 26.7878 38.0278 27.6537 38.0281C27.9944 38.0283 28.3338 38.068 28.6653 38.1464C28.7229 38.1702 28.7835 38.186 28.8453 38.1932C29.7622 38.4519 30.5694 39.003 31.1442 39.7626C31.719 40.5223 32.0298 41.449 32.0294 42.4016ZM25.4218 37.1117L25.6156 33.5472L28.1372 33.7154L28.2183 36.6892C27.2655 36.596 26.3045 36.7411 25.4218 37.1117ZM19.8952 19.0089L20.0101 18.2047L32.2351 25.3068L32.3703 27.2686L19.8952 19.0089ZM42.4744 23.2054C43.2876 23.2048 44.0849 23.4308 44.7769 23.858C45.4688 24.2852 46.0281 24.8967 46.3919 25.6239C46.7558 26.3512 46.9098 27.1654 46.8368 27.9753C46.7638 28.7853 46.4666 29.5588 45.9785 30.2093C45.4904 30.8597 44.8308 31.3613 44.0736 31.6579C43.3164 31.9544 42.4916 32.0341 41.6916 31.8881C40.8916 31.7421 40.1481 31.3761 39.5445 30.8312C38.9409 30.2862 38.501 29.5839 38.2742 28.803C38.2685 28.7202 38.2477 28.6391 38.2128 28.5638C38.0645 27.9226 38.0628 27.2562 38.2079 26.6143C38.353 25.9724 38.6411 25.3715 39.0508 24.8564C39.4604 24.3413 39.981 23.9253 40.5738 23.6395C41.1666 23.3536 41.8163 23.2052 42.4744 23.2054ZM37.1845 25.3491C36.8172 26.2239 36.6713 27.1758 36.7597 28.1205L33.7881 27.9545L33.6221 25.543L37.1845 25.3491ZM6.32814 3.73826L18.7543 17.3272L18.4809 19.2435C18.4801 19.2487 18.48 19.2539 18.4794 19.2591C18.4779 19.2713 18.4768 19.2835 18.4759 19.2958C18.4753 19.3055 18.475 19.3158 18.4748 19.3259C18.4746 19.3359 18.4748 19.3484 18.4748 19.3596C18.4748 19.3709 18.4759 19.3814 18.4767 19.3924C18.4775 19.4033 18.4783 19.4133 18.4796 19.4236C18.4809 19.434 18.4829 19.4464 18.4849 19.4577C18.4866 19.4675 18.4883 19.4772 18.4904 19.487C18.493 19.4984 18.496 19.5096 18.499 19.5209C18.5018 19.5306 18.5043 19.5404 18.5074 19.5502C18.5106 19.5599 18.5149 19.5714 18.5189 19.5819C18.5229 19.5925 18.5264 19.6014 18.5305 19.6112C18.5346 19.621 18.5394 19.6307 18.5441 19.6398C18.5487 19.6489 18.5538 19.6603 18.5595 19.6704C18.5651 19.6804 18.5693 19.6874 18.5747 19.6959C18.581 19.7061 18.5873 19.7165 18.5942 19.7264C18.5958 19.7286 18.5969 19.7308 18.5984 19.7329L27.4229 32.2975L25.356 32.1596L14.7831 16.0555L15.1317 15.4389C15.2004 15.3172 15.2302 15.1774 15.2171 15.0382C15.2039 14.8991 15.1484 14.7673 15.058 14.6606L10.9196 9.77781C10.8853 9.7233 10.8434 9.67398 10.7951 9.63133L5.69083 3.6073L6.32814 3.73826ZM9.84317 10.6214L13.0664 14.4252L4.70138 7.43377L4.22198 6.39363L9.84317 10.6214Z" fill="#B0E645" stroke="#2F80ED" stroke-width="2" mask="url(#path-1-inside-1)"/>
<path d="M24.8797 41.85C24.9888 41.3014 25.2581 40.7975 25.6536 40.402C26.1845 39.8724 26.9038 39.575 27.6537 39.575C28.4037 39.575 29.123 39.8724 29.6539 40.402C30.0493 40.7976 30.3186 41.3014 30.4277 41.85C30.5368 42.3986 30.4808 42.9673 30.2667 43.4841C30.0527 44.0009 29.6901 44.4426 29.225 44.7534C28.7599 45.0641 28.2131 45.23 27.6537 45.23C27.0943 45.23 26.5475 45.0641 26.0824 44.7534C25.6173 44.4426 25.2548 44.0009 25.0407 43.4841C24.8266 42.9673 24.7706 42.3986 24.8797 41.85ZM28.1341 44.8149C28.6108 44.7203 29.0487 44.4866 29.3927 44.1433C29.623 43.9158 29.8059 43.6448 29.9307 43.3461C30.0558 43.047 30.1202 42.726 30.1202 42.4018C30.1202 42.0775 30.0558 41.7565 29.9307 41.4574C29.8058 41.1587 29.623 40.8878 29.3927 40.6603C29.0487 40.317 28.6108 40.0833 28.1341 39.9886C27.6569 39.8939 27.1624 39.9427 26.7129 40.129C26.2635 40.3153 25.8794 40.6306 25.6092 41.0352C25.3389 41.4397 25.1947 41.9153 25.1947 42.4018C25.1947 42.8883 25.3389 43.3639 25.6092 43.7684C25.8794 44.1729 26.2635 44.4883 26.7129 44.6745C27.1624 44.8608 27.6569 44.9097 28.1341 44.8149Z" fill="#B0E645" stroke="#2F80ED"/>
<path d="M40.4975 29.5579L40.4975 29.5579L40.4952 29.5556C40.2306 29.2945 40.0206 28.9835 39.8772 28.6405L39.4159 28.8334L39.8772 28.6405C39.7338 28.2976 39.66 27.9296 39.66 27.5579C39.66 27.1862 39.7338 26.8183 39.8772 26.4753C40.0206 26.1324 40.2306 25.8214 40.4952 25.5603L40.4952 25.5603L40.4975 25.558C40.893 25.1624 41.397 24.8931 41.9456 24.784C42.4943 24.6748 43.063 24.7308 43.5798 24.9449C44.0966 25.159 44.5383 25.5215 44.8491 25.9866C45.1598 26.4517 45.3257 26.9986 45.3257 27.5579C45.3257 28.1173 45.1598 28.6641 44.8491 29.1293C44.5383 29.5944 44.0966 29.9569 43.5798 30.171C43.063 30.385 42.4943 30.441 41.9456 30.3319C41.397 30.2228 40.8931 29.9534 40.4975 29.5579ZM42.0174 25.144C41.5402 25.239 41.1019 25.4732 40.7577 25.8171C40.5284 26.0452 40.3464 26.3163 40.2221 26.6149C40.0978 26.9137 40.0338 27.2342 40.0338 27.5579C40.0338 27.8816 40.0978 28.2021 40.2221 28.501C40.3463 28.7994 40.5281 29.0703 40.7572 29.2982C41.1014 29.6424 41.5399 29.8769 42.0174 29.9719C42.4948 30.0668 42.9897 30.0181 43.4394 29.8318C43.8892 29.6456 44.2736 29.3301 44.544 28.9254C44.8145 28.5206 44.9589 28.0447 44.9589 27.5579C44.9589 27.0711 44.8145 26.5953 44.544 26.1905C44.2736 25.7858 43.8892 25.4703 43.4394 25.284C42.9897 25.0978 42.4948 25.049 42.0174 25.144Z" fill="#B0E645" stroke="#2F80ED"/>
</svg>
