<svg width="50" height="50" viewBox="0 0 50 50" fill="none" xmlns="http://www.w3.org/2000/svg">
<g clip-path="url(#clip0)">
<mask id="path-1-inside-1" fill="white">
<path d="M44.3205 20.2002C43.8031 19.3806 43.4666 18.4601 43.3334 17.5C43.3334 15.6361 42.0474 14.0071 39.4253 12.5391C40.6869 11.2869 41.6667 10.0741 41.6667 8.3333C41.6667 2.9207 36.5144 0 31.6667 0C28.2504 0 27.5602 2.4377 27.0565 4.21797C26.5536 5.99531 26.246 6.6667 25.0001 6.6667C23.7542 6.6667 23.4466 5.99531 22.9436 4.21797C22.4397 2.4377 21.7497 0 18.3333 0C13.4854 0 8.33329 2.9207 8.33329 8.3333C8.33329 10.0741 9.31308 11.2869 10.5747 12.5391C7.95263 14.0071 6.6666 15.6361 6.6666 17.5C6.53329 18.4601 6.19677 19.3806 5.67949 20.2002C4.13486 22.9357 3.32646 26.0252 3.33329 29.1667C3.329 31.4547 3.89628 33.7075 4.98369 35.7207C5.4582 36.5174 5.74853 37.4101 5.8333 38.3334C5.8333 41.1459 8.08994 50.0001 13.3333 50.0001C15.1475 49.9371 16.9394 49.5808 18.6397 48.9449C19.0219 49.5965 19.7198 49.9978 20.4753 50.0001H29.5248C30.2802 49.9978 30.978 49.5965 31.3601 48.9448C33.0603 49.5808 34.8524 49.9371 36.6667 50.0001C41.91 50.0001 44.1667 41.1459 44.1667 38.3334C44.2515 37.4101 44.5418 36.5174 45.0163 35.7207C46.1037 33.7076 46.671 31.4548 46.6667 29.1667C46.6734 26.0252 45.865 22.9357 44.3205 20.2002ZM9.99999 8.3333C9.99999 4.00303 14.2936 1.6666 18.3333 1.6666C20.389 1.6666 20.7967 2.75264 21.3394 4.67197C21.7773 6.21709 22.3763 8.3333 25 8.3333C27.6237 8.3333 28.2226 6.21699 28.6604 4.67197C29.2033 2.75264 29.6109 1.6666 31.6666 1.6666C35.7063 1.6666 39.9999 4.00303 39.9999 8.3333C39.9999 9.69316 39.0177 10.6335 37.5316 12.0564L37.4438 12.1409L37.443 12.1415C37.2816 12.296 37.1128 12.4588 36.9406 12.626L36.94 12.6266L36.9397 12.6269C36.5126 13.0417 36.057 13.5006 35.5899 14.0183L35.5874 14.0212C35.4327 14.1927 35.2771 14.3712 35.1208 14.5565L35.0778 14.6084L35.063 14.6262C34.9816 14.7231 34.9002 14.8196 34.8192 14.9199C34.7848 14.9628 34.7504 15.0076 34.7159 15.0513C34.5862 15.2146 34.4573 15.3825 34.3292 15.555L34.311 15.58C33.692 16.4171 33.1442 17.3047 32.6737 18.2335C32.6554 18.2193 32.6318 18.2043 32.613 18.19C32.4628 18.0764 32.3043 17.9606 32.1272 17.8424C32.1081 17.8295 32.0863 17.8168 32.0668 17.8039C31.9011 17.6947 31.7215 17.5852 31.5326 17.476C31.4799 17.4454 31.4283 17.4155 31.3738 17.3852C31.1609 17.2665 30.9364 17.1496 30.6953 17.0361C30.6537 17.0166 30.6091 16.9981 30.5666 16.9788C30.3466 16.8783 30.1149 16.7818 29.8716 16.6893C29.8147 16.6676 29.7601 16.6454 29.702 16.6241C29.4239 16.5229 29.1311 16.429 28.8237 16.3424C28.7582 16.3239 28.6902 16.3075 28.6234 16.2898C28.3352 16.2138 28.0358 16.145 27.7227 16.0856C27.6748 16.0766 27.6301 16.0657 27.5817 16.057C27.2348 15.9951 26.8692 15.9476 26.4915 15.9104C26.4042 15.9018 26.3156 15.8948 26.2266 15.8877C25.8321 15.856 25.4271 15.8336 24.9998 15.8336C24.5725 15.8336 24.1675 15.856 23.7729 15.8876C23.684 15.8947 23.5953 15.9017 23.508 15.9103C23.1303 15.9475 22.7648 15.995 22.4178 16.0569C22.3694 16.0656 22.3247 16.0765 22.2768 16.0855C21.9635 16.145 21.6641 16.2138 21.3758 16.2898C21.3091 16.3074 21.2414 16.3238 21.1761 16.3422C20.8686 16.4286 20.5758 16.5226 20.2975 16.624C20.2393 16.6452 20.1848 16.6674 20.1279 16.6892C19.8851 16.7817 19.6533 16.8783 19.4329 16.9787C19.3905 16.998 19.3458 17.0165 19.3042 17.036C19.0631 17.1496 18.8386 17.2664 18.6257 17.3851C18.5712 17.4154 18.5197 17.4453 18.467 17.4758C18.2776 17.5854 18.0976 17.6951 17.9315 17.8046C17.9125 17.8171 17.8915 17.8295 17.8727 17.842C17.6956 17.9604 17.5368 18.0762 17.3865 18.1899C17.3676 18.2043 17.3435 18.2197 17.3251 18.234C16.9752 17.5443 16.5827 16.8771 16.15 16.2363L16.1266 16.2018C16.0028 16.0197 15.8781 15.8426 15.7522 15.6702C15.7058 15.6062 15.6595 15.5425 15.6128 15.48C15.5376 15.3797 15.462 15.2821 15.3862 15.185C15.2991 15.0729 15.2125 14.961 15.1254 14.8537L15.1185 14.8454C14.4772 14.0655 13.7898 13.3248 13.06 12.6271L13.0596 12.6268L13.059 12.6262C12.8868 12.459 12.718 12.2962 12.5566 12.1417L12.468 12.0566C10.9822 10.6335 9.99999 9.69316 9.99999 8.3333ZM31.9619 19.8015C31.457 21.0638 31.0604 22.3667 30.7765 23.6962C30.0035 23.3496 29.1988 23.0786 28.3737 22.887C28.3316 22.8771 28.2903 22.8666 28.2477 22.8569C28.0635 22.8155 27.8744 22.7781 27.6811 22.743C27.5797 22.7243 27.4766 22.7072 27.3726 22.6904C27.2082 22.6643 27.0429 22.6394 26.8723 22.6182C26.7789 22.6065 26.6845 22.5962 26.5892 22.5861C26.5307 22.58 26.4717 22.5763 26.4131 22.5708L26.3768 22.5677C26.2435 22.5558 26.1131 22.5415 25.9763 22.5329C25.6598 22.5128 25.3356 22.5 25 22.5C24.6643 22.5 24.3402 22.5127 24.0236 22.5329C23.8868 22.5415 23.7563 22.5558 23.623 22.5677L23.5868 22.5708C23.5494 22.5743 23.5107 22.5727 23.4734 22.5765C23.4521 22.5786 23.432 22.5839 23.4108 22.586C23.3155 22.5961 23.221 22.6063 23.1276 22.6181C22.957 22.6392 22.7917 22.6641 22.6273 22.6903C22.5232 22.7071 22.4201 22.7241 22.3187 22.7429C22.1255 22.778 21.9364 22.8153 21.7522 22.8568C21.7097 22.8665 21.6684 22.877 21.6262 22.8869C20.8011 23.0785 19.9964 23.3495 19.2234 23.6961C18.9395 22.3666 18.5429 21.0638 18.0377 19.8016C18.1735 19.6854 18.3269 19.5618 18.5029 19.4329C18.5449 19.4021 18.5978 19.3698 18.6422 19.3386C18.7909 19.2339 18.9484 19.1279 19.1236 19.0211C19.2047 18.9717 19.2976 18.923 19.3844 18.8738C19.5429 18.7841 19.7076 18.695 19.8855 18.6079C19.9937 18.5549 20.1104 18.5042 20.2259 18.4529C20.4068 18.3728 20.5971 18.2955 20.7965 18.2214C20.9272 18.1728 21.0618 18.1257 21.2003 18.0804C21.4129 18.011 21.6394 17.9489 21.871 17.8894C22.0178 17.8517 22.1624 17.8129 22.3168 17.7798C22.5809 17.7232 22.8644 17.6803 23.1514 17.6396C23.2956 17.6192 23.4318 17.593 23.5818 17.5771C24.5244 17.4741 25.4754 17.4741 26.418 17.5771C26.568 17.593 26.7042 17.6192 26.8484 17.6396C27.1353 17.6803 27.4189 17.7232 27.683 17.7798C27.8374 17.8129 27.982 17.8516 28.1288 17.8894C28.3603 17.9489 28.5869 18.011 28.7995 18.0804C28.9383 18.1257 29.0728 18.1727 29.2033 18.2214C29.4025 18.2955 29.5927 18.3728 29.7739 18.4529C29.8893 18.5042 30.006 18.5549 30.1142 18.6079C30.2922 18.695 30.4569 18.7841 30.6154 18.8738C30.7022 18.923 30.7951 18.9717 30.8762 19.0211C31.0514 19.1279 31.2089 19.2339 31.3576 19.3386C31.4019 19.3698 31.4549 19.4021 31.4969 19.4329C31.6728 19.5618 31.8262 19.6854 31.9619 19.8015ZM30 47.8585C29.9995 48.1207 29.7869 48.3331 29.5247 48.3333H20.4752C20.2126 48.3327 20 48.1198 19.9999 47.8572V45.2522C20.0855 45.2722 20.1716 45.2855 20.2572 45.3045C20.4256 45.3416 20.5939 45.3738 20.7625 45.407C21.0631 45.466 21.3638 45.5189 21.6644 45.5657C21.8461 45.5938 22.0276 45.621 22.2093 45.6445C22.5006 45.6821 22.792 45.7112 23.0833 45.737C23.2672 45.7534 23.4507 45.773 23.6345 45.7848C23.9663 45.8057 24.298 45.8145 24.6298 45.8201C24.753 45.8223 24.8768 45.8333 24.9999 45.8333C25.1229 45.8333 25.2467 45.8224 25.37 45.8202C25.7018 45.8146 26.0335 45.8058 26.3653 45.7849C26.549 45.7732 26.7325 45.7535 26.9165 45.7371C27.2078 45.7113 27.4992 45.6821 27.7905 45.6446C27.9722 45.6211 28.1537 45.5939 28.3353 45.5658C28.6362 45.5194 28.9369 45.4665 29.2373 45.407C29.4059 45.3739 29.5742 45.3416 29.7426 45.3045C29.8282 45.2856 29.9142 45.2722 29.9999 45.2522V47.8585H30ZM30 43.5254C29.8488 43.5634 29.6978 43.6027 29.5465 43.6372C29.3658 43.6784 29.1852 43.7199 29.0045 43.7562C28.7266 43.812 28.4482 43.8588 28.1699 43.9028C28.0054 43.9289 27.8408 43.9581 27.6762 43.9802C27.3561 44.0229 27.0358 44.0538 26.7154 44.0812C26.5921 44.0917 26.4689 44.1075 26.3457 44.1158C25.4495 44.176 24.5504 44.176 23.6542 44.1158C23.5309 44.1075 23.4077 44.0917 23.2845 44.0812C22.9642 44.0537 22.6438 44.0229 22.3237 43.9802C22.1591 43.9582 21.9945 43.929 21.83 43.9028C21.5517 43.8587 21.2733 43.812 20.9954 43.7562C20.8146 43.7199 20.6341 43.6784 20.4534 43.6372C20.302 43.6027 20.1511 43.5634 19.9999 43.5254V40.791C20.0099 40.7947 20.0203 40.7972 20.0302 40.8009C20.7589 41.0703 21.5095 41.2762 22.2737 41.4162C22.3791 41.4358 22.4852 41.453 22.5916 41.4703C22.8702 41.5154 23.1584 41.552 23.4551 41.5819C23.5672 41.5933 23.678 41.6074 23.7911 41.6162C24.1807 41.6466 24.5808 41.6667 24.9999 41.6667C25.419 41.6667 25.819 41.6465 26.2084 41.6161C26.3222 41.6072 26.4338 41.5931 26.5468 41.5816C26.8419 41.5518 27.1286 41.5154 27.4061 41.4705C27.514 41.453 27.6217 41.4355 27.7286 41.4157C28.4893 41.2763 29.2364 41.0715 29.9619 40.8037C29.9743 40.7991 29.9875 40.7961 30 40.7914V43.5254ZM43.514 34.9988C42.9222 36.0168 42.5751 37.1583 42.5 38.3334C42.5 40.7443 40.367 48.3334 36.6667 48.3334C34.9534 48.2646 33.2636 47.9108 31.6667 47.2864V40.746C32.5826 41.5589 33.7762 41.9881 35 41.9447C35.4602 41.9447 35.8333 41.5716 35.8333 41.1114C35.8333 40.6512 35.4602 40.2781 35 40.2781C34.1363 40.3273 33.2921 40.0099 32.6748 39.4038C33.1352 39.0934 33.5627 38.7365 33.9502 38.3388C34.2585 37.9979 34.2328 37.4719 33.8927 37.1627C33.5525 36.8535 33.0265 36.878 32.7165 37.2174C32.0572 37.8548 31.2979 38.38 30.469 38.772L30.4615 38.7746C30.0622 38.9729 29.6514 39.147 29.2312 39.296C29.2136 39.3022 29.1971 39.309 29.1793 39.3152C28.7848 39.4519 28.3833 39.5672 27.9764 39.6607C27.9121 39.6758 27.8493 39.6918 27.7837 39.706C27.3902 39.7914 26.988 39.8565 26.5784 39.9043C26.4908 39.9146 26.4006 39.9225 26.3111 39.9312C25.8811 39.9724 25.4459 40.0002 25.0001 40.0002C24.5474 40.0002 24.105 39.9726 23.6687 39.9301C23.5942 39.9229 23.5188 39.9164 23.4456 39.9081C23.0187 39.8603 22.5945 39.7904 22.1748 39.6989C22.1457 39.6926 22.1178 39.6855 22.089 39.6791C21.2058 39.4798 20.3494 39.1762 19.5379 38.7746C19.5218 38.7666 19.5043 38.7641 19.4878 38.7571C18.6739 38.3677 17.9293 37.8476 17.2836 37.2174C16.9736 36.878 16.4475 36.8536 16.1074 37.1627C15.7674 37.4718 15.7416 37.9979 16.0499 38.3388C16.4374 38.7365 16.8648 39.0934 17.3253 39.4038C16.7079 40.0098 15.8637 40.3271 15 40.2781C14.5397 40.2781 14.1667 40.6513 14.1667 41.1114C14.1667 41.5717 14.5397 41.9447 15 41.9447C16.2238 41.9881 17.4174 41.5589 18.3333 40.746V47.2864C16.7364 47.9108 15.0466 48.2646 13.3333 48.3334C9.6329 48.3334 7.49999 40.7443 7.49999 38.3334C7.4249 37.1583 7.07773 36.0168 6.48603 34.9988C5.50849 33.2105 4.99746 31.2047 4.99999 29.1667C4.99199 26.2866 5.73886 23.4548 7.1663 20.9533C7.81835 19.9085 8.21786 18.7262 8.33329 17.5C8.33329 16.1979 9.47744 14.9687 11.8269 13.7517L11.8966 13.8198L11.8962 13.8204L12.312 14.231C12.4523 14.3716 12.5979 14.5212 12.746 14.6765C12.7929 14.7256 12.8397 14.7772 12.8866 14.8272C12.9923 14.94 13.099 15.0556 13.2072 15.1765C13.257 15.2319 13.3067 15.2891 13.3564 15.3456C13.4784 15.4849 13.6015 15.6289 13.7253 15.7789C13.7557 15.8157 13.7862 15.8521 13.8167 15.8895C14.8139 17.1144 15.6401 18.4689 16.2727 19.9162L16.276 19.9231L16.2778 19.9274C16.4366 20.2901 16.5834 20.6612 16.7226 21.039C16.7637 21.1514 16.8022 21.2701 16.8421 21.3855C16.922 21.6147 16.9983 21.8474 17.0713 22.0832C17.1331 22.2842 17.1937 22.4882 17.2519 22.698C17.2811 22.8028 17.3078 22.9106 17.3357 23.0168C16.6085 22.6636 15.8083 22.4865 15 22.4999C14.5397 22.4999 14.1667 22.8729 14.1667 23.3332C14.1667 23.7935 14.5397 24.1665 15 24.1665C15.7828 24.1309 16.5512 24.3864 17.1567 24.8838C16.7595 25.1638 16.389 25.4798 16.0498 25.8279C15.7415 26.1687 15.7672 26.6948 16.1073 27.004C16.4475 27.3132 16.9735 27.2887 17.2835 26.9493C17.8001 26.4445 18.3837 26.0133 19.0179 25.6677L19.0258 25.6644L19.0307 25.6623C19.7835 25.2381 20.5832 24.9031 21.4137 24.6642L21.4387 24.6565C21.6662 24.5908 21.9061 24.5308 22.154 24.4754C22.1817 24.4691 22.2081 24.4622 22.2361 24.4562C22.2807 24.4466 22.3301 24.4401 22.3754 24.4309C22.5638 24.3923 22.7564 24.3565 22.9559 24.3254C23.0045 24.3179 23.0505 24.3083 23.0997 24.3013C23.1842 24.2892 23.2761 24.2832 23.3626 24.2726C23.5175 24.2534 23.673 24.235 23.8342 24.221C23.8982 24.2155 23.9583 24.2066 24.0234 24.202C24.338 24.1794 24.6631 24.1665 25 24.1665C25.3377 24.1665 25.6636 24.1794 25.9788 24.2021C26.0255 24.2053 26.0686 24.2117 26.1149 24.2154C26.2941 24.2303 26.4657 24.2514 26.6374 24.2726C26.73 24.284 26.8288 24.2902 26.9191 24.3034L26.9559 24.3095C27.1875 24.3438 27.4076 24.3864 27.6245 24.4309C27.6766 24.4415 27.7337 24.4488 27.7849 24.4601C28.9008 24.6982 29.9744 25.1036 30.9692 25.6624L30.9737 25.6643L30.9741 25.6645C30.9914 25.6743 31.0105 25.6786 31.0282 25.6871C31.6466 26.0293 32.2151 26.4546 32.7181 26.9511C33.0282 27.2913 33.5554 27.3157 33.8956 27.0056C34.2358 26.6954 34.2602 26.1683 33.9501 25.828C33.611 25.4801 33.2405 25.1641 32.8434 24.8842C33.4488 24.3866 34.2171 24.131 34.9999 24.1666C35.4601 24.1666 35.8332 23.7936 35.8332 23.3333C35.8332 22.873 35.4601 22.5 34.9999 22.5C34.1915 22.4865 33.3913 22.6636 32.6641 23.0168C32.692 22.9106 32.7186 22.8028 32.7478 22.698C32.806 22.4882 32.8667 22.2841 32.9285 22.0832C33.0016 21.8476 33.0779 21.615 33.1577 21.3855C33.1975 21.2701 33.2361 21.1514 33.2772 21.039C33.4125 20.6714 33.5567 20.3109 33.71 19.9574L33.7341 19.9013C34.0072 19.2796 34.3158 18.6742 34.6586 18.0881C34.6729 18.0636 34.6875 18.0396 34.7019 18.0153C34.8509 17.7636 35.0018 17.5222 35.1551 17.291C35.1695 17.2693 35.1837 17.2468 35.198 17.2253C35.5195 16.7437 35.8467 16.3072 36.1718 15.9062C36.2225 15.8438 36.2734 15.783 36.3244 15.7219C36.4293 15.5958 36.5337 15.4734 36.6375 15.3547C36.6992 15.2841 36.761 15.2135 36.8228 15.1446C36.9215 15.0351 37.0187 14.9296 37.1156 14.8262C37.1714 14.7666 37.2271 14.7055 37.2827 14.647C37.4315 14.4911 37.5784 14.3402 37.7204 14.1979L38.1037 13.8202L38.1032 13.8197C38.1262 13.7974 38.15 13.7736 38.1729 13.7516C40.5224 14.9687 41.6666 16.1979 41.6666 17.4999C41.782 18.7261 42.1815 19.9084 42.8336 20.9532C44.261 23.4547 45.0079 26.2865 44.9999 29.1666C45.0025 31.2047 44.4915 33.2104 43.514 34.9988Z"/>
</mask>
<path d="M44.3205 20.2002C43.8031 19.3806 43.4666 18.4601 43.3334 17.5C43.3334 15.6361 42.0474 14.0071 39.4253 12.5391C40.6869 11.2869 41.6667 10.0741 41.6667 8.3333C41.6667 2.9207 36.5144 0 31.6667 0C28.2504 0 27.5602 2.4377 27.0565 4.21797C26.5536 5.99531 26.246 6.6667 25.0001 6.6667C23.7542 6.6667 23.4466 5.99531 22.9436 4.21797C22.4397 2.4377 21.7497 0 18.3333 0C13.4854 0 8.33329 2.9207 8.33329 8.3333C8.33329 10.0741 9.31308 11.2869 10.5747 12.5391C7.95263 14.0071 6.6666 15.6361 6.6666 17.5C6.53329 18.4601 6.19677 19.3806 5.67949 20.2002C4.13486 22.9357 3.32646 26.0252 3.33329 29.1667C3.329 31.4547 3.89628 33.7075 4.98369 35.7207C5.4582 36.5174 5.74853 37.4101 5.8333 38.3334C5.8333 41.1459 8.08994 50.0001 13.3333 50.0001C15.1475 49.9371 16.9394 49.5808 18.6397 48.9449C19.0219 49.5965 19.7198 49.9978 20.4753 50.0001H29.5248C30.2802 49.9978 30.978 49.5965 31.3601 48.9448C33.0603 49.5808 34.8524 49.9371 36.6667 50.0001C41.91 50.0001 44.1667 41.1459 44.1667 38.3334C44.2515 37.4101 44.5418 36.5174 45.0163 35.7207C46.1037 33.7076 46.671 31.4548 46.6667 29.1667C46.6734 26.0252 45.865 22.9357 44.3205 20.2002ZM9.99999 8.3333C9.99999 4.00303 14.2936 1.6666 18.3333 1.6666C20.389 1.6666 20.7967 2.75264 21.3394 4.67197C21.7773 6.21709 22.3763 8.3333 25 8.3333C27.6237 8.3333 28.2226 6.21699 28.6604 4.67197C29.2033 2.75264 29.6109 1.6666 31.6666 1.6666C35.7063 1.6666 39.9999 4.00303 39.9999 8.3333C39.9999 9.69316 39.0177 10.6335 37.5316 12.0564L37.4438 12.1409L37.443 12.1415C37.2816 12.296 37.1128 12.4588 36.9406 12.626L36.94 12.6266L36.9397 12.6269C36.5126 13.0417 36.057 13.5006 35.5899 14.0183L35.5874 14.0212C35.4327 14.1927 35.2771 14.3712 35.1208 14.5565L35.0778 14.6084L35.063 14.6262C34.9816 14.7231 34.9002 14.8196 34.8192 14.9199C34.7848 14.9628 34.7504 15.0076 34.7159 15.0513C34.5862 15.2146 34.4573 15.3825 34.3292 15.555L34.311 15.58C33.692 16.4171 33.1442 17.3047 32.6737 18.2335C32.6554 18.2193 32.6318 18.2043 32.613 18.19C32.4628 18.0764 32.3043 17.9606 32.1272 17.8424C32.1081 17.8295 32.0863 17.8168 32.0668 17.8039C31.9011 17.6947 31.7215 17.5852 31.5326 17.476C31.4799 17.4454 31.4283 17.4155 31.3738 17.3852C31.1609 17.2665 30.9364 17.1496 30.6953 17.0361C30.6537 17.0166 30.6091 16.9981 30.5666 16.9788C30.3466 16.8783 30.1149 16.7818 29.8716 16.6893C29.8147 16.6676 29.7601 16.6454 29.702 16.6241C29.4239 16.5229 29.1311 16.429 28.8237 16.3424C28.7582 16.3239 28.6902 16.3075 28.6234 16.2898C28.3352 16.2138 28.0358 16.145 27.7227 16.0856C27.6748 16.0766 27.6301 16.0657 27.5817 16.057C27.2348 15.9951 26.8692 15.9476 26.4915 15.9104C26.4042 15.9018 26.3156 15.8948 26.2266 15.8877C25.8321 15.856 25.4271 15.8336 24.9998 15.8336C24.5725 15.8336 24.1675 15.856 23.7729 15.8876C23.684 15.8947 23.5953 15.9017 23.508 15.9103C23.1303 15.9475 22.7648 15.995 22.4178 16.0569C22.3694 16.0656 22.3247 16.0765 22.2768 16.0855C21.9635 16.145 21.6641 16.2138 21.3758 16.2898C21.3091 16.3074 21.2414 16.3238 21.1761 16.3422C20.8686 16.4286 20.5758 16.5226 20.2975 16.624C20.2393 16.6452 20.1848 16.6674 20.1279 16.6892C19.8851 16.7817 19.6533 16.8783 19.4329 16.9787C19.3905 16.998 19.3458 17.0165 19.3042 17.036C19.0631 17.1496 18.8386 17.2664 18.6257 17.3851C18.5712 17.4154 18.5197 17.4453 18.467 17.4758C18.2776 17.5854 18.0976 17.6951 17.9315 17.8046C17.9125 17.8171 17.8915 17.8295 17.8727 17.842C17.6956 17.9604 17.5368 18.0762 17.3865 18.1899C17.3676 18.2043 17.3435 18.2197 17.3251 18.234C16.9752 17.5443 16.5827 16.8771 16.15 16.2363L16.1266 16.2018C16.0028 16.0197 15.8781 15.8426 15.7522 15.6702C15.7058 15.6062 15.6595 15.5425 15.6128 15.48C15.5376 15.3797 15.462 15.2821 15.3862 15.185C15.2991 15.0729 15.2125 14.961 15.1254 14.8537L15.1185 14.8454C14.4772 14.0655 13.7898 13.3248 13.06 12.6271L13.0596 12.6268L13.059 12.6262C12.8868 12.459 12.718 12.2962 12.5566 12.1417L12.468 12.0566C10.9822 10.6335 9.99999 9.69316 9.99999 8.3333ZM31.9619 19.8015C31.457 21.0638 31.0604 22.3667 30.7765 23.6962C30.0035 23.3496 29.1988 23.0786 28.3737 22.887C28.3316 22.8771 28.2903 22.8666 28.2477 22.8569C28.0635 22.8155 27.8744 22.7781 27.6811 22.743C27.5797 22.7243 27.4766 22.7072 27.3726 22.6904C27.2082 22.6643 27.0429 22.6394 26.8723 22.6182C26.7789 22.6065 26.6845 22.5962 26.5892 22.5861C26.5307 22.58 26.4717 22.5763 26.4131 22.5708L26.3768 22.5677C26.2435 22.5558 26.1131 22.5415 25.9763 22.5329C25.6598 22.5128 25.3356 22.5 25 22.5C24.6643 22.5 24.3402 22.5127 24.0236 22.5329C23.8868 22.5415 23.7563 22.5558 23.623 22.5677L23.5868 22.5708C23.5494 22.5743 23.5107 22.5727 23.4734 22.5765C23.4521 22.5786 23.432 22.5839 23.4108 22.586C23.3155 22.5961 23.221 22.6063 23.1276 22.6181C22.957 22.6392 22.7917 22.6641 22.6273 22.6903C22.5232 22.7071 22.4201 22.7241 22.3187 22.7429C22.1255 22.778 21.9364 22.8153 21.7522 22.8568C21.7097 22.8665 21.6684 22.877 21.6262 22.8869C20.8011 23.0785 19.9964 23.3495 19.2234 23.6961C18.9395 22.3666 18.5429 21.0638 18.0377 19.8016C18.1735 19.6854 18.3269 19.5618 18.5029 19.4329C18.5449 19.4021 18.5978 19.3698 18.6422 19.3386C18.7909 19.2339 18.9484 19.1279 19.1236 19.0211C19.2047 18.9717 19.2976 18.923 19.3844 18.8738C19.5429 18.7841 19.7076 18.695 19.8855 18.6079C19.9937 18.5549 20.1104 18.5042 20.2259 18.4529C20.4068 18.3728 20.5971 18.2955 20.7965 18.2214C20.9272 18.1728 21.0618 18.1257 21.2003 18.0804C21.4129 18.011 21.6394 17.9489 21.871 17.8894C22.0178 17.8517 22.1624 17.8129 22.3168 17.7798C22.5809 17.7232 22.8644 17.6803 23.1514 17.6396C23.2956 17.6192 23.4318 17.593 23.5818 17.5771C24.5244 17.4741 25.4754 17.4741 26.418 17.5771C26.568 17.593 26.7042 17.6192 26.8484 17.6396C27.1353 17.6803 27.4189 17.7232 27.683 17.7798C27.8374 17.8129 27.982 17.8516 28.1288 17.8894C28.3603 17.9489 28.5869 18.011 28.7995 18.0804C28.9383 18.1257 29.0728 18.1727 29.2033 18.2214C29.4025 18.2955 29.5927 18.3728 29.7739 18.4529C29.8893 18.5042 30.006 18.5549 30.1142 18.6079C30.2922 18.695 30.4569 18.7841 30.6154 18.8738C30.7022 18.923 30.7951 18.9717 30.8762 19.0211C31.0514 19.1279 31.2089 19.2339 31.3576 19.3386C31.4019 19.3698 31.4549 19.4021 31.4969 19.4329C31.6728 19.5618 31.8262 19.6854 31.9619 19.8015ZM30 47.8585C29.9995 48.1207 29.7869 48.3331 29.5247 48.3333H20.4752C20.2126 48.3327 20 48.1198 19.9999 47.8572V45.2522C20.0855 45.2722 20.1716 45.2855 20.2572 45.3045C20.4256 45.3416 20.5939 45.3738 20.7625 45.407C21.0631 45.466 21.3638 45.5189 21.6644 45.5657C21.8461 45.5938 22.0276 45.621 22.2093 45.6445C22.5006 45.6821 22.792 45.7112 23.0833 45.737C23.2672 45.7534 23.4507 45.773 23.6345 45.7848C23.9663 45.8057 24.298 45.8145 24.6298 45.8201C24.753 45.8223 24.8768 45.8333 24.9999 45.8333C25.1229 45.8333 25.2467 45.8224 25.37 45.8202C25.7018 45.8146 26.0335 45.8058 26.3653 45.7849C26.549 45.7732 26.7325 45.7535 26.9165 45.7371C27.2078 45.7113 27.4992 45.6821 27.7905 45.6446C27.9722 45.6211 28.1537 45.5939 28.3353 45.5658C28.6362 45.5194 28.9369 45.4665 29.2373 45.407C29.4059 45.3739 29.5742 45.3416 29.7426 45.3045C29.8282 45.2856 29.9142 45.2722 29.9999 45.2522V47.8585H30ZM30 43.5254C29.8488 43.5634 29.6978 43.6027 29.5465 43.6372C29.3658 43.6784 29.1852 43.7199 29.0045 43.7562C28.7266 43.812 28.4482 43.8588 28.1699 43.9028C28.0054 43.9289 27.8408 43.9581 27.6762 43.9802C27.3561 44.0229 27.0358 44.0538 26.7154 44.0812C26.5921 44.0917 26.4689 44.1075 26.3457 44.1158C25.4495 44.176 24.5504 44.176 23.6542 44.1158C23.5309 44.1075 23.4077 44.0917 23.2845 44.0812C22.9642 44.0537 22.6438 44.0229 22.3237 43.9802C22.1591 43.9582 21.9945 43.929 21.83 43.9028C21.5517 43.8587 21.2733 43.812 20.9954 43.7562C20.8146 43.7199 20.6341 43.6784 20.4534 43.6372C20.302 43.6027 20.1511 43.5634 19.9999 43.5254V40.791C20.0099 40.7947 20.0203 40.7972 20.0302 40.8009C20.7589 41.0703 21.5095 41.2762 22.2737 41.4162C22.3791 41.4358 22.4852 41.453 22.5916 41.4703C22.8702 41.5154 23.1584 41.552 23.4551 41.5819C23.5672 41.5933 23.678 41.6074 23.7911 41.6162C24.1807 41.6466 24.5808 41.6667 24.9999 41.6667C25.419 41.6667 25.819 41.6465 26.2084 41.6161C26.3222 41.6072 26.4338 41.5931 26.5468 41.5816C26.8419 41.5518 27.1286 41.5154 27.4061 41.4705C27.514 41.453 27.6217 41.4355 27.7286 41.4157C28.4893 41.2763 29.2364 41.0715 29.9619 40.8037C29.9743 40.7991 29.9875 40.7961 30 40.7914V43.5254ZM43.514 34.9988C42.9222 36.0168 42.5751 37.1583 42.5 38.3334C42.5 40.7443 40.367 48.3334 36.6667 48.3334C34.9534 48.2646 33.2636 47.9108 31.6667 47.2864V40.746C32.5826 41.5589 33.7762 41.9881 35 41.9447C35.4602 41.9447 35.8333 41.5716 35.8333 41.1114C35.8333 40.6512 35.4602 40.2781 35 40.2781C34.1363 40.3273 33.2921 40.0099 32.6748 39.4038C33.1352 39.0934 33.5627 38.7365 33.9502 38.3388C34.2585 37.9979 34.2328 37.4719 33.8927 37.1627C33.5525 36.8535 33.0265 36.878 32.7165 37.2174C32.0572 37.8548 31.2979 38.38 30.469 38.772L30.4615 38.7746C30.0622 38.9729 29.6514 39.147 29.2312 39.296C29.2136 39.3022 29.1971 39.309 29.1793 39.3152C28.7848 39.4519 28.3833 39.5672 27.9764 39.6607C27.9121 39.6758 27.8493 39.6918 27.7837 39.706C27.3902 39.7914 26.988 39.8565 26.5784 39.9043C26.4908 39.9146 26.4006 39.9225 26.3111 39.9312C25.8811 39.9724 25.4459 40.0002 25.0001 40.0002C24.5474 40.0002 24.105 39.9726 23.6687 39.9301C23.5942 39.9229 23.5188 39.9164 23.4456 39.9081C23.0187 39.8603 22.5945 39.7904 22.1748 39.6989C22.1457 39.6926 22.1178 39.6855 22.089 39.6791C21.2058 39.4798 20.3494 39.1762 19.5379 38.7746C19.5218 38.7666 19.5043 38.7641 19.4878 38.7571C18.6739 38.3677 17.9293 37.8476 17.2836 37.2174C16.9736 36.878 16.4475 36.8536 16.1074 37.1627C15.7674 37.4718 15.7416 37.9979 16.0499 38.3388C16.4374 38.7365 16.8648 39.0934 17.3253 39.4038C16.7079 40.0098 15.8637 40.3271 15 40.2781C14.5397 40.2781 14.1667 40.6513 14.1667 41.1114C14.1667 41.5717 14.5397 41.9447 15 41.9447C16.2238 41.9881 17.4174 41.5589 18.3333 40.746V47.2864C16.7364 47.9108 15.0466 48.2646 13.3333 48.3334C9.6329 48.3334 7.49999 40.7443 7.49999 38.3334C7.4249 37.1583 7.07773 36.0168 6.48603 34.9988C5.50849 33.2105 4.99746 31.2047 4.99999 29.1667C4.99199 26.2866 5.73886 23.4548 7.1663 20.9533C7.81835 19.9085 8.21786 18.7262 8.33329 17.5C8.33329 16.1979 9.47744 14.9687 11.8269 13.7517L11.8966 13.8198L11.8962 13.8204L12.312 14.231C12.4523 14.3716 12.5979 14.5212 12.746 14.6765C12.7929 14.7256 12.8397 14.7772 12.8866 14.8272C12.9923 14.94 13.099 15.0556 13.2072 15.1765C13.257 15.2319 13.3067 15.2891 13.3564 15.3456C13.4784 15.4849 13.6015 15.6289 13.7253 15.7789C13.7557 15.8157 13.7862 15.8521 13.8167 15.8895C14.8139 17.1144 15.6401 18.4689 16.2727 19.9162L16.276 19.9231L16.2778 19.9274C16.4366 20.2901 16.5834 20.6612 16.7226 21.039C16.7637 21.1514 16.8022 21.2701 16.8421 21.3855C16.922 21.6147 16.9983 21.8474 17.0713 22.0832C17.1331 22.2842 17.1937 22.4882 17.2519 22.698C17.2811 22.8028 17.3078 22.9106 17.3357 23.0168C16.6085 22.6636 15.8083 22.4865 15 22.4999C14.5397 22.4999 14.1667 22.8729 14.1667 23.3332C14.1667 23.7935 14.5397 24.1665 15 24.1665C15.7828 24.1309 16.5512 24.3864 17.1567 24.8838C16.7595 25.1638 16.389 25.4798 16.0498 25.8279C15.7415 26.1687 15.7672 26.6948 16.1073 27.004C16.4475 27.3132 16.9735 27.2887 17.2835 26.9493C17.8001 26.4445 18.3837 26.0133 19.0179 25.6677L19.0258 25.6644L19.0307 25.6623C19.7835 25.2381 20.5832 24.9031 21.4137 24.6642L21.4387 24.6565C21.6662 24.5908 21.9061 24.5308 22.154 24.4754C22.1817 24.4691 22.2081 24.4622 22.2361 24.4562C22.2807 24.4466 22.3301 24.4401 22.3754 24.4309C22.5638 24.3923 22.7564 24.3565 22.9559 24.3254C23.0045 24.3179 23.0505 24.3083 23.0997 24.3013C23.1842 24.2892 23.2761 24.2832 23.3626 24.2726C23.5175 24.2534 23.673 24.235 23.8342 24.221C23.8982 24.2155 23.9583 24.2066 24.0234 24.202C24.338 24.1794 24.6631 24.1665 25 24.1665C25.3377 24.1665 25.6636 24.1794 25.9788 24.2021C26.0255 24.2053 26.0686 24.2117 26.1149 24.2154C26.2941 24.2303 26.4657 24.2514 26.6374 24.2726C26.73 24.284 26.8288 24.2902 26.9191 24.3034L26.9559 24.3095C27.1875 24.3438 27.4076 24.3864 27.6245 24.4309C27.6766 24.4415 27.7337 24.4488 27.7849 24.4601C28.9008 24.6982 29.9744 25.1036 30.9692 25.6624L30.9737 25.6643L30.9741 25.6645C30.9914 25.6743 31.0105 25.6786 31.0282 25.6871C31.6466 26.0293 32.2151 26.4546 32.7181 26.9511C33.0282 27.2913 33.5554 27.3157 33.8956 27.0056C34.2358 26.6954 34.2602 26.1683 33.9501 25.828C33.611 25.4801 33.2405 25.1641 32.8434 24.8842C33.4488 24.3866 34.2171 24.131 34.9999 24.1666C35.4601 24.1666 35.8332 23.7936 35.8332 23.3333C35.8332 22.873 35.4601 22.5 34.9999 22.5C34.1915 22.4865 33.3913 22.6636 32.6641 23.0168C32.692 22.9106 32.7186 22.8028 32.7478 22.698C32.806 22.4882 32.8667 22.2841 32.9285 22.0832C33.0016 21.8476 33.0779 21.615 33.1577 21.3855C33.1975 21.2701 33.2361 21.1514 33.2772 21.039C33.4125 20.6714 33.5567 20.3109 33.71 19.9574L33.7341 19.9013C34.0072 19.2796 34.3158 18.6742 34.6586 18.0881C34.6729 18.0636 34.6875 18.0396 34.7019 18.0153C34.8509 17.7636 35.0018 17.5222 35.1551 17.291C35.1695 17.2693 35.1837 17.2468 35.198 17.2253C35.5195 16.7437 35.8467 16.3072 36.1718 15.9062C36.2225 15.8438 36.2734 15.783 36.3244 15.7219C36.4293 15.5958 36.5337 15.4734 36.6375 15.3547C36.6992 15.2841 36.761 15.2135 36.8228 15.1446C36.9215 15.0351 37.0187 14.9296 37.1156 14.8262C37.1714 14.7666 37.2271 14.7055 37.2827 14.647C37.4315 14.4911 37.5784 14.3402 37.7204 14.1979L38.1037 13.8202L38.1032 13.8197C38.1262 13.7974 38.15 13.7736 38.1729 13.7516C40.5224 14.9687 41.6666 16.1979 41.6666 17.4999C41.782 18.7261 42.1815 19.9084 42.8336 20.9532C44.261 23.4547 45.0079 26.2865 44.9999 29.1666C45.0025 31.2047 44.4915 33.2104 43.514 34.9988Z" fill="#B0E645" stroke="#2F80ED" stroke-width="2" mask="url(#path-1-inside-1)"/>
</g>
<defs>
<clipPath id="clip0">
<rect width="50" height="50" fill="white"/>
</clipPath>
</defs>
</svg>
