<svg width="50" height="50" viewBox="0 0 50 50" fill="none" xmlns="http://www.w3.org/2000/svg">
<mask id="path-1-inside-1" fill="white">
<path d="M35.9375 3.90625H4.6875C4.25625 3.90625 3.90625 4.25625 3.90625 4.6875V21.875C3.90625 22.3062 4.25625 22.6562 4.6875 22.6562H35.9375C36.3688 22.6562 36.7188 22.3062 36.7188 21.875V4.6875C36.7188 4.25625 36.3688 3.90625 35.9375 3.90625ZM35.1562 21.0938H5.46875V5.46875H35.1562V21.0938Z"/>
</mask>
<path d="M35.9375 3.90625H4.6875C4.25625 3.90625 3.90625 4.25625 3.90625 4.6875V21.875C3.90625 22.3062 4.25625 22.6562 4.6875 22.6562H35.9375C36.3688 22.6562 36.7188 22.3062 36.7188 21.875V4.6875C36.7188 4.25625 36.3688 3.90625 35.9375 3.90625ZM35.1562 21.0938H5.46875V5.46875H35.1562V21.0938Z" fill="#B0E645"/>
<path d="M35.1562 21.0938V29.0938H43.1562V21.0938H35.1562ZM5.46875 21.0938H-2.53125V29.0938H5.46875V21.0938ZM5.46875 5.46875V-2.53125H-2.53125V5.46875H5.46875ZM35.1562 5.46875H43.1562V-2.53125H35.1562V5.46875ZM35.9375 -4.09375H4.6875V11.9062H35.9375V-4.09375ZM4.6875 -4.09375C-0.162028 -4.09375 -4.09375 -0.162028 -4.09375 4.6875H11.9062C11.9062 8.67453 8.67453 11.9062 4.6875 11.9062V-4.09375ZM-4.09375 4.6875V21.875H11.9062V4.6875H-4.09375ZM-4.09375 21.875C-4.09375 26.7245 -0.162028 30.6562 4.6875 30.6562V14.6562C8.67453 14.6562 11.9062 17.888 11.9062 21.875H-4.09375ZM4.6875 30.6562H35.9375V14.6562H4.6875V30.6562ZM35.9375 30.6562C40.787 30.6562 44.7188 26.7245 44.7188 21.875H28.7188C28.7188 17.888 31.9505 14.6562 35.9375 14.6562V30.6562ZM44.7188 21.875V4.6875H28.7188V21.875H44.7188ZM44.7188 4.6875C44.7188 -0.162028 40.787 -4.09375 35.9375 -4.09375V11.9062C31.9505 11.9062 28.7188 8.67453 28.7188 4.6875H44.7188ZM35.1562 13.0938H5.46875V29.0938H35.1562V13.0938ZM13.4688 21.0938V5.46875H-2.53125V21.0938H13.4688ZM5.46875 13.4688H35.1562V-2.53125H5.46875V13.4688ZM27.1562 5.46875V21.0938H43.1562V5.46875H27.1562Z" fill="#2F80ED" mask="url(#path-1-inside-1)"/>
<mask id="path-3-inside-2" fill="white">
<path d="M20.3125 17.9688C24.1891 17.9688 27.3438 14.8141 27.3438 10.9375C27.3438 10.5063 26.9937 10.1562 26.5625 10.1562H21.875C21.4438 10.1562 21.0938 10.5063 21.0938 10.9375C21.0938 11.368 20.743 11.7188 20.3125 11.7188C19.882 11.7188 19.5312 11.368 19.5312 10.9375C19.5312 10.5063 19.1813 10.1562 18.75 10.1562H14.0625C13.6313 10.1562 13.2812 10.5063 13.2812 10.9375C13.2812 14.8141 16.4359 17.9688 20.3125 17.9688ZM18.1023 11.7188C18.425 12.6281 19.2937 13.2812 20.3125 13.2812C21.3313 13.2812 22.2 12.6281 22.5227 11.7188H25.7258C25.3453 14.3656 23.0633 16.4062 20.3125 16.4062C17.5617 16.4062 15.2797 14.3656 14.8992 11.7188H18.1023Z"/>
</mask>
<path d="M20.3125 17.9688C24.1891 17.9688 27.3438 14.8141 27.3438 10.9375C27.3438 10.5063 26.9937 10.1562 26.5625 10.1562H21.875C21.4438 10.1562 21.0938 10.5063 21.0938 10.9375C21.0938 11.368 20.743 11.7188 20.3125 11.7188C19.882 11.7188 19.5312 11.368 19.5312 10.9375C19.5312 10.5063 19.1813 10.1562 18.75 10.1562H14.0625C13.6313 10.1562 13.2812 10.5063 13.2812 10.9375C13.2812 14.8141 16.4359 17.9688 20.3125 17.9688ZM18.1023 11.7188C18.425 12.6281 19.2937 13.2812 20.3125 13.2812C21.3313 13.2812 22.2 12.6281 22.5227 11.7188H25.7258C25.3453 14.3656 23.0633 16.4062 20.3125 16.4062C17.5617 16.4062 15.2797 14.3656 14.8992 11.7188H18.1023Z" fill="#B0E645"/>
<path d="M18.1023 11.7188L25.6418 9.04366L23.7525 3.71875H18.1023V11.7188ZM22.5227 11.7188V3.71875H16.8725L14.9832 9.04366L22.5227 11.7188ZM25.7258 11.7188L33.6444 12.857L34.9579 3.71875H25.7258V11.7188ZM14.8992 11.7188V3.71875H5.66705L6.98061 12.857L14.8992 11.7188ZM20.3125 25.9688C28.6073 25.9688 35.3438 19.2323 35.3438 10.9375H19.3438C19.3438 10.3958 19.7708 9.96875 20.3125 9.96875V25.9688ZM35.3438 10.9375C35.3438 6.08797 31.412 2.15625 26.5625 2.15625V18.1562C22.5755 18.1562 19.3438 14.9245 19.3438 10.9375H35.3438ZM26.5625 2.15625H21.875V18.1562H26.5625V2.15625ZM21.875 2.15625C17.0255 2.15625 13.0938 6.08797 13.0938 10.9375H29.0938C29.0938 14.9245 25.862 18.1562 21.875 18.1562V2.15625ZM13.0938 10.9375C13.0938 6.94969 16.3247 3.71875 20.3125 3.71875V19.7188C25.1612 19.7188 29.0938 15.7862 29.0938 10.9375H13.0938ZM20.3125 3.71875C24.3003 3.71875 27.5312 6.94969 27.5312 10.9375H11.5312C11.5312 15.7862 15.4638 19.7188 20.3125 19.7188V3.71875ZM27.5312 10.9375C27.5312 6.08797 23.5995 2.15625 18.75 2.15625V18.1562C14.763 18.1562 11.5312 14.9245 11.5312 10.9375H27.5312ZM18.75 2.15625H14.0625V18.1562H18.75V2.15625ZM14.0625 2.15625C9.21297 2.15625 5.28125 6.08797 5.28125 10.9375H21.2812C21.2812 14.9245 18.0495 18.1562 14.0625 18.1562V2.15625ZM5.28125 10.9375C5.28125 19.2323 12.0177 25.9688 20.3125 25.9688V9.96875C20.8542 9.96875 21.2812 10.3958 21.2812 10.9375H5.28125ZM10.5629 14.3938C11.9792 18.3857 15.7919 21.2812 20.3125 21.2812V5.28125C22.7956 5.28125 24.8708 6.87059 25.6418 9.04366L10.5629 14.3938ZM20.3125 21.2812C24.8331 21.2812 28.6458 18.3857 30.0621 14.3938L14.9832 9.04366C15.7542 6.87059 17.8294 5.28125 20.3125 5.28125V21.2812ZM22.5227 19.7188H25.7258V3.71875H22.5227V19.7188ZM17.8072 10.5805C17.9839 9.35128 19.0224 8.40625 20.3125 8.40625V24.4062C27.1042 24.4062 32.7068 19.38 33.6444 12.857L17.8072 10.5805ZM20.3125 8.40625C21.6026 8.40625 22.6411 9.35128 22.8178 10.5805L6.98061 12.857C7.91824 19.38 13.5208 24.4062 20.3125 24.4062V8.40625ZM14.8992 19.7188H18.1023V3.71875H14.8992V19.7188Z" fill="#2F80ED" mask="url(#path-3-inside-2)"/>
<mask id="path-5-inside-3" fill="white">
<path d="M48.4375 19.5312H39.8438V1.5625C39.8438 1.13125 39.4938 0.78125 39.0625 0.78125H1.5625C1.13125 0.78125 0.78125 1.13125 0.78125 1.5625V25C0.78125 25.4312 1.13125 25.7812 1.5625 25.7812H16.4062V30.4688H15.625C13.4711 30.4688 11.7188 32.2211 11.7188 34.375V35.9375C11.7188 36.3688 12.0688 36.7188 12.5 36.7188H28.125C28.5562 36.7188 28.9062 36.3688 28.9062 35.9375V34.375C28.9062 32.2211 27.1539 30.4688 25 30.4688H24.2188V25.7812H32.0312V41.4062H23.4375C22.1453 41.4062 21.0938 42.4578 21.0938 43.75C21.0938 44.1805 20.743 44.5312 20.3125 44.5312H16.2625C15.9391 43.6242 15.0797 42.9688 14.0625 42.9688H10.1562V42.1875C10.1562 41.7562 9.80625 41.4062 9.375 41.4062H6.25C5.81875 41.4062 5.46875 41.7562 5.46875 42.1875V48.4375C5.46875 48.8688 5.81875 49.2188 6.25 49.2188H9.375C9.80625 49.2188 10.1562 48.8688 10.1562 48.4375V47.6562H14.0625C15.0797 47.6562 15.9391 47.0008 16.2625 46.0938H20.3125C21.6047 46.0938 22.6562 45.0422 22.6562 43.75C22.6562 43.3195 23.007 42.9688 23.4375 42.9688H32.0312V48.4375C32.0312 48.8688 32.3813 49.2188 32.8125 49.2188H48.4375C48.8688 49.2188 49.2188 48.8688 49.2188 48.4375V20.3125C49.2188 19.8813 48.8688 19.5312 48.4375 19.5312ZM8.59375 47.6562H7.03125V42.9688H8.59375V47.6562ZM14.0625 46.0938H10.1562V44.5312H14.0625C14.493 44.5312 14.8438 44.882 14.8438 45.3125C14.8438 45.743 14.493 46.0938 14.0625 46.0938ZM39.8438 25V24.2188H44.5312V28.9062H36.7188V25.7812H39.0625C39.4938 25.7812 39.8438 25.4312 39.8438 25ZM2.34375 2.34375H38.2812V24.2188H2.34375V2.34375ZM27.3438 34.375V35.1562H13.2812V34.375C13.2812 33.0828 14.3328 32.0312 15.625 32.0312H25C26.2922 32.0312 27.3438 33.0828 27.3438 34.375ZM22.6562 30.4688H17.9688V25.7812H22.6562V30.4688ZM47.6562 47.6562H33.5938V25.7812H35.1562V29.6875C35.1562 30.1187 35.5062 30.4688 35.9375 30.4688H45.3125C45.7438 30.4688 46.0938 30.1187 46.0938 29.6875V23.4375C46.0938 23.0063 45.7438 22.6562 45.3125 22.6562H39.8438V21.0938H47.6562V47.6562Z"/>
</mask>
<path d="M48.4375 19.5312H39.8438V1.5625C39.8438 1.13125 39.4938 0.78125 39.0625 0.78125H1.5625C1.13125 0.78125 0.78125 1.13125 0.78125 1.5625V25C0.78125 25.4312 1.13125 25.7812 1.5625 25.7812H16.4062V30.4688H15.625C13.4711 30.4688 11.7188 32.2211 11.7188 34.375V35.9375C11.7188 36.3688 12.0688 36.7188 12.5 36.7188H28.125C28.5562 36.7188 28.9062 36.3688 28.9062 35.9375V34.375C28.9062 32.2211 27.1539 30.4688 25 30.4688H24.2188V25.7812H32.0312V41.4062H23.4375C22.1453 41.4062 21.0938 42.4578 21.0938 43.75C21.0938 44.1805 20.743 44.5312 20.3125 44.5312H16.2625C15.9391 43.6242 15.0797 42.9688 14.0625 42.9688H10.1562V42.1875C10.1562 41.7562 9.80625 41.4062 9.375 41.4062H6.25C5.81875 41.4062 5.46875 41.7562 5.46875 42.1875V48.4375C5.46875 48.8688 5.81875 49.2188 6.25 49.2188H9.375C9.80625 49.2188 10.1562 48.8688 10.1562 48.4375V47.6562H14.0625C15.0797 47.6562 15.9391 47.0008 16.2625 46.0938H20.3125C21.6047 46.0938 22.6562 45.0422 22.6562 43.75C22.6562 43.3195 23.007 42.9688 23.4375 42.9688H32.0312V48.4375C32.0312 48.8688 32.3813 49.2188 32.8125 49.2188H48.4375C48.8688 49.2188 49.2188 48.8688 49.2188 48.4375V20.3125C49.2188 19.8813 48.8688 19.5312 48.4375 19.5312ZM8.59375 47.6562H7.03125V42.9688H8.59375V47.6562ZM14.0625 46.0938H10.1562V44.5312H14.0625C14.493 44.5312 14.8438 44.882 14.8438 45.3125C14.8438 45.743 14.493 46.0938 14.0625 46.0938ZM39.8438 25V24.2188H44.5312V28.9062H36.7188V25.7812H39.0625C39.4938 25.7812 39.8438 25.4312 39.8438 25ZM2.34375 2.34375H38.2812V24.2188H2.34375V2.34375ZM27.3438 34.375V35.1562H13.2812V34.375C13.2812 33.0828 14.3328 32.0312 15.625 32.0312H25C26.2922 32.0312 27.3438 33.0828 27.3438 34.375ZM22.6562 30.4688H17.9688V25.7812H22.6562V30.4688ZM47.6562 47.6562H33.5938V25.7812H35.1562V29.6875C35.1562 30.1187 35.5062 30.4688 35.9375 30.4688H45.3125C45.7438 30.4688 46.0938 30.1187 46.0938 29.6875V23.4375C46.0938 23.0063 45.7438 22.6562 45.3125 22.6562H39.8438V21.0938H47.6562V47.6562Z" fill="#B0E645"/>
<path d="M39.8438 19.5312H31.8438V27.5312H39.8438V19.5312ZM16.4062 25.7812H24.4062V17.7812H16.4062V25.7812ZM16.4062 30.4688V38.4688H24.4062V30.4688H16.4062ZM24.2188 30.4688H16.2188V38.4688H24.2188V30.4688ZM24.2188 25.7812V17.7812H16.2188V25.7812H24.2188ZM32.0312 25.7812H40.0312V17.7812H32.0312V25.7812ZM32.0312 41.4062V49.4062H40.0312V41.4062H32.0312ZM16.2625 44.5312L8.72724 47.2182L10.6218 52.5312H16.2625V44.5312ZM10.1562 42.9688H2.15625V50.9688H10.1562V42.9688ZM10.1562 47.6562V39.6562H2.15625V47.6562H10.1562ZM16.2625 46.0938V38.0938H10.6218L8.72724 43.4068L16.2625 46.0938ZM32.0312 42.9688H40.0312V34.9688H32.0312V42.9688ZM8.59375 47.6562V55.6562H16.5938V47.6562H8.59375ZM7.03125 47.6562H-0.96875V55.6562H7.03125V47.6562ZM7.03125 42.9688V34.9688H-0.96875V42.9688H7.03125ZM8.59375 42.9688H16.5938V34.9688H8.59375V42.9688ZM10.1562 46.0938H2.15625V54.0938H10.1562V46.0938ZM10.1562 44.5312V36.5312H2.15625V44.5312H10.1562ZM39.8438 24.2188V16.2188H31.8438V24.2188H39.8438ZM44.5312 24.2188H52.5312V16.2188H44.5312V24.2188ZM44.5312 28.9062V36.9062H52.5312V28.9062H44.5312ZM36.7188 28.9062H28.7188V36.9062H36.7188V28.9062ZM36.7188 25.7812V17.7812H28.7188V25.7812H36.7188ZM2.34375 2.34375V-5.65625H-5.65625V2.34375H2.34375ZM38.2812 2.34375H46.2812V-5.65625H38.2812V2.34375ZM38.2812 24.2188V32.2188H46.2812V24.2188H38.2812ZM2.34375 24.2188H-5.65625V32.2188H2.34375V24.2188ZM27.3438 35.1562V43.1562H35.3438V35.1562H27.3438ZM13.2812 35.1562H5.28125V43.1562H13.2812V35.1562ZM22.6562 30.4688V38.4688H30.6562V30.4688H22.6562ZM17.9688 30.4688H9.96875V38.4688H17.9688V30.4688ZM17.9688 25.7812V17.7812H9.96875V25.7812H17.9688ZM22.6562 25.7812H30.6562V17.7812H22.6562V25.7812ZM47.6562 47.6562V55.6562H55.6562V47.6562H47.6562ZM33.5938 47.6562H25.5938V55.6562H33.5938V47.6562ZM33.5938 25.7812V17.7812H25.5938V25.7812H33.5938ZM35.1562 25.7812H43.1562V17.7812H35.1562V25.7812ZM39.8438 22.6562H31.8438V30.6562H39.8438V22.6562ZM39.8438 21.0938V13.0938H31.8438V21.0938H39.8438ZM47.6562 21.0938H55.6562V13.0938H47.6562V21.0938ZM48.4375 11.5312H39.8438V27.5312H48.4375V11.5312ZM47.8438 19.5312V1.5625H31.8438V19.5312H47.8438ZM47.8438 1.5625C47.8438 -3.28703 43.912 -7.21875 39.0625 -7.21875V8.78125C35.0755 8.78125 31.8438 5.54953 31.8438 1.5625H47.8438ZM39.0625 -7.21875H1.5625V8.78125H39.0625V-7.21875ZM1.5625 -7.21875C-3.28703 -7.21875 -7.21875 -3.28703 -7.21875 1.5625H8.78125C8.78125 5.54953 5.54953 8.78125 1.5625 8.78125V-7.21875ZM-7.21875 1.5625V25H8.78125V1.5625H-7.21875ZM-7.21875 25C-7.21875 29.8495 -3.28703 33.7812 1.5625 33.7812V17.7812C5.54953 17.7812 8.78125 21.013 8.78125 25H-7.21875ZM1.5625 33.7812H16.4062V17.7812H1.5625V33.7812ZM8.40625 25.7812V30.4688H24.4062V25.7812H8.40625ZM16.4062 22.4688H15.625V38.4688H16.4062V22.4688ZM15.625 22.4688C9.05282 22.4688 3.71875 27.8028 3.71875 34.375H19.7188C19.7188 36.6394 17.8894 38.4688 15.625 38.4688V22.4688ZM3.71875 34.375V35.9375H19.7188V34.375H3.71875ZM3.71875 35.9375C3.71875 40.787 7.65047 44.7188 12.5 44.7188V28.7188C16.487 28.7188 19.7188 31.9505 19.7188 35.9375H3.71875ZM12.5 44.7188H28.125V28.7188H12.5V44.7188ZM28.125 44.7188C32.9745 44.7188 36.9062 40.787 36.9062 35.9375H20.9062C20.9062 31.9505 24.138 28.7188 28.125 28.7188V44.7188ZM36.9062 35.9375V34.375H20.9062V35.9375H36.9062ZM36.9062 34.375C36.9062 27.8028 31.5722 22.4688 25 22.4688V38.4688C22.7356 38.4688 20.9062 36.6394 20.9062 34.375H36.9062ZM25 22.4688H24.2188V38.4688H25V22.4688ZM32.2188 30.4688V25.7812H16.2188V30.4688H32.2188ZM24.2188 33.7812H32.0312V17.7812H24.2188V33.7812ZM24.0312 25.7812V41.4062H40.0312V25.7812H24.0312ZM32.0312 33.4062H23.4375V49.4062H32.0312V33.4062ZM23.4375 33.4062C17.727 33.4062 13.0938 38.0395 13.0938 43.75H29.0938C29.0938 46.8761 26.5636 49.4062 23.4375 49.4062V33.4062ZM13.0938 43.75C13.0938 39.7622 16.3247 36.5312 20.3125 36.5312V52.5312C25.1612 52.5312 29.0938 48.5987 29.0938 43.75H13.0938ZM20.3125 36.5312H16.2625V52.5312H20.3125V36.5312ZM23.7978 41.8443C22.3965 37.9146 18.6322 34.9688 14.0625 34.9688V50.9688C11.5272 50.9688 9.48163 49.3338 8.72724 47.2182L23.7978 41.8443ZM14.0625 34.9688H10.1562V50.9688H14.0625V34.9688ZM18.1562 42.9688V42.1875H2.15625V42.9688H18.1562ZM18.1562 42.1875C18.1562 37.338 14.2245 33.4062 9.375 33.4062V49.4062C5.38797 49.4062 2.15625 46.1745 2.15625 42.1875H18.1562ZM9.375 33.4062H6.25V49.4062H9.375V33.4062ZM6.25 33.4062C1.40047 33.4062 -2.53125 37.338 -2.53125 42.1875H13.4688C13.4688 46.1745 10.237 49.4062 6.25 49.4062V33.4062ZM-2.53125 42.1875V48.4375H13.4688V42.1875H-2.53125ZM-2.53125 48.4375C-2.53125 53.287 1.40047 57.2188 6.25 57.2188V41.2188C10.237 41.2188 13.4688 44.4505 13.4688 48.4375H-2.53125ZM6.25 57.2188H9.375V41.2188H6.25V57.2188ZM9.375 57.2188C14.2245 57.2188 18.1562 53.287 18.1562 48.4375H2.15625C2.15625 44.4505 5.38797 41.2188 9.375 41.2188V57.2188ZM18.1562 48.4375V47.6562H2.15625V48.4375H18.1562ZM10.1562 55.6562H14.0625V39.6562H10.1562V55.6562ZM14.0625 55.6562C18.6322 55.6562 22.3965 52.7104 23.7978 48.7807L8.72724 43.4068C9.48163 41.2912 11.5272 39.6562 14.0625 39.6562V55.6562ZM16.2625 54.0938H20.3125V38.0938H16.2625V54.0938ZM20.3125 54.0938C26.023 54.0938 30.6562 49.4605 30.6562 43.75H14.6562C14.6562 40.6239 17.1864 38.0938 20.3125 38.0938V54.0938ZM30.6562 43.75C30.6562 47.7378 27.4253 50.9688 23.4375 50.9688V34.9688C18.5888 34.9688 14.6562 38.9013 14.6562 43.75H30.6562ZM23.4375 50.9688H32.0312V34.9688H23.4375V50.9688ZM24.0312 42.9688V48.4375H40.0312V42.9688H24.0312ZM24.0312 48.4375C24.0312 53.287 27.963 57.2188 32.8125 57.2188V41.2188C36.7995 41.2188 40.0312 44.4505 40.0312 48.4375H24.0312ZM32.8125 57.2188H48.4375V41.2188H32.8125V57.2188ZM48.4375 57.2188C53.287 57.2188 57.2188 53.287 57.2188 48.4375H41.2188C41.2188 44.4505 44.4505 41.2188 48.4375 41.2188V57.2188ZM57.2188 48.4375V20.3125H41.2188V48.4375H57.2188ZM57.2188 20.3125C57.2188 15.463 53.287 11.5312 48.4375 11.5312V27.5312C44.4505 27.5312 41.2188 24.2995 41.2188 20.3125H57.2188ZM8.59375 39.6562H7.03125V55.6562H8.59375V39.6562ZM15.0312 47.6562V42.9688H-0.96875V47.6562H15.0312ZM7.03125 50.9688H8.59375V34.9688H7.03125V50.9688ZM0.59375 42.9688V47.6562H16.5938V42.9688H0.59375ZM14.0625 38.0938H10.1562V54.0938H14.0625V38.0938ZM18.1562 46.0938V44.5312H2.15625V46.0938H18.1562ZM10.1562 52.5312H14.0625V36.5312H10.1562V52.5312ZM14.0625 52.5312C10.0747 52.5312 6.84375 49.3003 6.84375 45.3125H22.8438C22.8438 40.4638 18.9112 36.5312 14.0625 36.5312V52.5312ZM6.84375 45.3125C6.84375 41.3247 10.0747 38.0938 14.0625 38.0938V54.0938C18.9112 54.0938 22.8438 50.1612 22.8438 45.3125H6.84375ZM47.8438 25V24.2188H31.8438V25H47.8438ZM39.8438 32.2188H44.5312V16.2188H39.8438V32.2188ZM36.5312 24.2188V28.9062H52.5312V24.2188H36.5312ZM44.5312 20.9062H36.7188V36.9062H44.5312V20.9062ZM44.7188 28.9062V25.7812H28.7188V28.9062H44.7188ZM36.7188 33.7812H39.0625V17.7812H36.7188V33.7812ZM39.0625 33.7812C43.912 33.7812 47.8438 29.8495 47.8438 25H31.8438C31.8438 21.013 35.0755 17.7812 39.0625 17.7812V33.7812ZM2.34375 10.3438H38.2812V-5.65625H2.34375V10.3438ZM30.2812 2.34375V24.2188H46.2812V2.34375H30.2812ZM38.2812 16.2188H2.34375V32.2188H38.2812V16.2188ZM10.3438 24.2188V2.34375H-5.65625V24.2188H10.3438ZM19.3438 34.375V35.1562H35.3438V34.375H19.3438ZM27.3438 27.1562H13.2812V43.1562H27.3438V27.1562ZM21.2812 35.1562V34.375H5.28125V35.1562H21.2812ZM21.2812 34.375C21.2812 37.5011 18.7511 40.0312 15.625 40.0312V24.0312C9.91453 24.0312 5.28125 28.6645 5.28125 34.375H21.2812ZM15.625 40.0312H25V24.0312H15.625V40.0312ZM25 40.0312C21.8739 40.0312 19.3438 37.5011 19.3438 34.375H35.3438C35.3438 28.6645 30.7105 24.0312 25 24.0312V40.0312ZM22.6562 22.4688H17.9688V38.4688H22.6562V22.4688ZM25.9688 30.4688V25.7812H9.96875V30.4688H25.9688ZM17.9688 33.7812H22.6562V17.7812H17.9688V33.7812ZM14.6562 25.7812V30.4688H30.6562V25.7812H14.6562ZM47.6562 39.6562H33.5938V55.6562H47.6562V39.6562ZM41.5938 47.6562V25.7812H25.5938V47.6562H41.5938ZM33.5938 33.7812H35.1562V17.7812H33.5938V33.7812ZM27.1562 25.7812V29.6875H43.1562V25.7812H27.1562ZM27.1562 29.6875C27.1562 34.537 31.088 38.4688 35.9375 38.4688V22.4688C39.9245 22.4688 43.1562 25.7005 43.1562 29.6875H27.1562ZM35.9375 38.4688H45.3125V22.4688H35.9375V38.4688ZM45.3125 38.4688C50.162 38.4688 54.0938 34.537 54.0938 29.6875H38.0938C38.0938 25.7005 41.3255 22.4688 45.3125 22.4688V38.4688ZM54.0938 29.6875V23.4375H38.0938V29.6875H54.0938ZM54.0938 23.4375C54.0938 18.588 50.162 14.6562 45.3125 14.6562V30.6562C41.3255 30.6562 38.0938 27.4245 38.0938 23.4375H54.0938ZM45.3125 14.6562H39.8438V30.6562H45.3125V14.6562ZM47.8438 22.6562V21.0938H31.8438V22.6562H47.8438ZM39.8438 29.0938H47.6562V13.0938H39.8438V29.0938ZM39.6562 21.0938V47.6562H55.6562V21.0938H39.6562Z" fill="#2F80ED" mask="url(#path-5-inside-3)"/>
<mask id="path-7-inside-4" fill="white">
<path d="M35.1562 32.0312H46.0938V33.5938H35.1562V32.0312Z"/>
</mask>
<path d="M35.1562 32.0312H46.0938V33.5938H35.1562V32.0312Z" fill="#B0E645"/>
<path d="M35.1562 32.0312V24.0312H27.1562V32.0312H35.1562ZM46.0938 32.0312H54.0938V24.0312H46.0938V32.0312ZM46.0938 33.5938V41.5938H54.0938V33.5938H46.0938ZM35.1562 33.5938H27.1562V41.5938H35.1562V33.5938ZM35.1562 40.0312H46.0938V24.0312H35.1562V40.0312ZM38.0938 32.0312V33.5938H54.0938V32.0312H38.0938ZM46.0938 25.5938H35.1562V41.5938H46.0938V25.5938ZM43.1562 33.5938V32.0312H27.1562V33.5938H43.1562Z" fill="#2F80ED" mask="url(#path-7-inside-4)"/>
<mask id="path-9-inside-5" fill="white">
<path d="M35.1562 35.1562H46.0938V36.7188H35.1562V35.1562Z"/>
</mask>
<path d="M35.1562 35.1562H46.0938V36.7188H35.1562V35.1562Z" fill="#B0E645"/>
<path d="M35.1562 35.1562V27.1562H27.1562V35.1562H35.1562ZM46.0938 35.1562H54.0938V27.1562H46.0938V35.1562ZM46.0938 36.7188V44.7188H54.0938V36.7188H46.0938ZM35.1562 36.7188H27.1562V44.7188H35.1562V36.7188ZM35.1562 43.1562H46.0938V27.1562H35.1562V43.1562ZM38.0938 35.1562V36.7188H54.0938V35.1562H38.0938ZM46.0938 28.7188H35.1562V44.7188H46.0938V28.7188ZM43.1562 36.7188V35.1562H27.1562V36.7188H43.1562Z" fill="#2F80ED" mask="url(#path-9-inside-5)"/>
<mask id="path-11-inside-6" fill="white">
<path d="M35.1562 38.2812H46.0938V39.8438H35.1562V38.2812Z"/>
</mask>
<path d="M35.1562 38.2812H46.0938V39.8438H35.1562V38.2812Z" fill="#B0E645"/>
<path d="M35.1562 38.2812V30.2812H27.1562V38.2812H35.1562ZM46.0938 38.2812H54.0938V30.2812H46.0938V38.2812ZM46.0938 39.8438V47.8438H54.0938V39.8438H46.0938ZM35.1562 39.8438H27.1562V47.8438H35.1562V39.8438ZM35.1562 46.2812H46.0938V30.2812H35.1562V46.2812ZM38.0938 38.2812V39.8438H54.0938V38.2812H38.0938ZM46.0938 31.8438H35.1562V47.8438H46.0938V31.8438ZM43.1562 39.8438V38.2812H27.1562V39.8438H43.1562Z" fill="#2F80ED" mask="url(#path-11-inside-6)"/>
<mask id="path-13-inside-7" fill="white">
<path d="M39.0625 41.4062H35.9375C35.5063 41.4062 35.1562 41.7563 35.1562 42.1875V45.3125C35.1562 45.7438 35.5063 46.0938 35.9375 46.0938H39.0625C39.4938 46.0938 39.8438 45.7438 39.8438 45.3125V42.1875C39.8438 41.7563 39.4938 41.4062 39.0625 41.4062ZM38.2812 44.5312H36.7188V42.9688H38.2812V44.5312Z"/>
</mask>
<path d="M39.0625 41.4062H35.9375C35.5063 41.4062 35.1562 41.7563 35.1562 42.1875V45.3125C35.1562 45.7438 35.5063 46.0938 35.9375 46.0938H39.0625C39.4938 46.0938 39.8438 45.7438 39.8438 45.3125V42.1875C39.8438 41.7563 39.4938 41.4062 39.0625 41.4062ZM38.2812 44.5312H36.7188V42.9688H38.2812V44.5312Z" fill="#B0E645"/>
<path d="M38.2812 44.5312V52.5312H46.2812V44.5312H38.2812ZM36.7188 44.5312H28.7188V52.5312H36.7188V44.5312ZM36.7188 42.9688V34.9688H28.7188V42.9688H36.7188ZM38.2812 42.9688H46.2812V34.9688H38.2812V42.9688ZM39.0625 33.4062H35.9375V49.4062H39.0625V33.4062ZM35.9375 33.4062C31.088 33.4062 27.1562 37.338 27.1562 42.1875H43.1562C43.1562 46.1745 39.9245 49.4062 35.9375 49.4062V33.4062ZM27.1562 42.1875V45.3125H43.1562V42.1875H27.1562ZM27.1562 45.3125C27.1562 50.162 31.088 54.0938 35.9375 54.0938V38.0938C39.9245 38.0938 43.1562 41.3255 43.1562 45.3125H27.1562ZM35.9375 54.0938H39.0625V38.0938H35.9375V54.0938ZM39.0625 54.0938C43.912 54.0938 47.8438 50.162 47.8438 45.3125H31.8438C31.8438 41.3255 35.0755 38.0938 39.0625 38.0938V54.0938ZM47.8438 45.3125V42.1875H31.8438V45.3125H47.8438ZM47.8438 42.1875C47.8438 37.338 43.912 33.4062 39.0625 33.4062V49.4062C35.0755 49.4062 31.8438 46.1745 31.8438 42.1875H47.8438ZM38.2812 36.5312H36.7188V52.5312H38.2812V36.5312ZM44.7188 44.5312V42.9688H28.7188V44.5312H44.7188ZM36.7188 50.9688H38.2812V34.9688H36.7188V50.9688ZM30.2812 42.9688V44.5312H46.2812V42.9688H30.2812Z" fill="#2F80ED" mask="url(#path-13-inside-7)"/>
<mask id="path-15-inside-8" fill="white">
<path d="M45.3125 41.4062H42.1875C41.7563 41.4062 41.4062 41.7563 41.4062 42.1875V45.3125C41.4062 45.7438 41.7563 46.0938 42.1875 46.0938H45.3125C45.7438 46.0938 46.0938 45.7438 46.0938 45.3125V42.1875C46.0938 41.7563 45.7438 41.4062 45.3125 41.4062ZM44.5312 44.5312H42.9688V42.9688H44.5312V44.5312Z"/>
</mask>
<path d="M45.3125 41.4062H42.1875C41.7563 41.4062 41.4062 41.7563 41.4062 42.1875V45.3125C41.4062 45.7438 41.7563 46.0938 42.1875 46.0938H45.3125C45.7438 46.0938 46.0938 45.7438 46.0938 45.3125V42.1875C46.0938 41.7563 45.7438 41.4062 45.3125 41.4062ZM44.5312 44.5312H42.9688V42.9688H44.5312V44.5312Z" fill="#B0E645"/>
<path d="M44.5312 44.5312V52.5312H52.5312V44.5312H44.5312ZM42.9688 44.5312H34.9688V52.5312H42.9688V44.5312ZM42.9688 42.9688V34.9688H34.9688V42.9688H42.9688ZM44.5312 42.9688H52.5312V34.9688H44.5312V42.9688ZM45.3125 33.4062H42.1875V49.4062H45.3125V33.4062ZM42.1875 33.4062C37.338 33.4062 33.4062 37.338 33.4062 42.1875H49.4062C49.4062 46.1745 46.1745 49.4062 42.1875 49.4062V33.4062ZM33.4062 42.1875V45.3125H49.4062V42.1875H33.4062ZM33.4062 45.3125C33.4062 50.162 37.338 54.0938 42.1875 54.0938V38.0938C46.1745 38.0938 49.4062 41.3255 49.4062 45.3125H33.4062ZM42.1875 54.0938H45.3125V38.0938H42.1875V54.0938ZM45.3125 54.0938C50.162 54.0938 54.0938 50.162 54.0938 45.3125H38.0938C38.0938 41.3255 41.3255 38.0938 45.3125 38.0938V54.0938ZM54.0938 45.3125V42.1875H38.0938V45.3125H54.0938ZM54.0938 42.1875C54.0938 37.338 50.162 33.4062 45.3125 33.4062V49.4062C41.3255 49.4062 38.0938 46.1745 38.0938 42.1875H54.0938ZM44.5312 36.5312H42.9688V52.5312H44.5312V36.5312ZM50.9688 44.5312V42.9688H34.9688V44.5312H50.9688ZM42.9688 50.9688H44.5312V34.9688H42.9688V50.9688ZM36.5312 42.9688V44.5312H52.5312V42.9688H36.5312Z" fill="#2F80ED" mask="url(#path-15-inside-8)"/>
</svg>
