<svg width="50" height="50" viewBox="0 0 50 50" fill="none" xmlns="http://www.w3.org/2000/svg">
<path d="M24.6262 33.3466C20.9209 33.3466 17.9053 30.331 17.9053 26.6257C17.9053 22.9205 20.9209 19.9049 24.6262 19.9049C28.3314 19.9049 31.347 22.9205 31.347 26.6257C31.347 30.331 28.3314 33.3466 24.6262 33.3466ZM24.6262 20.858C21.4456 20.858 18.8584 23.4446 18.8584 26.6257C18.8584 29.8065 21.4456 32.3931 24.6262 32.3931C27.8068 32.3931 30.3939 29.8065 30.3939 26.6257C30.3939 23.4451 27.8068 20.858 24.6262 20.858Z" fill="black" stroke="#2F80ED"/>
<path d="M10.012 22.7013C7.64268 22.7013 5.71466 20.7733 5.71466 18.4039C5.71466 16.0349 7.6427 14.1066 10.012 14.1066C12.381 14.1066 14.3093 16.035 14.3093 18.4039C14.3093 20.7733 12.381 22.7013 10.012 22.7013ZM10.012 15.0597C8.16766 15.0597 6.66778 16.5595 6.66778 18.4039C6.66778 20.2483 8.16766 21.7482 10.012 21.7482C11.8564 21.7482 13.3562 20.2483 13.3562 18.4039C13.3562 16.5595 11.8564 15.0597 10.012 15.0597Z" fill="black" stroke="#2F80ED"/>
<path d="M31.8405 17.629C29.4715 17.629 27.5432 15.7006 27.5432 13.3316C27.5432 10.9622 29.4715 9.03418 31.8405 9.03418C34.2095 9.03418 36.1379 10.9622 36.1379 13.3316C36.1379 15.7006 34.2095 17.629 31.8405 17.629ZM31.8405 9.98734C29.9961 9.98734 28.4963 11.4872 28.4963 13.3316C28.4963 15.1759 29.9961 16.6758 31.8405 16.6758C33.6848 16.6758 35.1848 15.1759 35.1848 13.3316C35.1848 11.4872 33.6848 9.98734 31.8405 9.98734Z" fill="black" stroke="#2F80ED"/>
<path d="M39.4817 33.2387C37.1128 33.2387 35.1848 31.3103 35.1848 28.9413C35.1848 26.5723 37.1128 24.6439 39.4817 24.6439C41.8511 24.6439 43.7791 26.5723 43.7791 28.9413C43.7791 31.3103 41.8511 33.2387 39.4817 33.2387ZM39.4817 25.5971C37.6372 25.5971 36.1379 27.0971 36.1379 28.9413C36.1379 30.7856 37.6372 32.2855 39.4817 32.2855C41.3265 32.2855 42.826 30.7857 42.826 28.9413C42.826 27.097 41.3265 25.5971 39.4817 25.5971Z" fill="black" stroke="#2F80ED"/>
<path d="M18.8377 43.6169C16.4687 43.6169 14.5403 41.6889 14.5403 39.3196C14.5403 36.9506 16.4687 35.0222 18.8377 35.0222C21.2067 35.0222 23.1351 36.9506 23.1351 39.3196C23.1351 41.6889 21.2067 43.6169 18.8377 43.6169ZM18.8377 35.9753C16.9934 35.9753 15.4935 37.4752 15.4935 39.3196C15.4935 41.1643 16.9934 42.6638 18.8377 42.6638C20.6821 42.6638 22.1819 41.1639 22.1819 39.3196C22.1819 37.4752 20.6821 35.9753 18.8377 35.9753Z" fill="black" stroke="#2F80ED"/>
<path d="M11.1564 34.5965C9.71368 34.5965 8.53906 33.4218 8.53906 31.9791C8.53906 30.5363 9.71367 29.3617 11.1564 29.3617C12.5992 29.3617 13.7738 30.5363 13.7738 31.9791C13.7738 33.4218 12.5992 34.5965 11.1564 34.5965ZM11.1564 30.3148C10.2383 30.3148 9.49216 31.0609 9.49216 31.9791C9.49216 32.8972 10.2383 33.6433 11.1564 33.6433C12.0745 33.6433 12.8207 32.8972 12.8207 31.9791C12.8207 31.0609 12.0745 30.3148 11.1564 30.3148Z" fill="black" stroke="#2F80ED"/>
<path d="M32.3895 40.1173C30.9463 40.1173 29.7721 38.9431 29.7721 37.5C29.7721 36.0571 30.9463 34.8826 32.3895 34.8826C33.8323 34.8826 35.0069 36.0571 35.0069 37.5C35.0069 38.943 33.8323 40.1173 32.3895 40.1173ZM32.3895 35.8357C31.4713 35.8357 30.7252 36.5818 30.7252 37.5C30.7252 38.4181 31.4713 39.1642 32.3895 39.1642C33.3076 39.1642 34.0537 38.4181 34.0537 37.5C34.0537 36.5818 33.3076 35.8357 32.3895 35.8357Z" fill="black" stroke="#2F80ED"/>
<path d="M41.6684 20.133C40.2251 20.133 39.0506 18.9584 39.0506 17.5156C39.0506 16.0729 40.2251 14.8983 41.6684 14.8983C43.1111 14.8983 44.2857 16.0729 44.2857 17.5156C44.2857 18.9584 43.1111 20.133 41.6684 20.133ZM41.6684 15.8514C40.7504 15.8514 40.0037 16.5972 40.0037 17.5156C40.0037 18.434 40.7504 19.1799 41.6684 19.1799C42.586 19.1799 43.3325 18.4339 43.3325 17.5156C43.3325 16.5974 42.586 15.8514 41.6684 15.8514Z" fill="black" stroke="#2F80ED"/>
<path d="M19.3554 14.2689C17.9122 14.2689 16.7376 13.0943 16.7376 11.6515C16.7376 10.2089 17.9122 9.03418 19.3554 9.03418C20.7982 9.03418 21.9728 10.2088 21.9728 11.6515C21.9728 13.0943 20.7982 14.2689 19.3554 14.2689ZM19.3554 9.98735C18.4375 9.98735 17.6907 10.7331 17.6907 11.6515C17.6907 12.57 18.4375 13.3158 19.3554 13.3158C20.2735 13.3158 21.0196 12.5698 21.0196 11.6515C21.0196 10.7333 20.2735 9.98735 19.3554 9.98735Z" fill="black" stroke="#2F80ED"/>
<path d="M25 48.7793C38.1329 48.7793 48.7793 38.1329 48.7793 25C48.7793 11.8671 38.1329 1.2207 25 1.2207C11.8671 1.2207 1.2207 11.8671 1.2207 25C1.2207 38.1329 11.8671 48.7793 25 48.7793Z" stroke="#2F80ED" stroke-width="2"/>
</svg>
