<svg width="35" height="35" viewBox="0 0 35 35" fill="none" xmlns="http://www.w3.org/2000/svg">
<g clip-path="url(#clip0)">
<path d="M19.8629 34.9316H14.247C13.3089 34.9316 12.5459 34.1701 12.5459 33.2339V20.5917H9.26945C8.33142 20.5917 7.56836 19.8298 7.56836 18.8939V13.4767C7.56836 12.5405 8.33142 11.7789 9.26945 11.7789H12.5459V9.06616C12.5459 6.37638 13.3921 4.08794 14.9929 2.44865C16.6009 0.801888 18.8481 -0.0683594 21.4915 -0.0683594L25.7744 -0.0614167C26.7109 -0.0598145 27.4726 0.701752 27.4726 1.63635V6.66611C27.4726 7.60231 26.7098 8.36388 25.772 8.36388L22.8883 8.36495C22.0089 8.36495 21.785 8.54092 21.7371 8.59486C21.6581 8.68431 21.5642 8.93719 21.5642 9.63547V11.7786H25.5553C25.8558 11.7786 26.1469 11.8526 26.397 11.992C26.9367 12.2929 27.2722 12.862 27.2722 13.4769L27.27 18.8942C27.27 19.8298 26.507 20.5914 25.5689 20.5914H21.5642V33.2339C21.5642 34.1701 20.8009 34.9316 19.8629 34.9316ZM14.6017 32.8798H19.5081V19.6731C19.5081 19.048 20.0178 18.5395 20.6439 18.5395H25.2142L25.216 13.8308H20.6436C20.0175 13.8308 19.5081 13.3223 19.5081 12.6972V9.63547C19.5081 8.83385 19.5897 7.92221 20.196 7.23702C20.9285 6.40869 22.083 6.3131 22.8878 6.3131L25.4167 6.31203V1.9899L21.4899 1.98349C17.2417 1.98349 14.6017 4.69757 14.6017 9.06616V12.6972C14.6017 13.3221 14.0923 13.8308 13.4663 13.8308H9.62422V18.5395H13.4663C14.0923 18.5395 14.6017 19.048 14.6017 19.6731V32.8798ZM25.7704 1.99043H25.7707H25.7704Z" fill="#2F80ED"/>
</g>
<defs>
<clipPath id="clip0">
<rect width="35" height="35" fill="white"/>
</clipPath>
</defs>
</svg>
