<svg width="35" height="35" viewBox="0 0 35 35" fill="none" xmlns="http://www.w3.org/2000/svg">
<path d="M25.5258 0H9.47416C4.25002 0 0 4.25002 0 9.47416V25.526C0 30.7499 4.25002 34.9999 9.47416 34.9999H25.526C30.7499 34.9999 34.9999 30.7499 34.9999 25.526V9.47416C34.9999 4.25002 30.7499 0 25.5258 0V0ZM32.9481 25.526C32.9481 29.6185 29.6185 32.9481 25.5258 32.9481H9.47416C5.38142 32.9481 2.05185 29.6185 2.05185 25.526V9.47416C2.05185 5.38142 5.38142 2.05185 9.47416 2.05185H25.526C29.6185 2.05185 32.9481 5.38142 32.9481 9.47416V25.526Z" fill="#2F80ED"/>
<path d="M17.5 7.93005C12.2229 7.93005 7.92993 12.2231 7.92993 17.5001C7.92993 22.7771 12.2229 27.0701 17.5 27.0701C22.777 27.0701 27.07 22.7771 27.07 17.5001C27.07 12.2231 22.777 7.93005 17.5 7.93005ZM17.5 25.0183C13.3546 25.0183 9.98178 21.6457 9.98178 17.5001C9.98178 13.3547 13.3546 9.9819 17.5 9.9819C21.6456 9.9819 25.0181 13.3547 25.0181 17.5001C25.0181 21.6457 21.6456 25.0183 17.5 25.0183Z" fill="#2F80ED"/>
<path d="M27.299 4.53149C25.7396 4.53149 24.4712 5.80015 24.4712 7.35932C24.4712 8.91877 25.7396 10.1874 27.299 10.1874C28.8585 10.1874 30.1271 8.91877 30.1271 7.35932C30.1271 5.79988 28.8585 4.53149 27.299 4.53149ZM27.299 8.13531C26.8712 8.13531 26.523 7.7871 26.523 7.35932C26.523 6.93128 26.8712 6.58334 27.299 6.58334C27.7271 6.58334 28.0753 6.93128 28.0753 7.35932C28.0753 7.7871 27.7271 8.13531 27.299 8.13531Z" fill="#2F80ED"/>
</svg>
