<svg width="25" height="25" viewBox="0 0 25 25" fill="none" xmlns="http://www.w3.org/2000/svg">
<g clip-path="url(#clip0)">
<path d="M5.09412 16.6183C7.55993 19.5659 10.5282 21.8867 13.9161 23.5288C15.206 24.1401 16.931 24.8653 18.8529 24.9896C18.9721 24.9948 19.086 25 19.2052 25C20.4951 25 21.5311 24.5545 22.3755 23.6376C22.3807 23.6324 22.3911 23.622 22.3962 23.6117C22.6967 23.2491 23.0386 22.9227 23.396 22.5756C23.6395 22.3425 23.8882 22.099 24.1264 21.8504C25.2298 20.7004 25.2298 19.2395 24.1161 18.1258L21.0027 15.0124C20.4744 14.4633 19.8424 14.1732 19.1793 14.1732C18.5162 14.1732 17.879 14.4633 17.3351 15.0073L15.4806 16.8618C15.3096 16.7634 15.1335 16.6753 14.9677 16.5924C14.7605 16.4888 14.5688 16.3904 14.3979 16.2816C12.7091 15.2093 11.1758 13.8106 9.70975 12.0131C8.96897 11.0754 8.47166 10.288 8.12458 9.48508C8.61153 9.04476 9.06739 8.58371 9.50772 8.13303C9.66313 7.97244 9.82371 7.81185 9.9843 7.65126C10.5438 7.09179 10.8442 6.44426 10.8442 5.78637C10.8442 5.12847 10.549 4.48094 9.9843 3.92147L8.44058 2.37775C8.25927 2.19644 8.08832 2.02031 7.91219 1.839C7.57029 1.48674 7.21286 1.12412 6.8606 0.797762C6.32703 0.274554 5.70022 0 5.03714 0C4.37925 0 3.74725 0.274555 3.19296 0.802942L1.25554 2.74036C0.551025 3.44488 0.152144 4.29963 0.0692592 5.28906C-0.029166 6.52714 0.198766 7.84293 0.789317 9.43328C1.69587 11.8939 3.06346 14.1784 5.09412 16.6183ZM1.33325 5.39784C1.39541 4.70887 1.6596 4.13386 2.15691 3.63655L4.08397 1.70949C4.38443 1.41939 4.71596 1.26917 5.03714 1.26917C5.35314 1.26917 5.67431 1.41939 5.96959 1.71985C6.31667 2.04103 6.64303 2.37775 6.99528 2.73518C7.17141 2.91649 7.35272 3.0978 7.53403 3.28429L9.07775 4.82801C9.39893 5.14919 9.5647 5.47555 9.5647 5.79673C9.5647 6.1179 9.39893 6.44426 9.07775 6.76544C8.91717 6.92603 8.75658 7.09179 8.59599 7.25238C8.11422 7.73933 7.66354 8.20037 7.16623 8.6407C7.15587 8.65106 7.15069 8.65624 7.14033 8.6666C6.71037 9.09656 6.77771 9.5058 6.88132 9.81662C6.8865 9.83216 6.89168 9.84252 6.89686 9.85806C7.29574 10.8164 7.85003 11.7281 8.71514 12.816C10.2692 14.7327 11.9062 16.2194 13.7089 17.3643C13.9317 17.5093 14.17 17.6233 14.3927 17.7373C14.5999 17.8409 14.7916 17.9393 14.9625 18.0481C14.9833 18.0584 14.9988 18.0688 15.0195 18.0792C15.1905 18.1672 15.3562 18.2087 15.522 18.2087C15.9364 18.2087 16.2058 17.9445 16.2939 17.8564L18.2313 15.919C18.5318 15.6185 18.8581 15.4579 19.1793 15.4579C19.573 15.4579 19.8942 15.7014 20.0962 15.919L23.2199 19.0375C23.8415 19.6591 23.8364 20.3326 23.2044 20.9905C22.9868 21.2236 22.7589 21.4463 22.5154 21.6794C22.1528 22.0317 21.7746 22.3943 21.4327 22.8036C20.837 23.4459 20.1273 23.7464 19.2104 23.7464C19.1223 23.7464 19.0291 23.7412 18.941 23.736C17.2419 23.6272 15.6619 22.9642 14.4756 22.3995C11.2535 20.8402 8.42504 18.6283 6.07838 15.8206C4.14613 13.4946 2.84589 11.3293 1.98596 9.0085C1.45239 7.58392 1.25036 6.43908 1.33325 5.39784Z" fill="#2F80ED"/>
</g>
<defs>
<clipPath id="clip0">
<rect width="25" height="25" fill="white"/>
</clipPath>
</defs>
</svg>
