<svg width="35" height="35" viewBox="0 0 35 35" fill="none" xmlns="http://www.w3.org/2000/svg">
<g clip-path="url(#clip0)">
<path d="M35 7.03847C32.7983 7.13994 32.8464 7.13166 32.5975 7.15249L33.9014 3.42877C33.9014 3.42877 29.8314 4.926 28.7996 5.19383C26.0898 2.75826 22.0619 2.65065 19.1823 4.42051C16.8241 5.87021 15.5584 8.35972 15.9806 11.2695C11.3912 10.6327 7.52434 8.45719 4.4714 4.78982L3.50582 3.63011L2.78431 4.95511C1.87241 6.62938 1.5696 8.54371 1.93142 10.3454C2.07989 11.0845 2.33223 11.7894 2.68177 12.4495L1.85345 12.1286L1.75518 13.5126C1.65558 14.9185 2.12368 16.5596 3.00754 17.9023C3.25642 18.2804 3.57685 18.6956 3.983 19.1052L3.55495 19.0395L4.07726 20.6254C4.76379 22.7091 6.18973 24.3211 8.04024 25.2173C6.19213 26.0015 4.69917 26.5019 2.24518 27.3092L0 28.0472L2.07375 29.181C2.86442 29.6133 5.65834 31.0572 8.41888 31.4903C14.5552 32.4527 21.464 31.6689 26.1151 27.4801C30.0327 23.9518 31.3182 18.933 31.0512 13.7102C31.0108 12.9195 31.2274 12.1649 31.6611 11.5857C32.5297 10.426 34.9947 7.04621 35 7.03847ZM30.0212 10.3574C29.3011 11.3189 28.9403 12.547 29.0049 13.8149C29.2744 19.0831 27.841 23.1686 24.7442 25.9575C21.1268 29.2155 15.2919 30.4943 8.73638 29.4659C7.54917 29.2798 6.32217 28.863 5.30666 28.4467C7.36412 27.7388 8.95294 27.1078 11.5188 25.8934L15.1007 24.198L11.146 23.9449C9.25175 23.8236 7.67441 22.9056 6.70482 21.415C7.21966 21.3851 7.71606 21.3018 8.21033 21.164L11.9821 20.1135L8.17882 19.1821C6.33072 18.7295 5.27729 17.6238 4.71893 16.7757C4.3523 16.2184 4.11278 15.6475 3.96912 15.1212C4.35043 15.2234 4.79504 15.2963 5.51201 15.3674L9.03225 15.7156L6.24313 13.5398C4.23347 11.9724 3.42812 9.61743 4.01852 7.35356C10.2905 13.8589 17.6546 13.37 18.3959 13.542C18.2327 11.9571 18.2285 11.9534 18.1857 11.8025C17.2364 8.44678 19.3169 6.74286 20.2552 6.16608C22.2152 4.96151 25.3263 4.77994 27.4813 6.76449C27.9467 7.19281 28.5761 7.3613 29.1651 7.21497C29.6939 7.08359 30.1278 6.94447 30.5526 6.79307L29.6682 9.31862L30.7972 9.31943C30.5841 9.60515 30.3286 9.94721 30.0212 10.3574Z" fill="#2F80ED"/>
</g>
<defs>
<clipPath id="clip0">
<rect width="35" height="35" fill="white"/>
</clipPath>
</defs>
</svg>
