<svg width="50" height="50" viewBox="0 0 50 50" fill="none" xmlns="http://www.w3.org/2000/svg">
<path d="M49.1667 45H46.6667V29.1667C46.6667 28.7068 46.2926 28.3334 45.8325 28.3342C45.5608 28.3342 45.3066 28.4668 45.1509 28.6892L33.4842 45.3559C33.2208 45.7334 33.3125 46.2526 33.69 46.5167C33.8292 46.6142 33.9959 46.6667 34.1667 46.6667H45V49.1667C45 49.6267 45.3733 50 45.8333 50C46.2933 50 46.6666 49.6267 46.6666 49.1667V46.6667H49.1666C49.6266 46.6667 49.9999 46.2934 49.9999 45.8334C50 45.3734 49.6267 45 49.1667 45ZM45 31.81V45H35.7667L45 31.81Z" fill="#2F80ED"/>
<path d="M34.1667 48.3333H24.3009L33.4734 37.5324C33.4942 37.5074 33.5134 37.4815 33.5317 37.4549C35.2575 34.9007 34.6825 31.4432 32.2234 29.5848C29.2333 27.4365 25.0675 28.119 22.9192 31.109C22.105 32.2423 21.6666 33.604 21.6666 34.9998C21.6666 35.4598 22.04 35.8331 22.4999 35.8331C22.9599 35.8331 23.3332 35.4598 23.3332 34.9998C23.3332 32.2382 25.5716 29.9998 28.3323 29.9989C29.379 29.9989 30.399 30.3272 31.2498 30.9381C32.9723 32.2581 33.374 34.689 32.1665 36.4923L21.8651 48.6275C21.5676 48.9784 21.6101 49.5042 21.9609 49.8017C22.1117 49.93 22.3026 50 22.5 50H34.1667C34.6267 50 35 49.6267 35 49.1667C35 48.7066 34.6267 48.3333 34.1667 48.3333Z" fill="#2F80ED"/>
<path d="M22.5184 44.1825C22.5358 43.7226 22.1767 43.3358 21.7167 43.3184C10.845 42.915 2.11914 34.2042 1.6958 23.3333H5C5.45996 23.3333 5.8333 22.96 5.8333 22.5C5.8333 22.04 5.45996 21.6667 5 21.6667H1.6958C2.1125 10.815 10.8149 2.11338 21.6666 1.69668V4.1667C21.6666 4.62666 22.0399 5 22.4999 5C22.9599 5 23.3332 4.62666 23.3332 4.1667V1.69668C34.0365 2.11084 42.6757 10.5867 43.2932 21.28L40.0432 18.03C39.7123 17.71 39.1849 17.7191 38.8648 18.0508C38.5532 18.3741 38.5532 18.8857 38.8648 19.2083L43.5165 23.86C43.604 23.9658 43.7174 24.0483 43.8448 24.0991C43.8773 24.1091 43.9106 24.1166 43.9439 24.1232C44.0015 24.144 44.0606 24.1582 44.1206 24.1657C44.1289 24.1657 44.1364 24.1657 44.1447 24.1657C44.153 24.1657 44.1605 24.1657 44.1681 24.1657C44.2314 24.1607 44.2939 24.1482 44.3547 24.1291C44.3889 24.1249 44.423 24.1183 44.4563 24.11C44.5688 24.0699 44.6722 24.0058 44.7572 23.9216L49.4723 19.2082C49.7923 18.8773 49.7831 18.3499 49.4515 18.0299C49.1281 17.7183 48.6165 17.7183 48.2939 18.0299L44.9631 21.3582C44.3684 9.41338 34.5191 0.0291992 22.5592 0.0116211C22.5384 0.0108398 22.5208 0 22.5 0C22.4792 0 22.4616 0.0108398 22.4408 0.0116211C10.0608 0.0283203 0.0283203 10.0608 0.0116211 22.4408C0.0116211 22.4616 0 22.4792 0 22.5C0 22.5208 0.0108398 22.5384 0.0116211 22.5592C0.0324219 34.6342 9.58828 44.5351 21.655 44.9842H21.6858C22.1333 44.9842 22.5017 44.63 22.5184 44.1825Z" fill="#2F80ED"/>
<path d="M33.6958 11.3042C33.3708 10.9792 32.8425 10.9792 32.5175 11.3042L23.5625 20.2584C22.8858 19.9567 22.1134 19.9567 21.4366 20.2584L17.1966 16.0183C16.8657 15.6983 16.3383 15.7075 16.0183 16.0391C15.7066 16.3625 15.7066 16.8741 16.0183 17.1967L20.2499 21.4283C19.6558 22.6724 20.1824 24.1616 21.4266 24.7558C22.3815 25.2117 23.5199 25.0167 24.2674 24.2683C25.019 23.5225 25.2132 22.3808 24.749 21.4292L33.6957 12.4825C34.0208 12.1575 34.0208 11.6292 33.6958 11.3042ZM23.0892 23.0891C22.76 23.4042 22.24 23.4042 21.9108 23.0891C21.585 22.7641 21.585 22.2358 21.9108 21.9108C22.2367 21.5858 22.7642 21.5849 23.0892 21.9108C23.415 22.2358 23.415 22.7634 23.0892 23.0891Z" fill="#2F80ED"/>
</svg>
