<svg width="50" height="50" viewBox="0 0 50 50" fill="none" xmlns="http://www.w3.org/2000/svg">
<g clip-path="url(#clip0)">
<path d="M44.409 0H15.1996C13.528 0 12.168 1.35999 12.168 3.03155V9.81564C6.62697 11.4014 2.55951 16.5126 2.55951 22.5561C2.55951 28.5995 6.62687 33.7107 12.168 35.2965V46.9687C12.168 48.6402 13.528 50.0002 15.1996 50.0002H39.0693C39.3525 50.0002 39.624 49.8877 39.8244 49.6875L47.1278 42.384C47.328 42.1838 47.4405 41.9122 47.4405 41.629V3.03155C47.4405 1.35999 46.0806 0 44.409 0ZM15.1996 2.13547H44.409C44.903 2.13547 45.305 2.53745 45.305 3.03155V6.25398H14.3035V3.03155C14.3035 2.53745 14.7055 2.13547 15.1996 2.13547ZM4.69498 22.556C4.69498 16.4279 9.68049 11.4424 15.8086 11.4424C21.9367 11.4424 26.9222 16.4279 26.9222 22.556C26.9222 28.684 21.9367 33.6697 15.8086 33.6697C9.68049 33.6697 4.69498 28.684 4.69498 22.556ZM14.3035 46.9685V35.7191C14.7977 35.7752 15.2997 35.8051 15.8087 35.8051C19.7883 35.8051 23.3634 34.0411 25.794 31.2543H32.3363C32.926 31.2543 33.404 30.7763 33.404 30.1866C33.404 29.5969 32.926 29.1189 32.3363 29.1189H27.3148C28.2435 27.4969 28.8385 25.6609 29.0073 23.7047H32.3362C32.9259 23.7047 33.4039 23.2267 33.4039 22.637C33.4039 22.0473 32.9259 21.5693 32.3362 21.5693H29.0208C28.8764 19.6174 28.307 17.7822 27.4054 16.1552H32.3361C32.9258 16.1552 33.4038 15.6772 33.4038 15.0875C33.4038 14.4978 32.9258 14.0198 32.3361 14.0198H25.9323C23.5001 11.1396 19.8645 9.30679 15.8084 9.30679C15.2994 9.30679 14.7974 9.33668 14.3032 9.39281V8.38945H45.3047V40.561H41.0328C39.3612 40.561 38.0014 41.921 38.0014 43.5925V47.8645H15.1996C14.7055 47.8645 14.3035 47.4627 14.3035 46.9685ZM40.1372 46.3544V43.5926C40.1372 43.0985 40.5391 42.6966 41.0331 42.6966H43.795L40.1372 46.3544Z" fill="#2F80ED"/>
<path d="M36.5314 16.1552H40.0773C40.667 16.1552 41.145 15.6772 41.145 15.0875C41.145 14.4978 40.667 14.0198 40.0773 14.0198H36.5314C35.9417 14.0198 35.4637 14.4978 35.4637 15.0875C35.4637 15.6772 35.9417 16.1552 36.5314 16.1552Z" fill="#2F80ED"/>
<path d="M36.5314 23.7047H40.0773C40.667 23.7047 41.145 23.2267 41.145 22.637C41.145 22.0473 40.667 21.5693 40.0773 21.5693H36.5314C35.9417 21.5693 35.4637 22.0473 35.4637 22.637C35.4637 23.2267 35.9417 23.7047 36.5314 23.7047Z" fill="#2F80ED"/>
<path d="M36.5314 31.2543H40.0773C40.667 31.2543 41.145 30.7763 41.145 30.1866C41.145 29.5969 40.667 29.1188 40.0773 29.1188H36.5314C35.9417 29.1188 35.4637 29.5969 35.4637 30.1866C35.4637 30.7763 35.9417 31.2543 36.5314 31.2543Z" fill="#2F80ED"/>
<path d="M40.0773 38.8038C40.667 38.8038 41.145 38.3258 41.145 37.7361C41.145 37.1464 40.667 36.6684 40.0773 36.6684H30.0889C29.4992 36.6684 29.0211 37.1464 29.0211 37.7361C29.0211 38.3258 29.4992 38.8038 30.0889 38.8038H40.0773Z" fill="#2F80ED"/>
<path d="M24.0985 17.1697L22.7958 15.8671C22.445 15.5163 21.9787 15.3231 21.4825 15.3231C20.9864 15.3231 20.52 15.5163 20.1692 15.8671L13.3367 22.6995L11.448 20.8109C11.0973 20.4602 10.6309 20.267 10.1348 20.267C9.6388 20.267 9.17235 20.4602 8.82162 20.811L7.51868 22.1138C6.79466 22.8379 6.79466 24.0162 7.51879 24.7403L12.0233 29.2448C12.3741 29.5957 12.8406 29.7889 13.3367 29.7889H13.3368C13.8329 29.7889 14.2993 29.5957 14.6499 29.245L24.0986 19.7963C24.8226 19.0722 24.8226 17.8938 24.0985 17.1697ZM13.3366 27.5381L9.22543 23.427L10.1347 22.5177L12.5816 24.9646C12.9986 25.3816 13.6746 25.3816 14.0917 24.9646L21.4825 17.5737L22.3918 18.483L13.3366 27.5381Z" fill="#2F80ED"/>
</g>
<defs>
<clipPath id="clip0">
<rect width="50" height="50" fill="white"/>
</clipPath>
</defs>
</svg>
