<svg width="50" height="50" viewBox="0 0 50 50" fill="none" xmlns="http://www.w3.org/2000/svg">
<path d="M20.3032 15.6563C19.8987 15.6563 19.5708 15.9841 19.5708 16.3887V17.1716C19.5708 17.5762 19.8987 17.9041 20.3032 17.9041C20.7077 17.9041 21.0356 17.5762 21.0356 17.1716V16.3887C21.0356 15.9842 20.7076 15.6563 20.3032 15.6563Z" fill="#2F80ED"/>
<path d="M29.6969 15.6563C29.2923 15.6563 28.9644 15.9841 28.9644 16.3887V17.1716C28.9644 17.5762 29.2923 17.9041 29.6969 17.9041C30.1015 17.9041 30.4293 17.5762 30.4293 17.1716V16.3887C30.4293 15.9842 30.1014 15.6563 29.6969 15.6563Z" fill="#2F80ED"/>
<path d="M27.8699 21.3543C27.5859 21.0661 27.1221 21.0632 26.8342 21.3473C26.5668 21.6109 25.926 21.9189 25 21.9189C24.0741 21.9189 23.4333 21.6109 23.166 21.3473C22.8779 21.063 22.4141 21.0662 22.1302 21.3542C21.8461 21.6422 21.8493 22.1058 22.1372 22.3899C22.7679 23.0122 23.8381 23.3838 25 23.3838C26.1619 23.3838 27.2321 23.0122 27.8628 22.3899C28.1508 22.1059 28.1539 21.6422 27.8699 21.3543Z" fill="#2F80ED"/>
<path d="M21.0859 13.3079H19.5204C19.1159 13.3079 18.788 13.6358 18.788 14.0403C18.788 14.4449 19.1159 14.7728 19.5204 14.7728H21.086C21.4905 14.7728 21.8184 14.4449 21.8184 14.0403C21.8184 13.6358 21.4904 13.3079 21.0859 13.3079Z" fill="#2F80ED"/>
<path d="M30.4797 13.3079H28.9141C28.5095 13.3079 28.1816 13.6358 28.1816 14.0403C28.1816 14.4449 28.5096 14.7728 28.9141 14.7728H30.4797C30.8843 14.7728 31.2121 14.4449 31.2121 14.0403C31.2121 13.6358 30.8843 13.3079 30.4797 13.3079Z" fill="#2F80ED"/>
<path d="M40.6863 34.8864L35.4071 33.2634C35.4157 33.1039 35.404 32.9426 35.3664 32.7832C35.2508 32.2939 34.9266 31.8842 34.4769 31.6593L31.2121 30.027V27.6991C33.6548 26.0002 35.3739 23.3298 35.8038 20.2525H36.2391C37.6666 20.2525 38.891 19.1919 39.0265 17.8377C39.1025 17.0788 38.8543 16.3212 38.3455 15.759C38.0993 15.4868 37.8017 15.2715 37.4747 15.121V6.99498C37.4747 4.00125 35.0391 1.56562 32.0453 1.56562C32.0415 1.56562 31.9905 1.56562 31.9215 1.56571C30.6028 0.593063 28.6656 0 26.5167 0C21.9417 0 19.8398 0.95312 17.4062 2.05673C16.1061 2.64627 14.7619 3.25584 12.8565 3.81306C12.6565 3.87156 12.4907 4.01248 12.401 4.20066C12.3112 4.38874 12.3059 4.60622 12.3862 4.79851C12.4085 4.85183 12.7358 5.61149 13.58 6.53434C13.2154 6.98306 12.5254 8.13062 12.5254 10.3871V15.1536C11.6826 15.5555 11.0675 16.3515 10.9737 17.2881C10.8976 18.047 11.1457 18.8047 11.6545 19.3671C12.1636 19.9298 12.8906 20.2524 13.6492 20.2524H14.1959C14.6254 23.3307 16.3446 26.0014 18.7879 27.7V30.0269L15.5229 31.6592C15.0732 31.8842 14.749 32.2939 14.6335 32.7832C14.5959 32.9425 14.5843 33.1038 14.5928 33.2633L9.31361 34.8863C7.02056 35.5914 5.47984 37.6768 5.47984 40.0759V49.2673C5.47984 49.6719 5.80777 49.9997 6.21226 49.9997C6.61675 49.9997 6.94468 49.6719 6.94468 49.2673V40.076C6.94468 38.3243 8.06967 36.8014 9.74417 36.2866L15.2354 34.5983L16.2047 35.8907L15.1035 36.992C14.4029 37.6925 14.2299 38.7585 14.673 39.6447L16.7696 43.8379H14.773V43.0047C14.773 42.6001 14.4451 42.2723 14.0406 42.2723C13.6361 42.2723 13.3082 42.6001 13.3082 43.0047V43.8379H10.1265C9.72201 43.8379 9.39408 44.1658 9.39408 44.5703V49.2673C9.39408 49.6719 9.72201 49.9997 10.1265 49.9997H17.9548C18.3593 49.9997 18.6872 49.6719 18.6872 49.2673V47.673L19.6481 49.5949C19.7764 49.8516 20.035 49.9999 20.3038 49.9999C20.4138 49.9999 20.5256 49.9749 20.6307 49.9224C20.9925 49.7414 21.1392 49.3016 20.9583 48.9397L15.9832 38.9894C15.8226 38.6681 15.8853 38.2817 16.1394 38.0276L17.6898 36.477C17.9475 36.2193 17.9765 35.8113 17.7579 35.5197L16.0985 33.3073C16.0434 33.2337 16.0503 33.1582 16.0594 33.1197C16.0685 33.0812 16.096 33.0105 16.1783 32.9693L19.0631 31.527L21.0996 38.5092C21.2129 38.8977 21.6193 39.1204 22.0078 39.0074C22.3961 38.8941 22.6191 38.4876 22.5058 38.0992L22.1848 36.9986C23.0854 37.3116 24.0376 37.4745 25.0002 37.4745C25.9632 37.4745 26.9151 37.3121 27.8155 36.9991L25.0001 46.6514L23.4195 41.2321C23.3062 40.8436 22.8997 40.6207 22.5113 40.7339C22.1229 40.8472 21.9 41.2539 22.0132 41.6421L24.297 49.4722C24.3882 49.7847 24.6747 49.9995 25.0001 49.9995C25.3256 49.9995 25.6121 49.7847 25.7033 49.4722L30.9373 31.527L33.822 32.9693C33.9044 33.0105 33.9318 33.0813 33.941 33.1196C33.9501 33.1582 33.957 33.2337 33.9018 33.3073L32.2425 35.5197C32.0238 35.8112 32.0528 36.2193 32.3104 36.4771L33.861 38.0277C34.1151 38.2817 34.1777 38.6682 34.0172 38.9894L29.0418 48.9398C28.8609 49.3016 29.0075 49.7415 29.3693 49.9225C29.4745 49.9751 29.5863 50 29.6964 50C29.965 50 30.2237 49.8516 30.3521 49.595L35.3271 39.6448C35.7702 38.7587 35.5972 37.6926 34.8968 36.9921L33.7954 35.8907L34.7645 34.5984L40.2559 36.2868C41.9303 36.8015 43.0553 38.3244 43.0553 40.0762V49.2673C43.0553 49.6719 43.3831 49.9997 43.7877 49.9997C44.1923 49.9997 44.5201 49.6719 44.5201 49.2673V40.076C44.52 37.6769 42.9794 35.5914 40.6863 34.8864ZM17.2222 48.5349H10.8587V45.3028H13.308V45.3532C13.308 45.7577 13.6359 46.0856 14.0404 46.0856C14.4449 46.0856 14.7729 45.7577 14.7729 45.3532V45.3028H17.2222V48.5349ZM18.0111 3.3908C20.3841 2.31473 22.2583 1.46484 26.5167 1.46484C29.2189 1.46484 31.6335 2.59569 32.1334 4.09539C32.2614 4.47917 32.6759 4.6863 33.0599 4.55857C33.4435 4.43064 33.651 4.0158 33.523 3.63211C33.4809 3.50574 33.4307 3.38182 33.3737 3.26014C34.9083 3.80759 36.0099 5.27477 36.0099 6.99498V14.8736H35.1767C34.7173 14.8736 34.3435 14.4999 34.3435 14.0404V13.2575C34.3435 9.86195 31.8852 7.36461 31.7805 7.25992C31.5874 7.06676 31.3027 6.99752 31.042 7.07935C26.9762 8.36333 21.2435 9.44545 17.023 7.31002C15.5212 6.55006 14.6344 5.58434 14.168 4.93952C15.7228 4.42859 16.9279 3.88201 18.0111 3.3908ZM29.7474 30.375L28.3486 35.1711C27.3236 35.7203 26.172 36.0098 25.0001 36.0098C23.829 36.0098 22.6763 35.7207 21.6518 35.1719L20.2527 30.375V28.5579C21.6887 29.2549 23.2995 29.6465 25 29.6465C26.7004 29.6465 28.3112 29.2547 29.7474 28.5573V30.375ZM25 28.1816C19.7925 28.1816 15.5559 23.9449 15.5559 18.7373C15.5559 18.3327 15.2279 18.0049 14.8234 18.0049C14.419 18.0049 14.091 18.3327 14.091 18.7373V18.7877H13.6492C13.3038 18.7877 12.9727 18.6406 12.7407 18.3843C12.5058 18.1246 12.3958 17.7872 12.4312 17.4342C12.4928 16.8197 13.077 16.3384 13.7611 16.3384H14.8234C16.0906 16.3384 17.1215 15.3074 17.1215 14.0403V11.2759C17.1215 10.8713 16.7935 10.5435 16.3891 10.5435C15.9846 10.5435 15.6566 10.8713 15.6566 11.2759V14.0403C15.6566 14.4998 15.2828 14.8735 14.8234 14.8735H13.9902V10.3871C13.9902 8.68296 14.4482 7.8355 14.6598 7.53501C15.1072 7.88794 15.632 8.23755 16.2463 8.55766C17.9061 9.4228 19.8817 9.90189 22.118 9.98158C24.7392 10.0758 27.7351 9.61606 31.0281 8.61704C31.6094 9.32094 32.8788 11.1048 32.8788 13.2574V14.0403C32.8788 15.3075 33.9098 16.3384 35.1768 16.3384H36.351C36.6965 16.3384 37.0276 16.4854 37.2595 16.7418C37.4945 17.0015 37.6045 17.3388 37.5691 17.6918C37.5076 18.3063 36.9235 18.7877 36.2393 18.7877H35.9089V18.7449C35.9089 18.3405 35.5811 18.0127 35.1767 18.0125C35.1766 18.0125 35.1765 18.0125 35.1764 18.0125C34.7722 18.0125 34.4443 18.34 34.444 18.7443C34.44 23.948 30.2035 28.1816 25 28.1816Z" fill="#2F80ED"/>
<path d="M39.8737 44.2294H38.6491V43.0048C38.6491 42.6002 38.3212 42.2723 37.9166 42.2723C37.5121 42.2723 37.1842 42.6002 37.1842 43.0048V44.2294H35.9595C35.5549 44.2294 35.2271 44.5572 35.2271 44.9618C35.2271 45.3664 35.5549 45.6942 35.9595 45.6942H37.1842V46.9188C37.1842 47.3234 37.5121 47.6512 37.9166 47.6512C38.3212 47.6512 38.6491 47.3234 38.6491 46.9188V45.6942H39.8737C40.2783 45.6942 40.6061 45.3664 40.6061 44.9618C40.6061 44.5572 40.2781 44.2294 39.8737 44.2294Z" fill="#2F80ED"/>
</svg>
