<svg width="50" height="50" viewBox="0 0 50 50" fill="none" xmlns="http://www.w3.org/2000/svg">
<path d="M46.5291 7.00791C44.1985 4.38848 40.9659 2.9459 37.4268 2.9459C33.5567 2.9459 30.0253 4.446 27.2145 7.28408C26.237 8.2709 25.5064 9.25684 25 10.0393C24.4936 9.25693 23.763 8.27109 22.7855 7.28408C19.9747 4.4459 16.4434 2.9458 12.5732 2.9458C5.16543 2.9458 0 9.14317 0 16.5113C0 26.4643 10.5473 34.8446 24.3604 46.8156C24.5439 46.9747 24.772 47.0542 25 47.0542C25.228 47.0542 25.4561 46.9747 25.6396 46.8156C39.4856 34.816 50 26.4504 50 16.5113C50 12.8985 48.7674 9.52354 46.5291 7.00791ZM25 44.7858C11.9562 33.4983 1.95312 25.3913 1.95312 16.5113C1.95312 9.89121 6.51875 4.89902 12.5732 4.89902C15.935 4.89902 18.8878 6.14766 21.3497 8.61006C23.2253 10.486 24.1004 12.4006 24.109 12.4197C24.2661 12.77 24.6145 12.995 24.9985 12.9958C24.9991 12.9958 24.9998 12.9958 25.0004 12.9958C25.3844 12.9958 25.7332 12.7699 25.8911 12.4197C25.8997 12.4006 26.7748 10.4861 28.6504 8.61006C31.1122 6.14756 34.065 4.89902 37.4269 4.89902C43.4813 4.89902 48.047 9.89121 48.047 16.5113C48.0469 25.5918 37.3838 34.0695 25 44.7858Z" fill="#2F80ED"/>
<path d="M34.375 21.6637H28.9062V16.1949C28.9062 15.6556 28.469 15.2184 27.9297 15.2184H22.0703C21.531 15.2184 21.0938 15.6556 21.0938 16.1949V21.6637H15.625C15.0856 21.6637 14.6484 22.1009 14.6484 22.6402V28.4996C14.6484 29.039 15.0856 29.4762 15.625 29.4762H21.0938V34.9449C21.0938 35.4843 21.531 35.9215 22.0703 35.9215H27.9297C28.469 35.9215 28.9062 35.4843 28.9062 34.9449V29.4762H34.375C34.9144 29.4762 35.3516 29.039 35.3516 28.4996V22.6402C35.3516 22.1009 34.9144 21.6637 34.375 21.6637ZM33.3984 27.523H27.9297C27.3903 27.523 26.9531 27.9602 26.9531 28.4995V33.9683H23.0469V28.4995C23.0469 27.9602 22.6097 27.523 22.0703 27.523H16.6016V23.6167H22.0703C22.6097 23.6167 23.0469 23.1795 23.0469 22.6401V17.1714H26.9531V22.6401C26.9531 23.1795 27.3903 23.6167 27.9297 23.6167H33.3984V27.523Z" fill="#2F80ED"/>
</svg>
