<svg width="50" height="50" viewBox="0 0 50 50" fill="none" xmlns="http://www.w3.org/2000/svg">
<path d="M35.4167 23.4375H30.2084V18.2292C30.2084 17.6539 29.742 17.1875 29.1667 17.1875H20.8334C20.2581 17.1875 19.7917 17.6539 19.7917 18.2292V23.4375H14.5834C14.0081 23.4375 13.5417 23.9039 13.5417 24.4792V32.8125C13.5417 33.3878 14.0081 33.8542 14.5834 33.8542H19.7917V39.0625C19.7917 39.6378 20.2581 40.1042 20.8334 40.1042H29.1667C29.742 40.1042 30.2084 39.6378 30.2084 39.0625V33.8542H35.4167C35.992 33.8542 36.4584 33.3878 36.4584 32.8125V24.4792C36.4583 23.9039 35.992 23.4375 35.4167 23.4375ZM34.375 31.7708H29.1667C28.5914 31.7708 28.125 32.2372 28.125 32.8125V38.0208H21.875V32.8125C21.875 32.2372 21.4086 31.7708 20.8333 31.7708H15.625V25.5208H20.8333C21.4086 25.5208 21.875 25.0544 21.875 24.4791V19.2708H28.125V24.4791C28.125 25.0544 28.5914 25.5208 29.1667 25.5208H34.375V31.7708Z" fill="#2F80ED"/>
<path d="M44.0011 10.9375H33.3333V7.95626C33.3333 5.57921 31.3646 3.64581 28.9447 3.64581H20.6822C18.3552 3.64581 16.6666 5.45831 16.6666 7.95626V10.9375H5.99893C2.68721 10.9409 0.00341797 13.6247 0 16.9364V40.3552C0.00341797 43.6669 2.68721 46.3507 5.99893 46.3541H44.001C47.3127 46.3507 49.9965 43.6669 49.9999 40.3552V16.9364C49.9966 13.6248 47.3128 10.9409 44.0011 10.9375ZM18.75 7.95626C18.75 6.84796 19.3469 5.72921 20.6823 5.72921H28.9448C30.2156 5.72921 31.25 6.72814 31.25 7.95626V10.9375H18.75V7.95626ZM47.9167 40.352C47.9161 42.5148 46.1639 44.2685 44.0011 44.2708H5.99893C3.8373 44.2686 2.08564 42.5168 2.0833 40.3552V16.9364C2.08564 14.7748 3.8373 13.0232 5.99893 13.0208H44.001C46.1626 13.0232 47.9144 14.7748 47.9166 16.9364V40.352H47.9167Z" fill="#2F80ED"/>
</svg>
