<svg width="50" height="50" viewBox="0 0 50 50" fill="none" xmlns="http://www.w3.org/2000/svg">
<g clip-path="url(#clip0)">
<path d="M49.484 22.9467C48.9226 22.1729 47.9887 21.7606 47.0387 21.8669C46.0887 21.9734 45.2691 22.582 44.8927 23.4608L44.1607 25.1687C43.6238 16.5657 38.6551 12.2514 36.4271 10.7395C38.2571 8.96753 38.8283 6.26211 37.871 3.90163C36.9136 1.54115 34.6193 -0.00204742 32.072 0.00136975C29.5247 0.00478692 27.2345 1.55394 26.2833 3.91696C25.3322 6.27998 25.9107 8.98384 27.7453 10.751C26.755 11.4253 25.8421 12.2068 25.0233 13.0812C24.1965 12.1981 23.2739 11.4102 22.2722 10.7319C24.0997 8.9565 24.6664 6.24952 23.7045 3.8902C22.7426 1.53089 20.4448 -0.00829596 17.897 2.87506e-06C15.3492 0.00839935 13.0615 1.56263 12.1152 3.92818C11.1688 6.29374 11.7532 8.99702 13.5923 10.7604C11.3398 12.2976 6.38222 16.6431 5.8837 25.2799L5.1043 23.4612C4.72812 22.5821 3.90858 21.9731 2.95832 21.8665C2.00815 21.7598 1.07399 22.1722 0.512405 22.9461C-0.0491823 23.7199 -0.151405 24.736 0.244596 25.6062L3.50965 32.7892C3.95047 33.7613 4.56331 34.6459 5.3187 35.4001L10.4537 40.5351C10.1642 40.8416 10.0027 41.247 10.0018 41.6686V48.3337C10.0027 49.2536 10.7482 49.999 11.6681 50H20.8326C21.7525 49.9991 22.498 49.2536 22.499 48.3337V42.5018H27.4978V48.3337C27.4987 49.2536 28.2442 49.999 29.1641 50H38.3286C39.2485 49.9991 39.994 49.2536 39.9949 48.3337V41.6686C39.9941 41.247 39.8325 40.8416 39.543 40.5351L44.678 35.4001C45.4334 34.6459 46.0463 33.7614 46.4871 32.7892L49.7521 25.6062C50.1478 24.7361 50.0454 23.7203 49.484 22.9467ZM27.4977 6.26026C27.4977 3.7295 29.5493 1.67803 32.0799 1.67803C34.6107 1.67803 36.6621 3.7296 36.6621 6.26026C36.6621 8.79091 34.6106 10.8425 32.0799 10.8425C29.5503 10.8397 27.5005 8.78974 27.4977 6.26026ZM29.203 11.8013C30.0908 12.266 31.0779 12.5087 32.0799 12.5087C33.0946 12.5091 34.0939 12.2606 34.9904 11.7851C36.579 12.698 42.8225 16.9611 42.5348 27.3538C41.5069 26.9061 40.3351 26.9281 39.3247 27.4139C39.2949 24.1881 38.6511 20.9974 37.4279 18.0124C37.3109 17.7383 37.0566 17.5476 36.7606 17.5121C36.4648 17.4767 36.1725 17.602 35.9942 17.8407C35.8159 18.0795 35.7787 18.3953 35.8966 18.669C35.92 18.7238 38.1746 24.0737 37.5478 28.7062C36.4147 29.6551 35.1387 30.4189 33.767 30.9692C33.6013 31.0245 33.4436 31.1025 33.2836 31.1743C32.9634 26.3611 30.9543 23.741 29.7273 22.5735C30.8153 21.0689 31.1194 19.1353 30.5459 17.3694C29.9723 15.6035 28.59 14.2176 26.8256 13.6394C27.5491 12.9424 28.3463 12.3261 29.203 11.8013ZM24.9983 15.0082C27.2989 15.0082 29.164 16.8732 29.164 19.1739C29.164 21.4747 27.2989 23.3397 24.9983 23.3397C22.6976 23.3397 20.8325 21.4746 20.8325 19.1739C20.8353 16.8744 22.6987 15.0108 24.9983 15.0082ZM13.3343 6.26026C13.3343 3.7295 15.3859 1.67803 17.9165 1.67803C20.4472 1.67803 22.4988 3.7296 22.4988 6.26026C22.4988 8.79091 20.4472 10.8425 17.9165 10.8425C15.387 10.8397 13.3371 8.78974 13.3343 6.26026ZM15.0355 11.7994C16.8482 12.7494 19.0126 12.7451 20.8215 11.7879C21.6811 12.3122 22.481 12.9286 23.207 13.6262C21.4324 14.1953 20.0379 15.5801 19.4565 17.3507C18.8751 19.1213 19.1773 21.0633 20.2692 22.5735C19.0422 23.7409 17.0332 26.3612 16.7129 31.1744C16.5529 31.1026 16.3949 31.0246 16.2291 30.9692C14.8577 30.4188 13.5818 29.6551 12.4488 28.7062C11.8241 24.084 14.0769 18.7234 14.1003 18.6686C14.2794 18.2461 14.0832 17.7583 13.6614 17.5776C13.2396 17.3969 12.7511 17.5913 12.5688 18.0124C11.3455 20.9975 10.7017 24.1882 10.6719 27.4141C9.67803 26.9396 8.52801 26.9157 7.51526 27.3485C7.23095 17.0112 13.4091 12.7407 15.0355 11.7994ZM6.49674 34.222C5.88292 33.6088 5.3848 32.8901 5.02609 32.1001L1.76104 24.9171C1.61859 24.611 1.64476 24.253 1.83016 23.9709C2.0101 23.6855 2.32507 23.5136 2.66249 23.5169C3.05878 23.5166 3.4169 23.7528 3.57253 24.1173L5.43567 28.4644C5.93115 29.6237 6.64446 30.6773 7.53683 31.5679L11.3429 35.3739C11.5533 35.5844 11.86 35.6665 12.1476 35.5895C12.435 35.5125 12.6596 35.2879 12.7366 35.0005C12.8136 34.713 12.7314 34.4063 12.521 34.1958L8.71497 30.3898C8.33254 30.0076 7.98858 29.5887 7.68816 29.1392C8.48759 28.522 9.60773 28.5404 10.3866 29.1835C10.6258 29.3847 10.86 29.5757 11.0913 29.7606C11.1267 29.7946 11.1653 29.8252 11.2063 29.8523C12.545 30.9945 14.0645 31.9061 15.7023 32.5499C16.5001 32.84 17.1961 33.3561 17.7054 34.0351C18.6769 35.3001 19.1917 36.8566 19.1663 38.4513V40.0021H12.2771L6.49674 34.222ZM11.668 48.3337V41.6686H20.8325L20.8337 48.3337H11.668ZM27.7294 40.8355H22.2671C21.9718 40.3217 21.4251 40.0042 20.8325 40.0023V38.4516C20.8325 38.1876 20.8208 37.9258 20.7995 37.6662C20.8162 37.6131 20.8273 37.5584 20.8325 37.5029C20.8325 37.4529 20.859 32.4776 23.1424 29.7008C23.3321 29.4709 23.3846 29.1572 23.28 28.8781C23.1755 28.599 22.9298 28.397 22.6358 28.3483C22.3418 28.2996 22.0442 28.4117 21.8553 28.6422C20.7024 30.1748 19.9259 31.9568 19.5883 33.8446C19.4133 33.5488 19.2189 33.2648 19.0064 32.9946C18.8009 32.7385 18.5784 32.4967 18.3403 32.2707C18.4032 27.3193 20.395 24.7643 21.427 23.7744C23.5248 25.4163 26.4718 25.4163 28.5695 23.7744C29.6016 24.7643 31.5933 27.3193 31.6563 32.2707C31.4181 32.4967 31.1955 32.7386 30.9901 32.9946C30.7776 33.2648 30.5832 33.5487 30.4082 33.8446C30.0706 31.9568 29.2941 30.1748 28.1413 28.6422C27.8488 28.2877 27.3244 28.237 26.9694 28.5291C26.6144 28.821 26.5628 29.3453 26.8542 29.7008C29.1303 32.4687 29.1641 37.4536 29.1641 37.5037C29.1695 37.5588 29.1805 37.6132 29.1971 37.6659C29.1758 37.9255 29.1641 38.1875 29.1641 38.4515V40.0023C28.5714 40.0042 28.0246 40.3217 27.7294 40.8355ZM38.3284 48.3337H29.1639V41.6686H38.3284V48.3337ZM48.2353 24.9171L44.9702 32.1001C44.6116 32.8901 44.1134 33.6088 43.4996 34.222L37.7193 40.0023H30.8301V38.4515C30.8046 36.8568 31.3195 35.3003 32.291 34.0353C32.8002 33.3563 33.4962 32.8403 34.2937 32.5501C35.9319 31.9064 37.4517 30.9946 38.7906 29.8521C38.8313 29.8252 38.8694 29.7949 38.9047 29.7612C39.1362 29.5763 39.3705 29.3851 39.6098 29.1837C40.3882 28.5369 41.5107 28.5153 42.3134 29.1317C42.0118 29.5841 41.666 30.0056 41.2814 30.3899L37.4753 34.1959C37.2648 34.4063 37.1827 34.7131 37.2598 35.0006C37.3368 35.288 37.5613 35.5126 37.8488 35.5896C38.1362 35.6666 38.443 35.5844 38.6535 35.374L42.4595 31.568C43.3519 30.6774 44.0652 29.6238 44.5607 28.4645L46.4242 24.117C46.5797 23.7527 46.9378 23.5166 47.3339 23.517C47.6705 23.5171 47.9841 23.6882 48.1664 23.9712C48.3487 24.2543 48.3746 24.6106 48.2353 24.9171Z" fill="#2F80ED"/>
<path d="M19.1681 44.168H18.335C17.8748 44.168 17.5019 44.541 17.5019 45.0011C17.5019 45.4611 17.8748 45.8342 18.335 45.8342H19.1681C19.6282 45.8342 20.0012 45.4612 20.0012 45.0011C20.0012 44.5409 19.6282 44.168 19.1681 44.168Z" fill="#2F80ED"/>
<path d="M30.8321 45.8343H31.6652C32.1253 45.8343 32.4983 45.4613 32.4983 45.0012C32.4983 44.541 32.1253 44.1681 31.6652 44.1681H30.8321C30.3719 44.1681 29.9989 44.5411 29.9989 45.0012C29.9989 45.4612 30.3719 45.8343 30.8321 45.8343Z" fill="#2F80ED"/>
</g>
<defs>
<clipPath id="clip0">
<rect width="50" height="50" fill="white"/>
</clipPath>
</defs>
</svg>
